<svg id="Group_1526" data-name="Group 1526" xmlns="http://www.w3.org/2000/svg" width="53.151" height="96.511" viewBox="0 0 53.151 96.511">
  <path id="Path_23874" data-name="Path 23874" d="M333.527,42.667h-.05a2.5,2.5,0,0,0-2.49,2.515,2.528,2.528,0,1,0,2.54-2.515Z" transform="translate(-323.033 -34.624)" fill="#fe5b57"/>
  <path id="Path_23877" data-name="Path 23877" d="M140.293,0H104.859C99.976,0,96,4.512,96,10.053v76.4c0,5.541,3.976,10.053,8.859,10.053h35.434c4.883,0,8.859-4.512,8.859-10.053v-76.4C149.151,4.512,145.176,0,140.293,0Zm5.315,86.458c0,3.326-2.385,6.032-5.315,6.032H104.859c-2.93,0-5.315-2.706-5.315-6.032v6.8h46.064v-6.8Zm0,6.191H99.543V3.854h46.064V92.649Zm0-89.2H99.543v6.609c0-3.326,2.385-6.032,5.315-6.032h35.434c2.93,0,5.315,2.706,5.315,6.032V3.444Z" transform="translate(-96)" fill="#162441"/>
</svg>
