<svg xmlns="http://www.w3.org/2000/svg" width="70.985" height="66" viewBox="0 0 70.985 66">
  <g id="app-development" transform="translate(0 2.5)" style="mix-blend-mode: luminosity;isolation: isolate">
    <path id="Path_33634" data-name="Path 33634" d="M56.353,70.386A29.695,29.695,0,1,0,27,40.693,29.525,29.525,0,0,0,56.353,70.386" transform="translate(-20.616 -10.434)" fill="#fff" stroke="#979797" stroke-width="1" fill-rule="evenodd"/>
    <path id="Path_33635" data-name="Path 33635" d="M60.734,75.152A28.078,28.078,0,1,0,33,47.076,27.907,27.907,0,0,0,60.734,75.152" transform="translate(-25.198 -16.542)" fill="none" stroke="#4385f4" stroke-width="2" stroke-dasharray="3" fill-rule="evenodd"/>
    <g id="Group_13351" data-name="Group 13351" transform="translate(5.407)">
      <path id="Path_33636" data-name="Path 33636" d="M31.03,61.6A30.332,30.332,0,0,0,61.191,31.1,30.332,30.332,0,0,0,31.03.6,30.332,30.332,0,0,0,.868,31.1,30.332,30.332,0,0,0,31.03,61.6Z" transform="translate(-0.868 -0.604)" fill="none" stroke="#4385f4" stroke-width="5" fill-rule="evenodd"/>
    </g>
    <path id="Path_33637" data-name="Path 33637" d="M160.224,140.479h-3.735l.637-1.356.552-1.271h1.358l.551,1.271Z" transform="translate(-122.302 -109.595)" fill="#ff7058" fill-rule="evenodd"/>
    <path id="Path_33638" data-name="Path 33638" d="M152.184,148.965h-8.489a.851.851,0,0,0-.849.847v2.755H152.99v-2.755a.79.79,0,0,0-.807-.847" transform="translate(-111.888 -118.317)" fill="#ffd15c" fill-rule="evenodd"/>
    <path id="Path_33639" data-name="Path 33639" d="M161.644,138.986a10.85,10.85,0,0,1-1.018.466l-.212.042-.212-.085a10.777,10.777,0,0,1-1.019-.466l.552-1.271h1.316Z" transform="translate(-124.358 -109.425)" fill="#f1543f" fill-rule="evenodd"/>
    <path id="Path_33640" data-name="Path 33640" d="M139.979,82.231a8.375,8.375,0,0,1-1.952,5.382,8.547,8.547,0,0,1-6.536,3.093,8.411,8.411,0,0,1-6.536-3.093A8.526,8.526,0,0,1,123,82.231v-.042h16.935v.042h.042ZM121.3,80.494v1.737a10.214,10.214,0,0,0,6.324,9.408,10.161,10.161,0,0,0,7.725,0,10.215,10.215,0,0,0,6.324-9.408V80.494H121.3Zm16.808-2.331H124.869a.516.516,0,0,0-.509.509.526.526,0,0,0,.509.551h13.242a.516.516,0,0,0,.51-.509.526.526,0,0,0-.51-.551" transform="translate(-95.45 -63.234)" fill="#f8b64c" fill-rule="evenodd"/>
    <path id="Path_33641" data-name="Path 33641" d="M149.626,82.644v4.577a10.328,10.328,0,0,1-6.621,9.62,10.384,10.384,0,0,1-6.621-9.662V82.644h13.242Z" transform="translate(-106.958 -66.753)" fill="#ffd15c" fill-rule="evenodd"/>
    <path id="Path_33642" data-name="Path 33642" d="M136.383,83.281h13.2v-.636h-13.2Z" transform="translate(-106.955 -66.417)" fill="#ffc952" fill-rule="evenodd"/>
    <path id="Path_33643" data-name="Path 33643" d="M156.784,92.829H151.9a2.119,2.119,0,0,0-1.8,1.88v4.937h1.878V95.151a.46.46,0,0,1,.375-.45h4.432V92.829ZM152.9,95.244s-.38-.038-.38.3v1.492h2.509v.448a.214.214,0,0,1-.228.223h-2.281v1.94h2.737a1.985,1.985,0,0,0,1.673-1.94V95.244H152.9Z" transform="translate(-117.427 -74.522)" fill="#fff" fill-rule="evenodd"/>
    <g id="Group_13352" data-name="Group 13352" transform="translate(10.55 8.638)" opacity="0.5">
      <path id="Path_33644" data-name="Path 33644" d="M51.326,100.825l0-.009s0,0,0,.009m-1.551,4.025a.039.039,0,0,1,0-.009s0,0,0,.009m-.619,3.731c0-.016,0-.025,0-.024s0,.008,0,.024m-.62,4.016c0-.01,0-.015,0-.014s0,.005,0,.014m.309,4.327s0-.007,0-.006,0,0,0,.006m.62,4.021s0,0,0,0,0,0,0,0M53.51,128.7l-.013-.017s0,.007.013.017m3.107,3.716L56.6,132.4s.006.008.019.017m3.418,3.1-.025-.016s.007.008.025.016" transform="translate(-48.534 -92.406)" fill="#4385f4" fill-rule="evenodd"/>
      <path id="Path_33645" data-name="Path 33645" d="M73.153,109.631a18.827,18.827,0,0,1-6.479-.824c.752-1.04-.492-2.074-1.682-3.07-1.247-.992-2.5-1.984-2.5-1.987-.027.023,1.469,1.614,1.325,3a2.635,2.635,0,0,0,.024.939q-.511-.249-1.006-.525c.875-.895-.116-2.174-1.068-3.389-1.007-1.226-2.023-2.429-2.023-2.432-.029.016,1.117,1.869.742,3.234a2.825,2.825,0,0,0-.138.943q-.444-.341-.866-.7c.984-.74.266-2.2-.434-3.572-.749-1.393-1.521-2.745-1.522-2.748-.029.009.754,2.034.161,3.336a2.947,2.947,0,0,0-.293.923q-.367-.414-.711-.845c1.053-.578.642-2.143.195-3.621-.5-1.5-1.03-2.917-1.025-2.938-.028,0,.4,2.115-.394,3.316a3.042,3.042,0,0,0-.436.869q-.285-.466-.548-.944c1.122-.416.978-2.021.779-3.538-.242-1.551-.54-3.01-.54-3.027-.026,0,.063,2.126-.9,3.191a3.1,3.1,0,0,0-.565.792q-.132-.324-.256-.65c-.064-.168-.125-.337-.184-.506,1.129-.225,1.231-1.744,1.262-3.186,0-1.472-.081-2.864-.088-2.878A5.145,5.145,0,0,1,52.7,91.628a2.924,2.924,0,0,0-.65.67q-.167-.684-.3-1.372c1.12-.033,1.423-1.432,1.642-2.773.189-1.36.293-2.658.281-2.673a4.643,4.643,0,0,1-1.566,2.442,2.717,2.717,0,0,0-.714.548q-.08-.779-.117-1.558c1.074.138,1.531-1.114,1.9-2.33.338-1.23.586-2.425.569-2.442S53.116,83.748,52,84.189a2.479,2.479,0,0,0-.746.417q.018-.694.066-1.384c.008-.108.017-.216.025-.324.968.288,1.571-.826,2.034-1.9s.789-2.208.789-2.212-.75,1.427-1.844,1.678a2.287,2.287,0,0,0-.73.276q.136-.908.323-1.809c.851.368,1.523-.57,2.054-1.506a21.181,21.181,0,0,0,.96-2c-.011,0-.84,1.268-1.877,1.348a2.082,2.082,0,0,0-.652.138q.254-.935.562-1.869c.721.391,1.416-.38,1.985-1.191a19.676,19.676,0,0,0,1.1-1.827c-.01,0-.91,1.138-1.866,1.073a1.841,1.841,0,0,0-.53.026q.353-.906.754-1.816c.015-.04.03-.079.045-.119.6.393,1.291-.239,1.887-.947a20.288,20.288,0,0,0,1.235-1.688c-.012,0-.979,1.039-1.836.856a1.529,1.529,0,0,0-.544-.032,39.611,39.611,0,0,1,2-3.925c-.834,1.306-1.575,2.587-2.231,3.855a2.464,2.464,0,0,0-.321-.641,2.223,2.223,0,0,1-.183-1.571,5.632,5.632,0,0,1,.278-.989,11.456,11.456,0,0,0-1.053,2.426c-.339,1.2-.33,2.336.447,2.476q-.461,1-.853,1.994a2.533,2.533,0,0,0-.386-.505,2.15,2.15,0,0,1-.429-1.548,5.26,5.26,0,0,1,.146-1.018,11.191,11.191,0,0,0-.772,2.56c-.19,1.215-.048,2.347.742,2.441q-.3.912-.55,1.83a2.589,2.589,0,0,0-.441-.408c-.85-.6-.682-2.41-.65-2.548a11.18,11.18,0,0,0-.483,2.7c-.046,1.252.237,2.392,1.064,2.4l0,.014q-.168.838-.3,1.686a2.605,2.605,0,0,0-.508-.344c-.977-.488-1.028-2.379-1.013-2.522a11.4,11.4,0,0,0-.172,2.86c.107,1.308.552,2.464,1.427,2.341q-.061.788-.086,1.579a2.639,2.639,0,0,0-.593-.289c-1.063-.349-1.369-2.22-1.385-2.456a11.975,11.975,0,0,0,.182,3c.264,1.351.931,2.54,1.824,2.242q.038.726.111,1.451a2.643,2.643,0,0,0-.694-.229c-1.179-.206-1.745-2.189-1.776-2.38a12.344,12.344,0,0,0,.593,3.148c.467,1.407,1.349,2.583,2.26,2.067q.129.662.29,1.321a2.688,2.688,0,0,0-.807-.153c-1.286-.037-2.165-2.12-2.192-2.248a12.639,12.639,0,0,0,1.073,3.244c.708,1.44,1.834,2.569,2.719,1.8q.207.582.442,1.155a2.82,2.82,0,0,0-.9-.046c-1.369.161-2.616-1.958-2.63-2.037A12.785,12.785,0,0,0,51,97.377c.978,1.423,2.361,2.443,3.163,1.445q.267.484.556.957a2.865,2.865,0,0,0-.907.088c-1.365.37-2.963-1.631-2.936-1.648A12.213,12.213,0,0,0,53,101.228c1.2,1.268,2.758,2.069,3.4.957q.349.436.722.856a2.964,2.964,0,0,0-.9.226c-1.244.548-3.041-.984-3.2-1.167a12.69,12.69,0,0,0,2.613,2.637c1.454,1.071,3.136,1.564,3.607.387q.432.371.886.721a3.146,3.146,0,0,0-.879.371c-1.166.741-3.227-.463-3.436-.627a12.509,12.509,0,0,0,3.09,2.158c1.658.8,3.459.98,3.737-.242q.5.283,1.025.539a3.389,3.389,0,0,0-.826.516c-1.058.929-3.347.124-3.606-.009a12.427,12.427,0,0,0,3.519,1.555c1.824.48,3.692.3,3.781-.92a18.838,18.838,0,0,0,6.567.836l.048-.393ZM96.618,73.823l0-.009s0,0,0,.009m1.157,4.025,0-.009s0,0,0,.009m.868,3.731a.082.082,0,0,1,0-.024s0,.008,0,.024m.289,4.016a.107.107,0,0,0,0-.014s0,.005,0,.014m0,4.327s0-.007,0-.006,0,0,0,.006m-.869,4.021s0,0,0,0,0,0,0,0M94.587,101.7l.012-.017s0,.007-.012.017m-2.9,3.716.017-.017s0,.008-.017.017m-3.186,3.1.024-.016s-.007.008-.024.016" transform="translate(-48.534 -65.403)" fill="#4385f4" fill-rule="evenodd"/>
      <path id="Path_33646" data-name="Path 33646" d="M74.65,109.631a18.823,18.823,0,0,0,6.479-.824c-.752-1.04.491-2.074,1.681-3.07,1.247-.992,2.5-1.984,2.5-1.987.027.023-1.469,1.614-1.325,3a2.635,2.635,0,0,1-.024.939q.511-.249,1.006-.525c-.875-.895.116-2.174,1.068-3.389,1.007-1.226,2.023-2.429,2.023-2.432.029.016-1.117,1.869-.742,3.234a2.825,2.825,0,0,1,.138.943q.443-.341.865-.7c-.984-.74-.266-2.2.434-3.572.748-1.393,1.521-2.745,1.522-2.748.029.009-.754,2.034-.161,3.336a2.947,2.947,0,0,1,.293.923q.367-.414.711-.845c-1.053-.578-.642-2.143-.195-3.621.5-1.5,1.03-2.917,1.024-2.938.028,0-.4,2.115.394,3.316a3.041,3.041,0,0,1,.436.869q.285-.466.548-.944c-1.121-.416-.977-2.021-.779-3.538.242-1.551.541-3.01.541-3.027.026,0-.063,2.126.9,3.191a3.093,3.093,0,0,1,.565.792q.132-.324.255-.65c.064-.168.125-.337.184-.506-1.129-.225-1.231-1.744-1.261-3.186,0-1.472.081-2.864.088-2.878A5.145,5.145,0,0,0,95.1,91.628a2.915,2.915,0,0,1,.649.67q.167-.684.3-1.372c-1.12-.033-1.423-1.432-1.642-2.773-.189-1.36-.293-2.658-.281-2.673a4.641,4.641,0,0,0,1.565,2.442,2.716,2.716,0,0,1,.714.548q.079-.779.117-1.558c-1.074.138-1.531-1.114-1.9-2.33-.338-1.23-.586-2.425-.569-2.442s.627,1.608,1.746,2.049a2.479,2.479,0,0,1,.746.417q-.018-.694-.066-1.384c-.008-.108-.017-.216-.025-.324-.968.288-1.571-.826-2.033-1.9s-.789-2.208-.789-2.212.75,1.427,1.843,1.678a2.287,2.287,0,0,1,.73.276q-.136-.908-.323-1.809c-.851.368-1.523-.57-2.053-1.506a21.183,21.183,0,0,1-.959-2c.011,0,.84,1.268,1.876,1.348a2.082,2.082,0,0,1,.652.138q-.254-.935-.562-1.869c-.721.391-1.416-.38-1.985-1.191a19.68,19.68,0,0,1-1.1-1.827c.01,0,.91,1.138,1.866,1.073a1.84,1.84,0,0,1,.53.026q-.353-.906-.754-1.816l-.045-.119c-.6.393-1.291-.239-1.886-.947a20.286,20.286,0,0,1-1.235-1.688c.012,0,.979,1.039,1.835.856a1.529,1.529,0,0,1,.543-.032,39.611,39.611,0,0,0-2-3.925c.833,1.306,1.575,2.587,2.231,3.855a2.455,2.455,0,0,1,.321-.641,2.227,2.227,0,0,0,.183-1.571,5.632,5.632,0,0,0-.278-.989,11.457,11.457,0,0,1,1.053,2.426c.339,1.2.33,2.336-.447,2.476q.461,1,.853,1.994a2.521,2.521,0,0,1,.386-.505,2.15,2.15,0,0,0,.429-1.548,5.259,5.259,0,0,0-.146-1.018,11.19,11.19,0,0,1,.772,2.56c.19,1.215.048,2.347-.742,2.441q.3.912.55,1.83a2.586,2.586,0,0,1,.44-.408c.851-.6.682-2.41.651-2.548a11.182,11.182,0,0,1,.482,2.7c.046,1.252-.237,2.392-1.063,2.4l0,.014q.168.838.3,1.686a2.606,2.606,0,0,1,.508-.344c.977-.488,1.028-2.379,1.013-2.522a11.405,11.405,0,0,1,.172,2.86c-.107,1.308-.552,2.464-1.427,2.341q.061.788.086,1.579a2.639,2.639,0,0,1,.593-.289c1.063-.349,1.368-2.22,1.385-2.456a11.977,11.977,0,0,1-.182,3c-.264,1.351-.93,2.54-1.824,2.242q-.038.726-.111,1.451a2.643,2.643,0,0,1,.694-.229c1.179-.206,1.745-2.189,1.776-2.38a12.344,12.344,0,0,1-.593,3.148c-.467,1.407-1.349,2.583-2.26,2.067q-.129.662-.291,1.321a2.691,2.691,0,0,1,.807-.153c1.286-.037,2.165-2.12,2.192-2.248a12.64,12.64,0,0,1-1.073,3.244c-.708,1.44-1.834,2.569-2.718,1.8q-.207.582-.442,1.155a2.82,2.82,0,0,1,.9-.046c1.369.161,2.616-1.958,2.63-2.037A12.785,12.785,0,0,1,96.8,97.377c-.978,1.423-2.36,2.443-3.163,1.445q-.267.484-.556.957a2.865,2.865,0,0,1,.907.088c1.364.37,2.963-1.631,2.935-1.648a12.2,12.2,0,0,1-2.127,3.009c-1.2,1.268-2.757,2.069-3.4.957q-.35.436-.722.856a2.963,2.963,0,0,1,.9.226c1.244.548,3.04-.984,3.2-1.167a12.7,12.7,0,0,1-2.613,2.637c-1.454,1.071-3.136,1.564-3.606.387q-.432.371-.886.721a3.145,3.145,0,0,1,.879.371c1.166.741,3.227-.463,3.436-.627a12.508,12.508,0,0,1-3.09,2.158c-1.658.8-3.459.98-3.737-.242q-.5.283-1.025.539a3.389,3.389,0,0,1,.826.516c1.058.929,3.346.124,3.605-.009a12.423,12.423,0,0,1-3.519,1.555c-1.824.48-3.692.3-3.78-.92a18.833,18.833,0,0,1-6.566.836l-.048-.393Zm-23.3-35.9,0-.009s0,0,0,.009m-1.229,3.924a.043.043,0,0,1,0-.009s0,0,0,.009m-.8,4.023a.089.089,0,0,0,0-.024s0,.009,0,.024m-.35,4.074c0-.011,0-.016,0-.015s0,.005,0,.015m.144,4.123s0-.007,0-.006,0,0,0,.006m.694,4.107s0,0,0,0,0,0,0,0m3.618,7.957-.012-.018s0,.008.012.018M56.2,105.42l-.018-.018s.005.008.018.018m3.393,2.954-.024-.017s.007.008.024.017" transform="translate(-48.869 -65.403)" fill="#4385f4" fill-rule="evenodd"/>
      <path id="Path_33647" data-name="Path 33647" d="M75.128,109.288a21.223,21.223,0,0,1-6.882-.821c.8-1.037-.522-2.067-1.786-3.061-1.325-.989-2.651-1.978-2.651-1.981-.029.023,1.561,1.609,1.408,2.99a2.469,2.469,0,0,0,.026.937q-.543-.249-1.069-.523c.93-.892-.124-2.168-1.134-3.379-1.069-1.222-2.149-2.422-2.149-2.425-.031.016,1.186,1.864.789,3.224a2.657,2.657,0,0,0-.146.94q-.471-.34-.919-.7c1.045-.738.282-2.195-.461-3.561-.8-1.389-1.616-2.737-1.617-2.739-.031.009.8,2.028.171,3.326a2.81,2.81,0,0,0-.311.921q-.389-.413-.755-.842c1.118-.577.682-2.136.207-3.61-.527-1.5-1.094-2.908-1.088-2.929-.029,0,.423,2.109-.418,3.306a2.964,2.964,0,0,0-.463.866q-.3-.465-.582-.941c1.191-.415,1.038-2.015.827-3.527-.257-1.546-.574-3-.574-3.018-.027,0,.067,2.119-.961,3.182a3.1,3.1,0,0,0-.6.789q-.141-.323-.271-.648c-.068-.168-.132-.336-.2-.5,1.2-.224,1.307-1.739,1.34-3.177,0-1.468-.086-2.855-.093-2.869A4.972,4.972,0,0,1,53.4,91.34a3.007,3.007,0,0,0-.69.668q-.177-.682-.316-1.368c1.19-.033,1.511-1.428,1.744-2.765.2-1.356.311-2.65.3-2.665a4.586,4.586,0,0,1-1.663,2.435,2.87,2.87,0,0,0-.759.547q-.085-.776-.125-1.554c1.14.137,1.626-1.111,2.016-2.323a24.381,24.381,0,0,0,.6-2.435,4.179,4.179,0,0,1-1.855,2.043,2.684,2.684,0,0,0-.792.416q.019-.692.07-1.379c.008-.108.018-.216.027-.323,1.028.287,1.669-.823,2.16-1.891a23.381,23.381,0,0,0,.838-2.205c-.013-.006-.8,1.423-1.958,1.672a2.527,2.527,0,0,0-.775.275q.145-.905.344-1.8c.9.367,1.617-.568,2.181-1.5a20.554,20.554,0,0,0,1.019-2,3.378,3.378,0,0,1-1.993,1.344,2.336,2.336,0,0,0-.692.137q.27-.933.6-1.863c.766.39,1.5-.379,2.108-1.187A19.4,19.4,0,0,0,56.959,71.8c-.011,0-.967,1.135-1.982,1.069a2.081,2.081,0,0,0-.562.026q.375-.9.8-1.81c.015-.039.032-.079.048-.118.637.392,1.371-.239,2-.944a20.315,20.315,0,0,0,1.312-1.683c-.012,0-1.04,1.036-1.95.854a1.728,1.728,0,0,0-.577-.031,38.625,38.625,0,0,1,2.122-3.913c-.885,1.3-1.673,2.579-2.37,3.844a2.4,2.4,0,0,0-.341-.639,2.1,2.1,0,0,1-.195-1.566,5.358,5.358,0,0,1,.3-.986,11.092,11.092,0,0,0-1.118,2.418c-.36,1.194-.35,2.329.475,2.469q-.49,1-.906,1.988a2.549,2.549,0,0,0-.41-.5,2.051,2.051,0,0,1-.455-1.543,4.948,4.948,0,0,1,.155-1.015,10.67,10.67,0,0,0-.82,2.553c-.2,1.211-.051,2.34.789,2.434q-.32.909-.585,1.824a2.691,2.691,0,0,0-.468-.407c-.9-.594-.724-2.4-.691-2.54a10.543,10.543,0,0,0-.513,2.693c-.049,1.248.252,2.385,1.13,2.394l0,.013q-.179.835-.314,1.681a2.783,2.783,0,0,0-.54-.343c-1.038-.486-1.092-2.372-1.076-2.514a10.69,10.69,0,0,0-.183,2.852c.114,1.3.587,2.456,1.515,2.334q-.065.785-.091,1.575a2.882,2.882,0,0,0-.629-.288c-1.129-.348-1.454-2.213-1.471-2.449a11.218,11.218,0,0,0,.193,2.993c.28,1.347.988,2.532,1.937,2.235q.04.724.118,1.447a2.937,2.937,0,0,0-.737-.229c-1.252-.206-1.854-2.182-1.887-2.372a11.628,11.628,0,0,0,.63,3.138c.5,1.4,1.433,2.575,2.4,2.061q.137.66.308,1.317a3.019,3.019,0,0,0-.857-.153c-1.366-.037-2.3-2.114-2.328-2.241a12.051,12.051,0,0,0,1.139,3.235c.752,1.436,1.947,2.561,2.887,1.8q.22.58.469,1.152a3.187,3.187,0,0,0-.959-.046c-1.454.161-2.779-1.952-2.793-2.031A12.422,12.422,0,0,0,51.6,97.071c1.039,1.419,2.507,2.436,3.36,1.441q.284.483.591.954a3.235,3.235,0,0,0-.963.088c-1.449.369-3.147-1.626-3.118-1.643a12.171,12.171,0,0,0,2.26,3c1.28,1.264,2.929,2.063,3.615.955q.371.435.767.854a3.316,3.316,0,0,0-.955.225c-1.322.546-3.23-.981-3.4-1.164a13.051,13.051,0,0,0,2.775,2.629c1.545,1.068,3.331,1.56,3.831.385q.459.37.941.719a3.463,3.463,0,0,0-.933.37c-1.238.739-3.428-.461-3.65-.625A13.3,13.3,0,0,0,60,107.412c1.761.8,3.674.977,3.969-.241q.535.282,1.089.537a3.645,3.645,0,0,0-.878.514c-1.123.926-3.555.124-3.83-.009a13.618,13.618,0,0,0,3.737,1.551c1.938.479,3.922.3,4.016-.917a21.235,21.235,0,0,0,6.975.833l.051-.392Z" transform="translate(-48.874 -65.244)" fill="#4385f4" fill-rule="evenodd" opacity="0.5"/>
      <path id="Path_33648" data-name="Path 33648" d="M237.946,100.442l0-.009s0,0,0,.009m1.316,3.924,0-.009s0,0,0,.009m.859,4.023a.084.084,0,0,1,0-.024s0,.009,0,.024m.375,4.074a.112.112,0,0,0,0-.015s0,.005,0,.015m-.154,4.123s0-.007,0-.006,0,0,0,.006m-.743,4.107s0,0,0,0,0,0,0,0m-3.875,7.957.013-.018s0,.008-.013.018m-2.964,3.479.018-.018s-.005.008-.018.018m-3.633,2.954.025-.017s-.007.008-.025.017" transform="translate(-189.995 -92.113)" fill="#4385f4" fill-rule="evenodd"/>
      <path id="Path_33649" data-name="Path 33649" d="M166.616,109.288a21.223,21.223,0,0,0,6.882-.821c-.8-1.037.522-2.067,1.786-3.061,1.325-.989,2.651-1.978,2.651-1.981.029.023-1.561,1.609-1.408,2.99a2.468,2.468,0,0,1-.026.937q.543-.249,1.069-.523c-.93-.892.123-2.168,1.134-3.379,1.069-1.222,2.148-2.422,2.149-2.425.031.016-1.186,1.864-.789,3.224a2.656,2.656,0,0,1,.146.94q.471-.34.919-.7c-1.045-.738-.282-2.195.461-3.561.8-1.389,1.616-2.737,1.617-2.739.031.009-.8,2.028-.171,3.326a2.81,2.81,0,0,1,.311.921q.39-.413.755-.842c-1.118-.577-.682-2.136-.207-3.61.527-1.5,1.094-2.908,1.088-2.929.029,0-.423,2.109.418,3.306a2.963,2.963,0,0,1,.463.866q.3-.465.583-.941c-1.191-.415-1.038-2.015-.827-3.527.257-1.546.574-3,.574-3.018.027,0-.067,2.119.961,3.182a3.094,3.094,0,0,1,.6.789q.141-.323.271-.648c.068-.168.132-.336.2-.5-1.2-.224-1.307-1.739-1.34-3.177,0-1.468.086-2.855.093-2.869a4.972,4.972,0,0,0,1.368,2.825,3,3,0,0,1,.69.668q.178-.682.317-1.368c-1.19-.033-1.511-1.428-1.744-2.765-.2-1.356-.311-2.65-.3-2.665a4.583,4.583,0,0,0,1.663,2.435,2.87,2.87,0,0,1,.759.547q.084-.776.125-1.554c-1.14.137-1.626-1.111-2.016-2.323a24.263,24.263,0,0,1-.6-2.435,4.178,4.178,0,0,0,1.855,2.043,2.684,2.684,0,0,1,.792.416q-.019-.692-.07-1.379c-.008-.108-.018-.216-.027-.323-1.028.287-1.669-.823-2.16-1.891a23.379,23.379,0,0,1-.839-2.205c.013-.006.8,1.423,1.958,1.672a2.527,2.527,0,0,1,.775.275q-.145-.905-.344-1.8c-.9.367-1.617-.568-2.181-1.5a20.558,20.558,0,0,1-1.019-2,3.378,3.378,0,0,0,1.993,1.344,2.336,2.336,0,0,1,.692.137q-.27-.933-.6-1.863c-.766.39-1.5-.379-2.108-1.187a19.4,19.4,0,0,1-1.169-1.822c.011,0,.967,1.135,1.982,1.069a2.081,2.081,0,0,1,.562.026q-.375-.9-.8-1.81l-.048-.118c-.637.392-1.371-.239-2-.944a20.327,20.327,0,0,1-1.312-1.683c.012,0,1.04,1.036,1.95.854a1.727,1.727,0,0,1,.577-.031,38.626,38.626,0,0,0-2.122-3.913c.885,1.3,1.673,2.579,2.37,3.844a2.392,2.392,0,0,1,.341-.639,2.1,2.1,0,0,0,.195-1.566,5.358,5.358,0,0,0-.3-.986,11.094,11.094,0,0,1,1.118,2.418c.36,1.194.35,2.329-.475,2.469q.49,1,.906,1.988a2.538,2.538,0,0,1,.41-.5,2.051,2.051,0,0,0,.455-1.543,4.947,4.947,0,0,0-.155-1.015,10.669,10.669,0,0,1,.82,2.553c.2,1.211.051,2.34-.789,2.434q.32.909.585,1.824a2.689,2.689,0,0,1,.468-.407c.9-.594.724-2.4.691-2.54a10.542,10.542,0,0,1,.513,2.693c.049,1.248-.252,2.385-1.13,2.394l0,.013q.179.835.314,1.681a2.783,2.783,0,0,1,.54-.343c1.038-.486,1.092-2.372,1.076-2.514a10.689,10.689,0,0,1,.183,2.852c-.114,1.3-.587,2.456-1.515,2.334q.065.785.091,1.575a2.882,2.882,0,0,1,.629-.288c1.129-.348,1.453-2.213,1.471-2.449a11.217,11.217,0,0,1-.193,2.993c-.28,1.347-.988,2.532-1.937,2.235q-.04.724-.118,1.447a2.937,2.937,0,0,1,.737-.229c1.252-.206,1.854-2.182,1.887-2.372a11.628,11.628,0,0,1-.63,3.138c-.5,1.4-1.433,2.575-2.4,2.061q-.137.66-.309,1.317a3.023,3.023,0,0,1,.857-.153c1.366-.037,2.3-2.114,2.328-2.241a12.05,12.05,0,0,1-1.139,3.235c-.752,1.436-1.948,2.561-2.887,1.8q-.22.58-.469,1.152a3.187,3.187,0,0,1,.959-.046c1.454.161,2.779-1.952,2.793-2.031a12.422,12.422,0,0,1-1.722,3.248c-1.039,1.419-2.507,2.436-3.359,1.441q-.284.483-.591.954a3.235,3.235,0,0,1,.963.088c1.449.369,3.147-1.626,3.118-1.643a12.156,12.156,0,0,1-2.259,3c-1.28,1.264-2.929,2.063-3.615.955q-.371.435-.767.854a3.317,3.317,0,0,1,.955.225c1.322.546,3.23-.981,3.4-1.164a13.061,13.061,0,0,1-2.775,2.629c-1.545,1.068-3.331,1.56-3.831.385q-.459.37-.941.719a3.463,3.463,0,0,1,.933.37c1.238.739,3.428-.461,3.65-.625a13.3,13.3,0,0,1-3.282,2.152c-1.761.8-3.674.977-3.969-.241q-.535.282-1.089.537a3.645,3.645,0,0,1,.878.514c1.123.926,3.555.124,3.829-.009a13.617,13.617,0,0,1-3.738,1.551c-1.937.479-3.921.3-4.016-.917a21.235,21.235,0,0,1-6.975.833l-.051-.392Z" transform="translate(-142.264 -65.244)" fill="#4385f4" fill-rule="evenodd" opacity="0.5"/>
    </g>
    <path id="Path_33650" data-name="Path 33650" d="M128.619,223.034a.557.557,0,0,1-.221-.191.375.375,0,0,1-.065-.184.061.061,0,0,1,.02-.047.068.068,0,0,1,.048-.018h.253a.075.075,0,0,1,.044.013.089.089,0,0,1,.03.047.332.332,0,0,0,.094.126.3.3,0,0,0,.193.052.283.283,0,0,0,.329-.338V222.3a.537.537,0,0,1-.434.182.545.545,0,0,1-.444-.179.786.786,0,0,1-.16-.488l0-.077,0-.077a.8.8,0,0,1,.162-.488.538.538,0,0,1,.443-.184.583.583,0,0,1,.264.057.531.531,0,0,1,.187.153v-.111a.067.067,0,0,1,.021-.051.07.07,0,0,1,.05-.02h.233a.066.066,0,0,1,.048.02.069.069,0,0,1,.02.051l0,1.368a.654.654,0,0,1-.176.488.728.728,0,0,1-.531.173A.863.863,0,0,1,128.619,223.034Zm.636-.955a.437.437,0,0,0,.088-.25.907.907,0,0,0,0-.091q0-.068,0-.091a.437.437,0,0,0-.088-.25.283.283,0,0,0-.238-.1q-.306,0-.323.374l0,.068q0,.443.326.443A.283.283,0,0,0,129.254,222.079Zm.993.272a.659.659,0,0,1-.2-.471l0-.125,0-.125a.655.655,0,0,1,.2-.47.85.85,0,0,1,1.024,0,.655.655,0,0,1,.2.47q0,.034,0,.125t0,.125a.659.659,0,0,1-.2.471.864.864,0,0,1-1.03,0Zm.748-.21a.432.432,0,0,0,.087-.275q0-.028,0-.111t0-.111a.433.433,0,0,0-.088-.277.288.288,0,0,0-.23-.1.291.291,0,0,0-.233.1.433.433,0,0,0-.088.277l0,.111,0,.111a.426.426,0,0,0,.088.275.293.293,0,0,0,.233.094A.289.289,0,0,0,130.995,222.142Zm.935.21a.659.659,0,0,1-.2-.471l0-.125,0-.125a.655.655,0,0,1,.2-.47.85.85,0,0,1,1.024,0,.655.655,0,0,1,.2.47q0,.034,0,.125t0,.125a.659.659,0,0,1-.2.471.864.864,0,0,1-1.03,0Zm.748-.21a.432.432,0,0,0,.087-.275q0-.028,0-.111t0-.111a.433.433,0,0,0-.088-.277.288.288,0,0,0-.23-.1.291.291,0,0,0-.233.1.433.433,0,0,0-.088.277l0,.111,0,.111a.427.427,0,0,0,.088.275.293.293,0,0,0,.233.094A.289.289,0,0,0,132.677,222.142Zm.9.2a.8.8,0,0,1-.167-.489l0-.094,0-.094a.784.784,0,0,1,.166-.487.607.607,0,0,1,.875,0v-.63a.064.064,0,0,1,.02-.05.068.068,0,0,1,.048-.018h.247a.064.064,0,0,1,.068.068v1.878a.068.068,0,0,1-.018.048.064.064,0,0,1-.05.02h-.23a.068.068,0,0,1-.068-.068v-.1a.613.613,0,0,1-.891.018Zm.787-.227a.459.459,0,0,0,.087-.257q0-.034,0-.108t0-.111a.391.391,0,0,0-.088-.241.292.292,0,0,0-.238-.1q-.3,0-.323.374l0,.085,0,.085q.02.375.323.374A.281.281,0,0,0,134.368,222.112Zm1.026.362a.066.066,0,0,1-.02-.048v-1.1h-.23a.068.068,0,0,1-.068-.068v-.167a.068.068,0,0,1,.068-.068h.23V220.9a.494.494,0,0,1,.139-.384.607.607,0,0,1,.42-.126h.587a.064.064,0,0,1,.068.068v.167a.068.068,0,0,1-.068.068h-.573a.2.2,0,0,0-.156.054.256.256,0,0,0-.045.167v.1h.775a.064.064,0,0,1,.068.068v1.339a.068.068,0,0,1-.018.048.064.064,0,0,1-.05.02h-.235a.068.068,0,0,1-.068-.068v-1.1h-.471v1.1a.068.068,0,0,1-.018.048.065.065,0,0,1-.05.02h-.235A.066.066,0,0,1,135.394,222.474Zm1.589,0a.066.066,0,0,1-.02-.048v-1.336a.069.069,0,0,1,.02-.051.066.066,0,0,1,.048-.02h.233a.068.068,0,0,1,.071.071v.116a.482.482,0,0,1,.409-.187h.119a.064.064,0,0,1,.068.068v.207a.068.068,0,0,1-.018.048.064.064,0,0,1-.05.02h-.224a.265.265,0,0,0-.287.287v.777a.068.068,0,0,1-.068.068h-.253A.066.066,0,0,1,136.983,222.474Zm1.189,0a.066.066,0,0,1-.02-.048v-1.339a.065.065,0,0,1,.02-.05.068.068,0,0,1,.048-.018h.224a.064.064,0,0,1,.068.068v.1a.5.5,0,0,1,.411-.193.449.449,0,0,1,.44.253.507.507,0,0,1,.193-.183.545.545,0,0,1,.27-.07.5.5,0,0,1,.38.159.656.656,0,0,1,.148.462v.814a.068.068,0,0,1-.018.048.064.064,0,0,1-.05.02h-.235a.068.068,0,0,1-.068-.068v-.792a.368.368,0,0,0-.075-.258.259.259,0,0,0-.2-.079.253.253,0,0,0-.189.081.36.36,0,0,0-.078.257v.792a.068.068,0,0,1-.018.048.064.064,0,0,1-.05.02h-.238a.068.068,0,0,1-.068-.068v-.792a.364.364,0,0,0-.077-.257.258.258,0,0,0-.2-.081.253.253,0,0,0-.189.081.36.36,0,0,0-.078.257v.792a.068.068,0,0,1-.018.048.065.065,0,0,1-.05.02h-.241a.066.066,0,0,1-.048-.02Zm2.744-.017a.569.569,0,0,1-.214-.152.257.257,0,0,1-.069-.149.059.059,0,0,1,.018-.045.063.063,0,0,1,.044-.017h.233a.049.049,0,0,1,.04.023l.064.054a.378.378,0,0,0,.113.067.394.394,0,0,0,.14.024.345.345,0,0,0,.184-.044.14.14,0,0,0,.071-.126.131.131,0,0,0-.033-.092.294.294,0,0,0-.116-.065,2.251,2.251,0,0,0-.251-.067.757.757,0,0,1-.356-.156.359.359,0,0,1-.115-.278.376.376,0,0,1,.068-.214.49.49,0,0,1,.2-.165.746.746,0,0,1,.322-.064.823.823,0,0,1,.332.061.575.575,0,0,1,.211.146.248.248,0,0,1,.072.15.063.063,0,0,1-.062.062H141.6a.057.057,0,0,1-.048-.023q-.02-.014-.064-.052a.362.362,0,0,0-.1-.061.336.336,0,0,0-.131-.023.253.253,0,0,0-.162.045.145.145,0,0,0-.057.119.133.133,0,0,0,.027.085.249.249,0,0,0,.109.064,1.718,1.718,0,0,0,.247.061q.511.1.511.445a.384.384,0,0,1-.174.326.825.825,0,0,1-.487.125.877.877,0,0,1-.36-.065Zm1.314.017a.066.066,0,0,1-.02-.048v-.287a.068.068,0,0,1,.068-.068h.287a.068.068,0,0,1,.068.068v.287a.068.068,0,0,1-.018.048.064.064,0,0,1-.05.02h-.287A.066.066,0,0,1,142.229,222.474Zm.867-.125a.658.658,0,0,1-.2-.479l0-.113,0-.114a.658.658,0,0,1,.2-.479.7.7,0,0,1,.5-.173.822.822,0,0,1,.379.079.585.585,0,0,1,.23.194.449.449,0,0,1,.081.22.055.055,0,0,1-.018.048.07.07,0,0,1-.05.02h-.253a.067.067,0,0,1-.045-.013.133.133,0,0,1-.028-.047.331.331,0,0,0-.112-.156.3.3,0,0,0-.177-.048.286.286,0,0,0-.226.091.429.429,0,0,0-.087.278l0,.1,0,.094q.017.369.312.369a.31.31,0,0,0,.179-.047.326.326,0,0,0,.111-.157.113.113,0,0,1,.027-.045.068.068,0,0,1,.047-.014h.253a.07.07,0,0,1,.05.02.055.055,0,0,1,.018.048.451.451,0,0,1-.079.214.6.6,0,0,1-.227.2.8.8,0,0,1-.383.082.7.7,0,0,1-.5-.173Zm1.621,0a.659.659,0,0,1-.2-.471l0-.125,0-.125a.655.655,0,0,1,.2-.47.85.85,0,0,1,1.024,0,.655.655,0,0,1,.2.47q0,.034,0,.125t0,.125a.659.659,0,0,1-.2.471.864.864,0,0,1-1.03,0Zm.748-.21a.432.432,0,0,0,.087-.275q0-.028,0-.111t0-.111a.433.433,0,0,0-.088-.277.288.288,0,0,0-.23-.1.291.291,0,0,0-.233.1.433.433,0,0,0-.088.277l0,.111,0,.111a.427.427,0,0,0,.088.275.293.293,0,0,0,.233.094A.289.289,0,0,0,145.465,222.142Z" transform="translate(-100.817 -174.097)" fill-rule="evenodd"/>
    <g id="Group_13353" data-name="Group 13353" transform="translate(20.442 4.01)">
      <path id="Path_33651" data-name="Path 33651" d="M127.6,34.463l.5,1.016,1.123.163-.812.79.192,1.116-1-.527-1,.527.192-1.116-.812-.79,1.122-.163Zm-27.6,0-.5,1.016-1.122.163.812.79-.192,1.116,1-.527,1,.527-.192-1.116.812-.79-1.123-.163Zm23.281-5.092.837,1.693,1.871.272-1.354,1.318.32,1.86-1.673-.878-1.673.878.32-1.86-1.354-1.318,1.871-.272Zm-18.964,0-.837,1.693-1.871.272,1.354,1.318-.32,1.86,1.673-.878,1.673.878-.32-1.86,1.354-1.318-1.871-.272Zm9.482-3.807,1.394,2.821,3.118.452-2.257,2.2.533,3.1L113.8,32.669l-2.789,1.464.533-3.1-2.257-2.2,3.118-.452Z" transform="translate(-98.374 -25.563)" fill="#f8b64c" fill-rule="evenodd"/>
      <path id="Path_33652" data-name="Path 33652" d="M149.033,25.563l1.394,2.821,3.118.452-2.257,2.2.533,3.1-2.789-1.464-2.789,1.464.533-3.1-2.257-2.2,3.118-.452Z" transform="translate(-133.61 -25.563)" fill="#ffa829" fill-rule="evenodd"/>
      <path id="Path_33653" data-name="Path 33653" d="M194.969,41.666l.837,1.693,1.871.272-1.354,1.318.32,1.86-1.673-.878-1.673.878.32-1.86-1.354-1.318,1.871-.272Z" transform="translate(-170.064 -37.859)" fill="#f8b64c" fill-rule="evenodd"/>
      <path id="Path_33654" data-name="Path 33654" d="M216.724,63.2l.5,1.016,1.123.163-.812.79.192,1.116-1-.527-1,.527.192-1.116-.812-.79,1.122-.163Z" transform="translate(-187.502 -54.304)" fill="#ffd15c" fill-rule="evenodd"/>
      <path id="Path_33655" data-name="Path 33655" d="M114.757,41.666l-.837,1.693-1.871.272,1.354,1.318-.32,1.86,1.673-.878,1.673.878-.32-1.86,1.354-1.318-1.871-.272Z" transform="translate(-108.816 -37.859)" fill="#f8b64c" fill-rule="evenodd"/>
      <path id="Path_33656" data-name="Path 33656" d="M100,63.2l-.5,1.016-1.122.163.812.79-.192,1.116,1-.527,1,.527-.192-1.116.812-.79-1.123-.163Z" transform="translate(-98.374 -54.304)" fill="#ffd15c" fill-rule="evenodd"/>
    </g>
    <g id="Group_13354" data-name="Group 13354" transform="translate(0 31.082)">
      <path id="Path_33657" data-name="Path 33657" d="M0,173.953H7.986V187.1H0l2.563-6.174Zm70.985,0H63V187.1h7.986l-2.563-6.174Z" transform="translate(0 -169.357)" fill="#2c72c6" fill-rule="evenodd"/>
      <path id="Path_33658" data-name="Path 33658" d="M18.367,154.866l4.006,4.684v12.974l-4.006-4.354Zm62.389,0-4,4.492V172.5l4-4.324Z" transform="translate(-14.024 -154.781)" fill="#3d597a" fill-rule="evenodd"/>
      <path id="Path_33659" data-name="Path 33659" d="M18,167.833H80.394l-.007-13.317H18Z" transform="translate(-13.744 -154.516)" fill="#4385f4" fill-rule="evenodd"/>
    </g>
    <path id="Path_33660" data-name="Path 33660" d="M66.321,168.7h-.527v-2.343h-.736v-.489h2v.489h-.738V168.7Zm2.165-2.881c.745,0,1.214.563,1.214,1.466s-.469,1.464-1.214,1.464-1.214-.563-1.214-1.464S67.739,165.814,68.486,165.814Zm0,.495c-.412,0-.677.377-.677.971s.263.968.677.968.675-.375.675-.968S68.9,166.309,68.486,166.309Zm1.552-.445h1.05a.876.876,0,0,1,.872.969.889.889,0,0,1-.9.969h-.5v.893h-.527Zm.527.469v1.007h.382a.5.5,0,0,0,0-1.007Zm5.139-.469V168.7h-.469v-1.912H75.22l-.684,1.884h-.331l-.684-1.884h-.014V168.7h-.469v-2.832h.61l.715,2.008h.014l.715-2.008h.61Zm1.554-.049c.745,0,1.214.563,1.214,1.466s-.469,1.464-1.214,1.464-1.214-.563-1.214-1.464S76.511,165.814,77.258,165.814Zm0,.495c-.412,0-.677.377-.677.971s.263.968.677.968.675-.375.675-.968S77.669,166.309,77.258,166.309ZM79.94,168.7H78.81v-2.832h1.111a.688.688,0,0,1,.769.707.606.606,0,0,1-.473.614v.016a.655.655,0,0,1,.593.685.782.782,0,0,1-.87.811Zm-.6-2.39v.736h.394c.281,0,.441-.139.441-.379a.339.339,0,0,0-.387-.357Zm0,1.949h.469c.3,0,.467-.145.467-.416s-.169-.406-.48-.406h-.457Zm2.3.442h-.527v-2.832h.527Zm2.046-.491v.491H82.056v-2.832h.527V168.2h1.1Zm1.98,0v.491H84v-2.832h1.667v.489H84.522v.683H85.6v.455H84.522v.714h1.141Zm2.8.491-.192-.687h-.884l-.192.687H86.65l.874-2.832h.619l.876,2.832h-.56Zm-.64-2.29-.323,1.16h.658l-.323-1.16Zm1.456-.542h1.05a.876.876,0,0,1,.872.97.889.889,0,0,1-.9.969h-.5v.893h-.527v-2.832Zm.527.469v1.007h.382a.5.5,0,0,0,0-1.007Zm1.706-.469h1.05a.876.876,0,0,1,.872.97.889.889,0,0,1-.9.969h-.5v.893h-.527v-2.832Zm.527.469v1.007h.382a.5.5,0,0,0,0-1.007Zm-34.795,4.26h.97c.755,0,1.2.506,1.2,1.405s-.445,1.427-1.2,1.427h-.97v-2.832Zm.527.489v1.853h.38c.471,0,.726-.322.726-.934,0-.593-.262-.918-.726-.918Zm3.649,1.853v.491H59.748v-2.832h1.667v.489H60.275v.683h1.076v.455H60.275v.714Zm1.7.491h-.635l-.846-2.832h.59l.576,2.222h.012l.576-2.222h.574Zm2.77-.491v.491H64.219v-2.832h1.667v.489H64.745v.683h1.076v.455H64.745v.714h1.141Zm2.008,0v.491H66.266v-2.832h.527v2.341h1.1Zm1.448-2.39c.745,0,1.214.563,1.214,1.466s-.469,1.464-1.214,1.464-1.214-.563-1.214-1.464S68.595,170.543,69.341,170.543Zm0,.495c-.412,0-.677.377-.677.971s.263.968.677.968.675-.375.675-.968S69.753,171.038,69.341,171.038Zm1.552-.445h1.05a.876.876,0,0,1,.872.969.889.889,0,0,1-.9.969h-.5v.893h-.527v-2.832Zm.527.469v1.007H71.8a.5.5,0,0,0,0-1.007Zm4.371-.469v2.832h-.469v-1.912h-.014l-.684,1.884h-.331l-.684-1.884H73.6v1.912h-.469v-2.832h.61l.715,2.008h.014l.715-2.008h.61Zm2.086,2.341v.491H76.21v-2.832h1.667v.489H76.737v.683h1.076v.455H76.737v.714h1.141Zm.884.491h-.5v-2.832h.44l1.176,1.845h.014v-1.845h.5v2.832h-.436l-1.177-1.855h-.016Zm3.185,0H81.42v-2.343h-.736v-.489h2v.489h-.738Zm2.909.049c-.733,0-1.191-.551-1.191-1.466s.462-1.464,1.191-1.464a1.085,1.085,0,0,1,1.106,1.066h-.513a.609.609,0,0,0-.593-.575c-.4,0-.654.375-.654.971s.253.977.656.977a.59.59,0,0,0,.593-.542h.513A1.065,1.065,0,0,1,84.856,173.473Zm2.568-2.93c.745,0,1.214.563,1.214,1.466s-.469,1.464-1.214,1.464-1.214-.563-1.214-1.464S86.677,170.543,87.424,170.543Zm0,.495c-.412,0-.677.377-.677.971s.263.968.677.968.675-.375.675-.968S87.835,171.038,87.424,171.038Zm4.218-.445v2.832h-.469v-1.912h-.014l-.684,1.884h-.331l-.684-1.884h-.014v1.912h-.469v-2.832h.61L90.3,172.6h.014l.715-2.008h.61Zm.419,0h1.05a.876.876,0,0,1,.872.969.889.889,0,0,1-.9.97h-.5v.893H92.06v-2.832Zm.527.469v1.007h.382a.5.5,0,0,0,0-1.007Zm3.354,2.363-.192-.687h-.884l-.192.687h-.541l.874-2.832h.619l.876,2.832h-.56Zm-.64-2.29-.323,1.16h.658l-.323-1.16Zm1.96,2.29h-.5v-2.832h.44l1.176,1.845h.014v-1.845h.5v2.832h-.436l-1.177-1.855h-.016Zm3.29,0h-.527v-1.058l-.876-1.774h.574l.563,1.209h.012l.565-1.209h.565l-.877,1.774Z" transform="translate(-43.707 -131.686)" fill="#fff" fill-rule="evenodd"/>
  </g>
</svg>
