<svg xmlns="http://www.w3.org/2000/svg" width="402.806" height="399.467" viewBox="0 0 402.806 399.467">
  <g id="Ellipse_502" data-name="Ellipse 502" fill="none" opacity="0.08">
    <path d="M201.4,0c111.232,0,201.4,89.424,201.4,199.733S312.635,399.467,201.4,399.467,0,310.043,0,199.733,90.171,0,201.4,0Z" stroke="none"/>
    <path d="M 201.4028472900391 50.00003051757812 C 117.9190368652344 50.00003051757812 49.99993896484375 117.1701354980469 49.99993896484375 199.7333374023438 C 49.99993896484375 282.2965393066406 117.9190368652344 349.4666442871094 201.4028472900391 349.4666442871094 C 284.8866577148438 349.4666442871094 352.8056640625 282.2965393066406 352.8056640625 199.7333374023438 C 352.8056640625 117.1701354980469 284.8866577148438 50.00003051757812 201.4028472900391 50.00003051757812 M 201.4028472900391 3.0517578125e-05 C 312.6345520019531 3.0517578125e-05 402.8056335449219 89.42364501953125 402.8056335449219 199.7333374023438 C 402.8056335449219 310.0430297851562 312.6345520019531 399.4666442871094 201.4028472900391 399.4666442871094 C 90.171142578125 399.4666442871094 -6.103515625e-05 310.0430297851562 -6.103515625e-05 199.7333374023438 C -6.103515625e-05 89.42364501953125 90.171142578125 3.0517578125e-05 201.4028472900391 3.0517578125e-05 Z" stroke="none" fill="#fff"/>
  </g>
</svg>
