<svg xmlns="http://www.w3.org/2000/svg" width="365.811" height="123.202" viewBox="0 0 365.811 123.202">
  <g id="Group_13523" data-name="Group 13523" transform="translate(-3113.674 -1867.048)" opacity="0.51">
    <g id="Group_13522" data-name="Group 13522">
      <g id="Group_13521" data-name="Group 13521" transform="translate(1 1)">
        <g id="Group_13456" data-name="Group 13456">
          <path id="Path_33788" data-name="Path 33788" d="M3277.775,1880.438a67.2,67.2,0,0,0-7.374,12.361,122.861,122.861,0,0,0,16.236,2.726,109.137,109.137,0,0,1,2.629-13.214A88.694,88.694,0,0,1,3277.775,1880.438Z" fill="none" stroke="#000" stroke-linecap="round" stroke-linejoin="round" stroke-width="1"/>
          <path id="Path_33789" data-name="Path 33789" d="M3303.9,1895.876a109.21,109.21,0,0,0-2.612-13.332,78.268,78.268,0,0,1-12.018-.233,109.137,109.137,0,0,0-2.629,13.214A108.273,108.273,0,0,0,3303.9,1895.876Z" fill="none" stroke="#000" stroke-linecap="round" stroke-linejoin="round" stroke-width="1"/>
          <path id="Path_33790" data-name="Path 33790" d="M3286.637,1895.525a95.37,95.37,0,0,0-.821,10.087h18.856a95.173,95.173,0,0,0-.776-9.736A108.273,108.273,0,0,1,3286.637,1895.525Z" fill="none" stroke="#000" stroke-linecap="round" stroke-linejoin="round" stroke-width="1"/>
          <path id="Path_33791" data-name="Path 33791" d="M3324.76,1905.612h2.045a89.556,89.556,0,0,0,13.009-5.134q-.691-1.845-1.5-3.622a.208.208,0,0,0-.011-.024,1.812,1.812,0,0,0-.193-.417l0-.008A57.511,57.511,0,0,0,3334,1888.9a86.941,86.941,0,0,1-13.475,4.475A70.109,70.109,0,0,1,3324.76,1905.612Z" fill="none" stroke="#000" stroke-linecap="round" stroke-linejoin="round" stroke-width="1"/>
          <path id="Path_33792" data-name="Path 33792" d="M3313.16,1880.805a57.885,57.885,0,0,0-9.277-9.848,56.964,56.964,0,0,1-6.112.459,113.477,113.477,0,0,1,3.513,11.128A68.411,68.411,0,0,0,3313.16,1880.805Z" fill="none" stroke="#000" stroke-linecap="round" stroke-linejoin="round" stroke-width="1"/>
          <path id="Path_33793" data-name="Path 33793" d="M3320.52,1893.375A86.941,86.941,0,0,0,3334,1888.9a54.692,54.692,0,0,0-3.77-5.146l0,0c-.094-.129-.2-.257-.314-.386l0,0a51.4,51.4,0,0,0-6.115-6.122,62.838,62.838,0,0,1-10.631,3.565A67.57,67.57,0,0,1,3320.52,1893.375Z" fill="none" stroke="#000" stroke-linecap="round" stroke-linejoin="round" stroke-width="1"/>
          <path id="Path_33794" data-name="Path 33794" d="M3303.9,1895.876a94.549,94.549,0,0,0,16.624-2.5,67.57,67.57,0,0,0-7.36-12.57,68.411,68.411,0,0,1-11.876,1.739A109.21,109.21,0,0,1,3303.9,1895.876Z" fill="none" stroke="#000" stroke-linecap="round" stroke-linejoin="round" stroke-width="1"/>
          <path id="Path_33795" data-name="Path 33795" d="M3292.754,1871.318c-1.983-.119-3.89-.326-5.7-.592a57.652,57.652,0,0,0-9.278,9.712,88.694,88.694,0,0,0,11.491,1.873A112.968,112.968,0,0,1,3292.754,1871.318Z" fill="none" stroke="#000" stroke-linecap="round" stroke-linejoin="round" stroke-width="1"/>
          <path id="Path_33796" data-name="Path 33796" d="M3341.485,1905.612q-.731-2.633-1.671-5.134a89.556,89.556,0,0,1-13.009,5.134Z" fill="none" stroke="#000" stroke-linecap="round" stroke-linejoin="round" stroke-width="1"/>
          <path id="Path_33797" data-name="Path 33797" d="M3301.284,1882.544a113.477,113.477,0,0,0-3.513-11.128c-1.715.037-3.391,0-5.017-.1a112.968,112.968,0,0,0-3.488,10.993A78.268,78.268,0,0,0,3301.284,1882.544Z" fill="none" stroke="#000" stroke-linecap="round" stroke-linejoin="round" stroke-width="1"/>
          <path id="Path_33798" data-name="Path 33798" d="M3297.771,1871.416c-.854-2.279-1.569-3.945-1.982-4.867l-.029,0h-.207c-.288,0-.574.007-.86.013-.408.911-1.107,2.538-1.939,4.754C3294.38,1871.415,3296.056,1871.453,3297.771,1871.416Z" fill="none" stroke="#000" stroke-linecap="round" stroke-linejoin="round" stroke-width="1"/>
          <path id="Path_33799" data-name="Path 33799" d="M3303.9,1895.876a95.173,95.173,0,0,1,.776,9.736h20.088a70.109,70.109,0,0,0-4.24-12.237A94.549,94.549,0,0,1,3303.9,1895.876Z" fill="none" stroke="#000" stroke-linecap="round" stroke-linejoin="round" stroke-width="1"/>
          <path id="Path_33800" data-name="Path 33800" d="M3270.4,1892.8a124.534,124.534,0,0,1-13.27-3.923,57.961,57.961,0,0,0-3.965,7.135h0a2.622,2.622,0,0,0-.185.433l0,.007q-.965,2.073-1.768,4.255a122.188,122.188,0,0,0,14.7,4.871A70.361,70.361,0,0,1,3270.4,1892.8Z" fill="none" stroke="#000" stroke-linecap="round" stroke-linejoin="round" stroke-width="1"/>
          <path id="Path_33801" data-name="Path 33801" d="M3277.775,1880.438a90.069,90.069,0,0,1-10.572-3.121,51.346,51.346,0,0,0-6.178,6.249l0,.006a3.588,3.588,0,0,0-.309.4l0,.005a55.639,55.639,0,0,0-3.577,4.9,124.534,124.534,0,0,0,13.27,3.923A67.2,67.2,0,0,1,3277.775,1880.438Z" fill="none" stroke="#000" stroke-linecap="round" stroke-linejoin="round" stroke-width="1"/>
          <path id="Path_33802" data-name="Path 33802" d="M3251.21,1900.707q-.887,2.4-1.589,4.905H3265.9l.008-.034A122.188,122.188,0,0,1,3251.21,1900.707Z" fill="none" stroke="#000" stroke-linecap="round" stroke-linejoin="round" stroke-width="1"/>
          <path id="Path_33803" data-name="Path 33803" d="M3286.637,1895.525a122.861,122.861,0,0,1-16.236-2.726,70.361,70.361,0,0,0-4.495,12.779l.124.034h19.786A95.37,95.37,0,0,1,3286.637,1895.525Z" fill="none" stroke="#000" stroke-linecap="round" stroke-linejoin="round" stroke-width="1"/>
          <path id="Path_33804" data-name="Path 33804" d="M3265.9,1905.612h.132l-.124-.034Z" fill="none" stroke="#000" stroke-linecap="round" stroke-linejoin="round" stroke-width="1"/>
          <path id="Path_33805" data-name="Path 33805" d="M3287.053,1870.726c-2.425-.356-4.676-.818-6.7-1.317a43.384,43.384,0,0,0-5.883,2.807l-.013.007c-.168.089-.336.2-.5.3l-.014.009a46.817,46.817,0,0,0-6.733,4.782,90.069,90.069,0,0,0,10.572,3.121A57.652,57.652,0,0,1,3287.053,1870.726Z" fill="none" stroke="#000" stroke-linecap="round" stroke-linejoin="round" stroke-width="1"/>
          <path id="Path_33806" data-name="Path 33806" d="M3297.561,1866.606h-.082a.4.4,0,0,0-.164,0l-.1,0a.135.135,0,0,0-.058-.01c-.22-.019-.439-.019-.659-.019a1.035,1.035,0,0,0-.26,0c-.026,0-.052,0-.078,0h-.012c-.071,0-.142-.009-.213-.011h-.04l-.009,0h-.026c-.016,0-.032,0-.048,0h-.019c.413.922,1.128,2.588,1.982,4.867a56.964,56.964,0,0,0,6.112-.459,53.9,53.9,0,0,0-5.967-4.334c-.082-.005-.163-.013-.245-.017C3297.639,1866.606,3297.592,1866.588,3297.561,1866.606Z" fill="none" stroke="#000" stroke-linecap="round" stroke-linejoin="round" stroke-width="1"/>
          <path id="Path_33807" data-name="Path 33807" d="M3313.16,1880.805a62.838,62.838,0,0,0,10.631-3.565,47.89,47.89,0,0,0-5.821-4.228l-.044-.026c-.158-.1-.316-.2-.474-.286l-.017-.01a43.738,43.738,0,0,0-6.406-3.168,52.26,52.26,0,0,1-7.146,1.435A57.885,57.885,0,0,1,3313.16,1880.805Z" fill="none" stroke="#000" stroke-linecap="round" stroke-linejoin="round" stroke-width="1"/>
          <path id="Path_33808" data-name="Path 33808" d="M3311.029,1869.522c-.973-.384-1.958-.736-2.958-1.044-.192-.066-.392-.126-.589-.186-.076-.022-.152-.051-.226-.071l-.115-.031-.084-.025c-.019-.006-.039-.009-.057-.014-.153-.046-.3-.082-.45-.132-.212-.049-.412-.11-.621-.15l-.147-.038c-.136-.043-.277-.078-.409-.124h-.031c-.271-.065-.549-.107-.821-.166-.577-.129-1.154-.25-1.738-.353-.281-.05-.565-.092-.849-.132-.191-.028-.383-.053-.575-.079l-.189-.025c-.3-.041-.6-.085-.908-.126-.24-.034-.481-.067-.724-.092-.059,0-.106-.007-.156-.011l-.031,0c-.02,0-.044,0-.065-.005h-.013c-.234-.02-.469-.032-.7-.048-.218-.021-.436-.032-.654-.044a53.9,53.9,0,0,1,5.967,4.334A52.26,52.26,0,0,0,3311.029,1869.522Z" fill="none" stroke="#000" stroke-linecap="round" stroke-linejoin="round" stroke-width="1"/>
          <path id="Path_33809" data-name="Path 33809" d="M3292.754,1871.318c.832-2.216,1.531-3.843,1.939-4.754q-1,.021-2,.088a53.98,53.98,0,0,0-5.643,4.074C3288.864,1870.992,3290.771,1871.2,3292.754,1871.318Z" fill="none" stroke="#000" stroke-linecap="round" stroke-linejoin="round" stroke-width="1"/>
          <path id="Path_33810" data-name="Path 33810" d="M3292.7,1866.652a42.133,42.133,0,0,0-7.34,1.165l-1.082.276q-2,.565-3.924,1.316c2.027.5,4.278.961,6.7,1.317A53.98,53.98,0,0,1,3292.7,1866.652Z" fill="none" stroke="#000" stroke-linecap="round" stroke-linejoin="round" stroke-width="1"/>
        </g>
        <g id="Group_13520" data-name="Group 13520">
          <path id="Path_33811" data-name="Path 33811" d="M3247.143,1915.749l-1.445,61.858-2.813.052v11.091h196.2v-70.579Z" fill="none" stroke="#000" stroke-linecap="round" stroke-linejoin="round" stroke-width="1"/>
          <g id="Group_13480" data-name="Group 13480">
            <g id="Group_13479" data-name="Group 13479">
              <path id="Path_33812" data-name="Path 33812" d="M3152.067,1915.445h-38.893v73.305h38.893v-70.567h83.914v-2.738Z" fill="none" stroke="#000" stroke-linecap="round" stroke-linejoin="round" stroke-width="1"/>
              <rect id="Rectangle_10656" data-name="Rectangle 10656" width="30.728" height="11.323" transform="translate(3147.984 1915.445) rotate(180)" fill="none" stroke="#000" stroke-linecap="round" stroke-linejoin="round" stroke-width="1"/>
              <path id="Path_33813" data-name="Path 33813" d="M3155.507,1913.715V1912h.378l-.812-1.828h-1.421l-.812,1.828h.4v1.717h-.694v1.6h3.655v-1.6Z" fill="none" stroke="#000" stroke-linecap="round" stroke-linejoin="round" stroke-width="1"/>
              <path id="Path_33814" data-name="Path 33814" d="M3173.884,1913.715V1912h.378l-.812-1.828h-1.421l-.812,1.828h.4v1.717h-.694v1.6h3.655v-1.6Z" fill="none" stroke="#000" stroke-linecap="round" stroke-linejoin="round" stroke-width="1"/>
              <path id="Path_33815" data-name="Path 33815" d="M3195.1,1913.715V1912h.378l-.812-1.828h-1.421l-.812,1.828h.4v1.717h-.694v1.6h3.655v-1.6Z" fill="none" stroke="#000" stroke-linecap="round" stroke-linejoin="round" stroke-width="1"/>
              <path id="Path_33816" data-name="Path 33816" d="M3216.31,1913.715V1912h.378l-.812-1.828h-1.421l-.812,1.828h.4v1.717h-.694v1.6H3217v-1.6Z" fill="none" stroke="#000" stroke-linecap="round" stroke-linejoin="round" stroke-width="1"/>
              <path id="Path_33817" data-name="Path 33817" d="M3232.207,1913.715V1912h.378l-.812-1.828h-1.421l-.812,1.828h.4v1.717h-.694v1.6h3.655v-1.6Z" fill="none" stroke="#000" stroke-linecap="round" stroke-linejoin="round" stroke-width="1"/>
              <g id="Group_13457" data-name="Group 13457">
                <path id="Path_33818" data-name="Path 33818" d="M3235.981,1895.338h14.552V1977.5h-5.351l-9.2.606Z" fill="none" stroke="#000" stroke-linecap="round" stroke-linejoin="round" stroke-width="1"/>
                <path id="Path_33819" data-name="Path 33819" d="M3245.182,1912.011h-9.2v3.434h9.2v-1.064h-.275l.275-.016Z" fill="none" stroke="#000" stroke-linecap="round" stroke-linejoin="round" stroke-width="1"/>
                <path id="Path_33820" data-name="Path 33820" d="M3249.167,1895.338l-1.022-1.439h-.606v-2.2h-8.565v2.2h-.469l-1.022,1.439h-1.5v1.979h14.552v-1.979Z" fill="none" stroke="#000" stroke-linecap="round" stroke-linejoin="round" stroke-width="1"/>
                <path id="Path_33821" data-name="Path 33821" d="M3245.556,1890.3v-1.229h.766l-1.647-1.853-1.117-2.258h-.649l-1.117,2.258-1.647,1.853h.813v1.229h-1.408v1.39h7.414v-1.39Z" fill="none" stroke="#000" stroke-linecap="round" stroke-linejoin="round" stroke-width="1"/>
              </g>
              <path id="Path_33822" data-name="Path 33822" d="M3152.067,1920.556h83.914v57.555L3152.067,1984Z" fill="none" stroke="#000" stroke-linecap="round" stroke-linejoin="round" stroke-width="1"/>
              <path id="Path_33823" data-name="Path 33823" d="M3227.036,1953.957a4.037,4.037,0,0,1,4.037,4.037v9.881H3223v-9.881A4.038,4.038,0,0,1,3227.036,1953.957Z" fill="none" stroke="#000" stroke-linecap="round" stroke-linejoin="round" stroke-width="1"/>
              <path id="Path_33824" data-name="Path 33824" d="M3204.715,1953.957a4.038,4.038,0,0,1,4.038,4.037v9.881h-8.075v-9.881A4.037,4.037,0,0,1,3204.715,1953.957Z" fill="none" stroke="#000" stroke-linecap="round" stroke-linejoin="round" stroke-width="1"/>
              <path id="Path_33825" data-name="Path 33825" d="M3183.417,1953.957a4.038,4.038,0,0,1,4.038,4.037v9.881h-8.075v-9.881A4.037,4.037,0,0,1,3183.417,1953.957Z" fill="none" stroke="#000" stroke-linecap="round" stroke-linejoin="round" stroke-width="1"/>
              <path id="Path_33826" data-name="Path 33826" d="M3161.438,1953.957a4.038,4.038,0,0,1,4.038,4.037v9.881H3157.4v-9.881A4.038,4.038,0,0,1,3161.438,1953.957Z" fill="none" stroke="#000" stroke-linecap="round" stroke-linejoin="round" stroke-width="1"/>
              <path id="Path_33827" data-name="Path 33827" d="M3132.626,1946.994a6.355,6.355,0,0,1,6.615,6.058v14.823h-13.23v-14.823A6.354,6.354,0,0,1,3132.626,1946.994Z" fill="none" stroke="#000" stroke-linecap="round" stroke-linejoin="round" stroke-width="1"/>
              <rect id="Rectangle_10657" data-name="Rectangle 10657" width="83.914" height="2.803" transform="translate(3235.981 1920.556) rotate(180)" fill="none" stroke="#000" stroke-linecap="round" stroke-linejoin="round" stroke-width="1"/>
              <g id="Group_13460" data-name="Group 13460">
                <g id="Group_13458" data-name="Group 13458">
                  <path id="Path_33832" data-name="Path 33832" d="M3217.516,1921.431h-4.5l-.857,39.658v.786h6.215v-.786Z" fill="none" stroke="#000" stroke-linecap="round" stroke-linejoin="round" stroke-width="1"/>
                  <rect id="Rectangle_10658" data-name="Rectangle 10658" width="7.644" height="6.001" transform="translate(3219.088 1967.875) rotate(180)" fill="none" stroke="#000" stroke-linecap="round" stroke-linejoin="round" stroke-width="1"/>
                </g>
                <g id="Group_13459" data-name="Group 13459">
                  <path id="Path_33833" data-name="Path 33833" d="M3217.873,1920.556h-5.394v1.342h.506l-.047,4.248h4.655l-.058-4.248h.338Z" fill="none" stroke="#000" stroke-linecap="round" stroke-linejoin="round" stroke-width="1"/>
                </g>
              </g>
              <g id="Group_13463" data-name="Group 13463">
                <g id="Group_13461" data-name="Group 13461">
                  <path id="Path_33834" data-name="Path 33834" d="M3175.09,1920.858h-4.5l-.857,40.231v.786h6.215v-.786Z" fill="none" stroke="#000" stroke-linecap="round" stroke-linejoin="round" stroke-width="1"/>
                  <rect id="Rectangle_10659" data-name="Rectangle 10659" width="7.644" height="6.001" transform="translate(3176.662 1967.875) rotate(180)" fill="none" stroke="#000" stroke-linecap="round" stroke-linejoin="round" stroke-width="1"/>
                </g>
                <g id="Group_13462" data-name="Group 13462">
                  <path id="Path_33835" data-name="Path 33835" d="M3175.447,1920.556h-5.394v1.342h.506l-.047,4.248h4.655l-.058-4.248h.338Z" fill="none" stroke="#000" stroke-linecap="round" stroke-linejoin="round" stroke-width="1"/>
                </g>
              </g>
              <g id="Group_13466" data-name="Group 13466">
                <g id="Group_13464" data-name="Group 13464">
                  <path id="Path_33836" data-name="Path 33836" d="M3142.559,1961.874h6.215l-.857-41.62h-4.5Z" fill="none" stroke="#000" stroke-linecap="round" stroke-linejoin="round" stroke-width="1"/>
                  <rect id="Rectangle_10660" data-name="Rectangle 10660" width="7.644" height="6.001" transform="translate(3141.844 1961.874)" fill="none" stroke="#000" stroke-linecap="round" stroke-linejoin="round" stroke-width="1"/>
                </g>
                <g id="Group_13465" data-name="Group 13465">
                  <path id="Path_33837" data-name="Path 33837" d="M3148.274,1920.254h-5.394v1.342h.506l-.047,4.248h4.655l-.058-4.248h.338Z" fill="none" stroke="#000" stroke-linecap="round" stroke-linejoin="round" stroke-width="1"/>
                </g>
              </g>
              <g id="Group_13469" data-name="Group 13469">
                <g id="Group_13467" data-name="Group 13467">
                  <path id="Path_33838" data-name="Path 33838" d="M3116.551,1961.874h6.215l-.857-41.62h-4.5Z" fill="none" stroke="#000" stroke-linecap="round" stroke-linejoin="round" stroke-width="1"/>
                  <rect id="Rectangle_10661" data-name="Rectangle 10661" width="7.644" height="6.001" transform="translate(3123.48 1967.875) rotate(180)" fill="none" stroke="#000" stroke-linecap="round" stroke-linejoin="round" stroke-width="1"/>
                </g>
                <g id="Group_13468" data-name="Group 13468">
                  <path id="Path_33839" data-name="Path 33839" d="M3122.266,1920.254h-5.394v1.342h.506l-.047,4.248h4.655l-.058-4.248h.338Z" fill="none" stroke="#000" stroke-linecap="round" stroke-linejoin="round" stroke-width="1"/>
                </g>
              </g>
              <g id="Group_13472" data-name="Group 13472">
                <g id="Group_13470" data-name="Group 13470">
                  <path id="Path_33840" data-name="Path 33840" d="M3196.3,1920.858h-4.5l-.857,40.231v.786h6.215v-.786Z" fill="none" stroke="#000" stroke-linecap="round" stroke-linejoin="round" stroke-width="1"/>
                  <rect id="Rectangle_10662" data-name="Rectangle 10662" width="7.644" height="6.001" transform="translate(3197.875 1967.875) rotate(180)" fill="none" stroke="#000" stroke-linecap="round" stroke-linejoin="round" stroke-width="1"/>
                </g>
                <g id="Group_13471" data-name="Group 13471">
                  <path id="Path_33841" data-name="Path 33841" d="M3196.66,1920.556h-5.394v1.342h.506l-.047,4.248h4.655l-.058-4.248h.339Z" fill="none" stroke="#000" stroke-linecap="round" stroke-linejoin="round" stroke-width="1"/>
                </g>
              </g>
              <rect id="Rectangle_10663" data-name="Rectangle 10663" width="83.914" height="3.109" transform="translate(3235.981 1970.984) rotate(180)" fill="none" stroke="#000" stroke-linecap="round" stroke-linejoin="round" stroke-width="1"/>
              <rect id="Rectangle_10664" data-name="Rectangle 10664" width="5.142" height="6.186" transform="translate(3205.021 1983.998) rotate(180)" fill="none" stroke="#000" stroke-linecap="round" stroke-linejoin="round" stroke-width="1"/>
              <g id="Group_13473" data-name="Group 13473">
                <rect id="Rectangle_10665" data-name="Rectangle 10665" width="12.761" height="9.049" transform="translate(3137.97 1985.991) rotate(180)" fill="none" stroke="#000" stroke-linecap="round" stroke-linejoin="round" stroke-width="1"/>
              </g>
              <rect id="Rectangle_10666" data-name="Rectangle 10666" width="5.142" height="6.186" transform="translate(3191.001 1983.998) rotate(180)" fill="none" stroke="#000" stroke-linecap="round" stroke-linejoin="round" stroke-width="1"/>
              <rect id="Rectangle_10667" data-name="Rectangle 10667" width="5.142" height="6.186" transform="translate(3176.981 1983.998) rotate(180)" fill="none" stroke="#000" stroke-linecap="round" stroke-linejoin="round" stroke-width="1"/>
              <rect id="Rectangle_10668" data-name="Rectangle 10668" width="5.142" height="6.186" transform="translate(3162.962 1983.998) rotate(180)" fill="none" stroke="#000" stroke-linecap="round" stroke-linejoin="round" stroke-width="1"/>
              <rect id="Rectangle_10669" data-name="Rectangle 10669" width="38.944" height="2.513" transform="translate(3113.174 1917.741)" fill="none" stroke="#000" stroke-linecap="round" stroke-linejoin="round" stroke-width="1"/>
              <g id="Group_13474" data-name="Group 13474">
                <rect id="Rectangle_10670" data-name="Rectangle 10670" width="14.524" height="3.466" transform="translate(3139.915 1955.787) rotate(180)" fill="none" stroke="#000" stroke-linecap="round" stroke-linejoin="round" stroke-width="1"/>
              </g>
              <path id="Path_33842" data-name="Path 33842" d="M3141.546,1906.668c.939,0,1.7.525,1.7,1.173v2.871h-3.4v-2.871C3139.846,1907.193,3140.607,1906.668,3141.546,1906.668Z" fill="none" stroke="#000" stroke-linecap="round" stroke-linejoin="round" stroke-width="1"/>
              <path id="Path_33843" data-name="Path 33843" d="M3132.107,1906.668c.939,0,1.7.525,1.7,1.173v2.871h-3.4v-2.871C3130.408,1907.193,3131.169,1906.668,3132.107,1906.668Z" fill="none" stroke="#000" stroke-linecap="round" stroke-linejoin="round" stroke-width="1"/>
              <path id="Path_33844" data-name="Path 33844" d="M3122.669,1906.668c.938,0,1.7.525,1.7,1.173v2.871h-3.4v-2.871C3120.969,1907.193,3121.73,1906.668,3122.669,1906.668Z" fill="none" stroke="#000" stroke-linecap="round" stroke-linejoin="round" stroke-width="1"/>
              <path id="Path_33845" data-name="Path 33845" d="M3116.551,1901.72h32.224l-.79,2.4h-30.728Z" fill="none" stroke="#000" stroke-linecap="round" stroke-linejoin="round" stroke-width="1"/>
              <path id="Path_33846" data-name="Path 33846" d="M3116.551,1898.539v3.181h32.224v-3.181Z" fill="none" stroke="#000" stroke-linecap="round" stroke-linejoin="round" stroke-width="1"/>
              <rect id="Rectangle_10671" data-name="Rectangle 10671" width="38.893" height="3.109" transform="translate(3152.067 1970.984) rotate(180)" fill="none" stroke="#000" stroke-linecap="round" stroke-linejoin="round" stroke-width="1"/>
              <g id="Group_13475" data-name="Group 13475">
                <rect id="Rectangle_10672" data-name="Rectangle 10672" width="6.639" height="9.492" transform="translate(3157.952 1930.966)" fill="none" stroke="#000" stroke-linecap="round" stroke-linejoin="round" stroke-width="1"/>
                <line id="Line_110" data-name="Line 110" y2="9.492" transform="translate(3161.272 1930.966)" stroke="#000" stroke-linecap="round" stroke-linejoin="round" stroke-width="1"/>
              </g>
              <g id="Group_13476" data-name="Group 13476">
                <rect id="Rectangle_10673" data-name="Rectangle 10673" width="6.639" height="9.492" transform="translate(3180.138 1930.966)" fill="none" stroke="#000" stroke-linecap="round" stroke-linejoin="round" stroke-width="1"/>
                <line id="Line_111" data-name="Line 111" y2="9.492" transform="translate(3183.457 1930.966)" stroke="#000" stroke-linecap="round" stroke-linejoin="round" stroke-width="1"/>
              </g>
              <g id="Group_13477" data-name="Group 13477">
                <rect id="Rectangle_10674" data-name="Rectangle 10674" width="6.639" height="9.492" transform="translate(3201.396 1930.966)" fill="none" stroke="#000" stroke-linecap="round" stroke-linejoin="round" stroke-width="1"/>
                <line id="Line_112" data-name="Line 112" y2="9.492" transform="translate(3204.715 1930.966)" stroke="#000" stroke-linecap="round" stroke-linejoin="round" stroke-width="1"/>
              </g>
              <g id="Group_13478" data-name="Group 13478">
                <rect id="Rectangle_10675" data-name="Rectangle 10675" width="6.639" height="9.492" transform="translate(3223.273 1930.966)" fill="none" stroke="#000" stroke-linecap="round" stroke-linejoin="round" stroke-width="1"/>
                <line id="Line_113" data-name="Line 113" y2="9.492" transform="translate(3226.592 1930.966)" stroke="#000" stroke-linecap="round" stroke-linejoin="round" stroke-width="1"/>
              </g>
              <line id="Line_114" data-name="Line 114" y2="9.049" transform="translate(3131.589 1976.942)" stroke="#000" stroke-linecap="round" stroke-linejoin="round" stroke-width="1"/>
              <line id="Line_115" data-name="Line 115" x2="12.761" transform="translate(3125.209 1983.009)" stroke="#000" stroke-linecap="round" stroke-linejoin="round" stroke-width="1"/>
              <path id="Path_33828" data-name="Path 33828" d="M3195.735,1945.047v3.122h17.96v-3.122Z" fill="#fff" stroke="#000" stroke-linecap="round" stroke-linejoin="round" stroke-width="1"/>
              <path id="Path_33830" data-name="Path 33830" d="M3173.927,1945.047v3.122h17.96v-3.122Z" fill="#fff" stroke="#000" stroke-linecap="round" stroke-linejoin="round" stroke-width="1"/>
              <path id="Path_33829" data-name="Path 33829" d="M3217.612,1945.047v3.122h18.368v-3.122Z" fill="#fff" stroke="#000" stroke-linecap="round" stroke-linejoin="round" stroke-width="1"/>
              <path id="Path_33831" data-name="Path 33831" d="M3152.118,1945.047v3.122h17.96v-3.122Z" fill="#fff" stroke="#000" stroke-linecap="round" stroke-linejoin="round" stroke-width="1"/>
            </g>
            <path id="Path_33847" data-name="Path 33847" d="M3245.182,1977.5v11.245H3115.752l-2.578-1.174Z" fill="#fff" stroke="#000" stroke-linecap="round" stroke-linejoin="round" stroke-width="1"/>
          </g>
          <g id="Group_13504" data-name="Group 13504">
            <g id="Group_13503" data-name="Group 13503">
              <path id="Path_33848" data-name="Path 33848" d="M3439.092,1915.445h38.893v73.305h-38.893v-70.567h-83.914v-2.738Z" fill="none" stroke="#000" stroke-linecap="round" stroke-linejoin="round" stroke-width="1"/>
              <rect id="Rectangle_10676" data-name="Rectangle 10676" width="30.728" height="11.323" transform="translate(3443.175 1904.121)" fill="none" stroke="#000" stroke-linecap="round" stroke-linejoin="round" stroke-width="1"/>
              <path id="Path_33849" data-name="Path 33849" d="M3435.652,1913.715V1912h-.378l.812-1.828h1.421l.812,1.828h-.4v1.717h.694v1.6h-3.655v-1.6Z" fill="none" stroke="#000" stroke-linecap="round" stroke-linejoin="round" stroke-width="1"/>
              <path id="Path_33850" data-name="Path 33850" d="M3417.275,1913.715V1912h-.378l.812-1.828h1.421l.812,1.828h-.4v1.717h.694v1.6h-3.655v-1.6Z" fill="none" stroke="#000" stroke-linecap="round" stroke-linejoin="round" stroke-width="1"/>
              <path id="Path_33851" data-name="Path 33851" d="M3396.062,1913.715V1912h-.378l.812-1.828h1.421l.812,1.828h-.4v1.717h.694v1.6h-3.655v-1.6Z" fill="none" stroke="#000" stroke-linecap="round" stroke-linejoin="round" stroke-width="1"/>
              <path id="Path_33852" data-name="Path 33852" d="M3374.849,1913.715V1912h-.378l.812-1.828h1.421l.812,1.828h-.4v1.717h.694v1.6h-3.655v-1.6Z" fill="none" stroke="#000" stroke-linecap="round" stroke-linejoin="round" stroke-width="1"/>
              <path id="Path_33853" data-name="Path 33853" d="M3358.952,1913.715V1912h-.378l.812-1.828h1.421l.812,1.828h-.4v1.717h.694v1.6h-3.655v-1.6Z" fill="none" stroke="#000" stroke-linecap="round" stroke-linejoin="round" stroke-width="1"/>
              <g id="Group_13481" data-name="Group 13481">
                <path id="Path_33854" data-name="Path 33854" d="M3355.178,1895.338h-14.552V1977.5h5.351l9.2.606Z" fill="none" stroke="#000" stroke-linecap="round" stroke-linejoin="round" stroke-width="1"/>
                <path id="Path_33855" data-name="Path 33855" d="M3345.978,1912.011h9.2v3.434h-9.2v-1.064h.275l-.275-.016Z" fill="none" stroke="#000" stroke-linecap="round" stroke-linejoin="round" stroke-width="1"/>
                <path id="Path_33856" data-name="Path 33856" d="M3341.991,1895.338l1.022-1.439h.606v-2.2h8.565v2.2h.469l1.022,1.439h1.5v1.979h-14.552v-1.979Z" fill="none" stroke="#000" stroke-linecap="round" stroke-linejoin="round" stroke-width="1"/>
                <path id="Path_33857" data-name="Path 33857" d="M3345.6,1890.3v-1.229h-.766l1.647-1.853,1.117-2.258h.649l1.117,2.258,1.647,1.853h-.812v1.229h1.408v1.39H3344.2v-1.39Z" fill="none" stroke="#000" stroke-linecap="round" stroke-linejoin="round" stroke-width="1"/>
              </g>
              <path id="Path_33858" data-name="Path 33858" d="M3439.092,1920.556h-83.914v57.555l83.914,5.887Z" fill="none" stroke="#000" stroke-linecap="round" stroke-linejoin="round" stroke-width="1"/>
              <path id="Path_33859" data-name="Path 33859" d="M3364.123,1953.957a4.037,4.037,0,0,0-4.037,4.037v9.881h8.075v-9.881A4.038,4.038,0,0,0,3364.123,1953.957Z" fill="none" stroke="#000" stroke-linecap="round" stroke-linejoin="round" stroke-width="1"/>
              <path id="Path_33860" data-name="Path 33860" d="M3386.444,1953.957a4.038,4.038,0,0,0-4.038,4.037v9.881h8.075v-9.881A4.037,4.037,0,0,0,3386.444,1953.957Z" fill="none" stroke="#000" stroke-linecap="round" stroke-linejoin="round" stroke-width="1"/>
              <path id="Path_33861" data-name="Path 33861" d="M3407.742,1953.957a4.038,4.038,0,0,0-4.038,4.037v9.881h8.075v-9.881A4.037,4.037,0,0,0,3407.742,1953.957Z" fill="none" stroke="#000" stroke-linecap="round" stroke-linejoin="round" stroke-width="1"/>
              <path id="Path_33862" data-name="Path 33862" d="M3429.721,1953.957a4.038,4.038,0,0,0-4.038,4.037v9.881h8.076v-9.881A4.038,4.038,0,0,0,3429.721,1953.957Z" fill="none" stroke="#000" stroke-linecap="round" stroke-linejoin="round" stroke-width="1"/>
              <path id="Path_33863" data-name="Path 33863" d="M3458.533,1946.994a6.355,6.355,0,0,0-6.615,6.058v14.823h13.23v-14.823A6.354,6.354,0,0,0,3458.533,1946.994Z" fill="none" stroke="#000" stroke-linecap="round" stroke-linejoin="round" stroke-width="1"/>
              <path id="Path_33864" data-name="Path 33864" d="M3395.424,1945.047v3.122h-17.96v-3.122Z" fill="none" stroke="#000" stroke-linecap="round" stroke-linejoin="round" stroke-width="1"/>
              <path id="Path_33865" data-name="Path 33865" d="M3373.547,1945.047v3.122h-18.368v-3.122Z" fill="none" stroke="#000" stroke-linecap="round" stroke-linejoin="round" stroke-width="1"/>
              <path id="Path_33866" data-name="Path 33866" d="M3417.232,1945.047v3.122h-17.96v-3.122Z" fill="none" stroke="#000" stroke-linecap="round" stroke-linejoin="round" stroke-width="1"/>
              <path id="Path_33867" data-name="Path 33867" d="M3439.041,1945.047v3.122h-17.96v-3.122Z" fill="none" stroke="#000" stroke-linecap="round" stroke-linejoin="round" stroke-width="1"/>
              <g id="Group_13484" data-name="Group 13484">
                <g id="Group_13482" data-name="Group 13482">
                  <path id="Path_33868" data-name="Path 33868" d="M3373.643,1921h4.5l.857,40.087v.786h-6.215v-.786Z" fill="none" stroke="#000" stroke-linecap="round" stroke-linejoin="round" stroke-width="1"/>
                  <rect id="Rectangle_10678" data-name="Rectangle 10678" width="7.644" height="6.001" transform="translate(3372.072 1961.874)" fill="none" stroke="#000" stroke-linecap="round" stroke-linejoin="round" stroke-width="1"/>
                </g>
                <g id="Group_13483" data-name="Group 13483">
                  <path id="Path_33869" data-name="Path 33869" d="M3373.286,1920.556h5.394v1.342h-.506l.047,4.248h-4.655l.058-4.248h-.338Z" fill="none" stroke="#000" stroke-linecap="round" stroke-linejoin="round" stroke-width="1"/>
                </g>
              </g>
              <g id="Group_13487" data-name="Group 13487">
                <g id="Group_13485" data-name="Group 13485">
                  <path id="Path_33870" data-name="Path 33870" d="M3416.069,1921h4.5l.857,40.087v.786h-6.215v-.786Z" fill="none" stroke="#000" stroke-linecap="round" stroke-linejoin="round" stroke-width="1"/>
                  <rect id="Rectangle_10679" data-name="Rectangle 10679" width="7.644" height="6.001" transform="translate(3414.497 1961.874)" fill="none" stroke="#000" stroke-linecap="round" stroke-linejoin="round" stroke-width="1"/>
                </g>
                <g id="Group_13486" data-name="Group 13486">
                  <path id="Path_33871" data-name="Path 33871" d="M3415.712,1920.556h5.394v1.342h-.506l.047,4.248h-4.655l.059-4.248h-.338Z" fill="none" stroke="#000" stroke-linecap="round" stroke-linejoin="round" stroke-width="1"/>
                </g>
              </g>
              <g id="Group_13490" data-name="Group 13490">
                <g id="Group_13488" data-name="Group 13488">
                  <path id="Path_33872" data-name="Path 33872" d="M3448.6,1961.874h-6.216l.857-41.62h4.5Z" fill="none" stroke="#000" stroke-linecap="round" stroke-linejoin="round" stroke-width="1"/>
                  <rect id="Rectangle_10680" data-name="Rectangle 10680" width="7.644" height="6.001" transform="translate(3441.67 1961.874)" fill="none" stroke="#000" stroke-linecap="round" stroke-linejoin="round" stroke-width="1"/>
                </g>
                <g id="Group_13489" data-name="Group 13489">
                  <path id="Path_33873" data-name="Path 33873" d="M3442.885,1920.254h5.394v1.342h-.506l.047,4.248h-4.655l.058-4.248h-.338Z" fill="none" stroke="#000" stroke-linecap="round" stroke-linejoin="round" stroke-width="1"/>
                </g>
              </g>
              <g id="Group_13493" data-name="Group 13493">
                <g id="Group_13491" data-name="Group 13491">
                  <path id="Path_33874" data-name="Path 33874" d="M3474.609,1961.874h-6.215l.857-41.62h4.5Z" fill="none" stroke="#000" stroke-linecap="round" stroke-linejoin="round" stroke-width="1"/>
                  <rect id="Rectangle_10681" data-name="Rectangle 10681" width="7.644" height="6.001" transform="translate(3467.679 1961.874)" fill="none" stroke="#000" stroke-linecap="round" stroke-linejoin="round" stroke-width="1"/>
                </g>
                <g id="Group_13492" data-name="Group 13492">
                  <path id="Path_33875" data-name="Path 33875" d="M3468.893,1920.254h5.394v1.342h-.506l.047,4.248h-4.655l.058-4.248h-.338Z" fill="none" stroke="#000" stroke-linecap="round" stroke-linejoin="round" stroke-width="1"/>
                </g>
              </g>
              <g id="Group_13496" data-name="Group 13496">
                <g id="Group_13494" data-name="Group 13494">
                  <path id="Path_33876" data-name="Path 33876" d="M3394.856,1921h4.5l.857,40.087v.786H3394v-.786Z" fill="none" stroke="#000" stroke-linecap="round" stroke-linejoin="round" stroke-width="1"/>
                  <rect id="Rectangle_10682" data-name="Rectangle 10682" width="7.644" height="6.001" transform="translate(3393.284 1961.874)" fill="none" stroke="#000" stroke-linecap="round" stroke-linejoin="round" stroke-width="1"/>
                </g>
                <g id="Group_13495" data-name="Group 13495">
                  <path id="Path_33877" data-name="Path 33877" d="M3394.5,1920.556h5.394v1.342h-.506l.047,4.248h-4.655l.058-4.248h-.338Z" fill="none" stroke="#000" stroke-linecap="round" stroke-linejoin="round" stroke-width="1"/>
                </g>
              </g>
              <rect id="Rectangle_10683" data-name="Rectangle 10683" width="83.914" height="3.109" transform="translate(3355.178 1967.875)" fill="none" stroke="#000" stroke-linecap="round" stroke-linejoin="round" stroke-width="1"/>
              <rect id="Rectangle_10684" data-name="Rectangle 10684" width="5.142" height="6.186" transform="translate(3386.138 1977.812)" fill="none" stroke="#000" stroke-linecap="round" stroke-linejoin="round" stroke-width="1"/>
              <g id="Group_13497" data-name="Group 13497">
                <rect id="Rectangle_10685" data-name="Rectangle 10685" width="12.761" height="9.049" transform="translate(3453.189 1976.942)" fill="none" stroke="#000" stroke-linecap="round" stroke-linejoin="round" stroke-width="1"/>
              </g>
              <rect id="Rectangle_10686" data-name="Rectangle 10686" width="5.142" height="6.186" transform="translate(3400.158 1977.812)" fill="none" stroke="#000" stroke-linecap="round" stroke-linejoin="round" stroke-width="1"/>
              <rect id="Rectangle_10687" data-name="Rectangle 10687" width="5.142" height="6.186" transform="translate(3414.177 1977.812)" fill="none" stroke="#000" stroke-linecap="round" stroke-linejoin="round" stroke-width="1"/>
              <rect id="Rectangle_10688" data-name="Rectangle 10688" width="5.142" height="6.186" transform="translate(3428.198 1977.812)" fill="none" stroke="#000" stroke-linecap="round" stroke-linejoin="round" stroke-width="1"/>
              <rect id="Rectangle_10689" data-name="Rectangle 10689" width="38.944" height="2.513" transform="translate(3439.041 1917.741)" fill="none" stroke="#000" stroke-linecap="round" stroke-linejoin="round" stroke-width="1"/>
              <g id="Group_13498" data-name="Group 13498">
                <rect id="Rectangle_10690" data-name="Rectangle 10690" width="14.524" height="3.466" transform="translate(3451.244 1952.321)" fill="none" stroke="#000" stroke-linecap="round" stroke-linejoin="round" stroke-width="1"/>
              </g>
              <path id="Path_33878" data-name="Path 33878" d="M3449.4,1906.668c-.939,0-1.7.525-1.7,1.173v2.871h3.4v-2.871C3451.1,1907.193,3450.337,1906.668,3449.4,1906.668Z" fill="none" stroke="#000" stroke-linecap="round" stroke-linejoin="round" stroke-width="1"/>
              <path id="Path_33879" data-name="Path 33879" d="M3459.052,1906.668c-.939,0-1.7.525-1.7,1.173v2.871h3.4v-2.871C3460.751,1907.193,3459.99,1906.668,3459.052,1906.668Z" fill="none" stroke="#000" stroke-linecap="round" stroke-linejoin="round" stroke-width="1"/>
              <path id="Path_33880" data-name="Path 33880" d="M3468.49,1906.668c-.938,0-1.7.525-1.7,1.173v2.871h3.4v-2.871C3470.19,1907.193,3469.429,1906.668,3468.49,1906.668Z" fill="none" stroke="#000" stroke-linecap="round" stroke-linejoin="round" stroke-width="1"/>
              <path id="Path_33881" data-name="Path 33881" d="M3474.609,1901.72h-32.224l.79,2.4H3473.9Z" fill="none" stroke="#000" stroke-linecap="round" stroke-linejoin="round" stroke-width="1"/>
              <path id="Path_33882" data-name="Path 33882" d="M3474.609,1898.539v3.181h-32.224v-3.181Z" fill="none" stroke="#000" stroke-linecap="round" stroke-linejoin="round" stroke-width="1"/>
              <rect id="Rectangle_10691" data-name="Rectangle 10691" width="38.893" height="3.109" transform="translate(3439.092 1967.875)" fill="none" stroke="#000" stroke-linecap="round" stroke-linejoin="round" stroke-width="1"/>
              <g id="Group_13499" data-name="Group 13499">
                <rect id="Rectangle_10692" data-name="Rectangle 10692" width="6.639" height="9.492" transform="translate(3433.207 1940.458) rotate(180)" fill="none" stroke="#000" stroke-linecap="round" stroke-linejoin="round" stroke-width="1"/>
                <line id="Line_116" data-name="Line 116" y2="9.492" transform="translate(3429.887 1930.966)" stroke="#000" stroke-linecap="round" stroke-linejoin="round" stroke-width="1"/>
              </g>
              <g id="Group_13500" data-name="Group 13500">
                <rect id="Rectangle_10693" data-name="Rectangle 10693" width="6.639" height="9.492" transform="translate(3411.021 1940.458) rotate(180)" fill="none" stroke="#000" stroke-linecap="round" stroke-linejoin="round" stroke-width="1"/>
                <line id="Line_117" data-name="Line 117" y2="9.492" transform="translate(3407.702 1930.966)" stroke="#000" stroke-linecap="round" stroke-linejoin="round" stroke-width="1"/>
              </g>
              <g id="Group_13501" data-name="Group 13501">
                <rect id="Rectangle_10694" data-name="Rectangle 10694" width="6.639" height="9.492" transform="translate(3389.763 1940.458) rotate(180)" fill="none" stroke="#000" stroke-linecap="round" stroke-linejoin="round" stroke-width="1"/>
                <line id="Line_118" data-name="Line 118" y2="9.492" transform="translate(3386.444 1930.966)" stroke="#000" stroke-linecap="round" stroke-linejoin="round" stroke-width="1"/>
              </g>
              <g id="Group_13502" data-name="Group 13502">
                <rect id="Rectangle_10695" data-name="Rectangle 10695" width="6.639" height="9.492" transform="translate(3367.886 1940.458) rotate(180)" fill="none" stroke="#000" stroke-linecap="round" stroke-linejoin="round" stroke-width="1"/>
                <line id="Line_119" data-name="Line 119" y2="9.492" transform="translate(3364.567 1930.966)" stroke="#000" stroke-linecap="round" stroke-linejoin="round" stroke-width="1"/>
              </g>
              <line id="Line_120" data-name="Line 120" y2="9.049" transform="translate(3459.57 1976.942)" stroke="#000" stroke-linecap="round" stroke-linejoin="round" stroke-width="1"/>
              <line id="Line_121" data-name="Line 121" x1="12.761" transform="translate(3453.189 1983.009)" stroke="#000" stroke-linecap="round" stroke-linejoin="round" stroke-width="1"/>
            </g>
            <path id="Path_33883" data-name="Path 33883" d="M3345.978,1977.5v11.245h129.429l2.578-1.174Z" fill="#fff" stroke="#000" stroke-linecap="round" stroke-linejoin="round" stroke-width="1"/>
          </g>
          <rect id="Rectangle_10696" data-name="Rectangle 10696" width="97.034" height="69.198" transform="translate(3246.973 1908.307)" fill="none" stroke="#000" stroke-linecap="round" stroke-linejoin="round" stroke-width="1"/>
          <rect id="Rectangle_10697" data-name="Rectangle 10697" width="101.123" height="7.138" transform="translate(3244.845 1908.307)" fill="none" stroke="#000" stroke-linecap="round" stroke-linejoin="round" stroke-width="1"/>
          <rect id="Rectangle_10698" data-name="Rectangle 10698" width="67.91" height="62.06" transform="translate(3261.491 1915.445)" fill="none" stroke="#000" stroke-linecap="round" stroke-linejoin="round" stroke-width="1"/>
          <g id="Group_13507" data-name="Group 13507">
            <g id="Group_13505" data-name="Group 13505">
              <path id="Path_33884" data-name="Path 33884" d="M3274.781,1969.411h-7.412l1.022-53.967h5.367Z" fill="none" stroke="#000" stroke-linecap="round" stroke-linejoin="round" stroke-width="1"/>
              <path id="Path_33885" data-name="Path 33885" d="M3274.781,1970.349v-.937h-7.412v.937h-.852v7.156h9.115v-7.156Z" fill="none" stroke="#000" stroke-linecap="round" stroke-linejoin="round" stroke-width="1"/>
            </g>
            <g id="Group_13506" data-name="Group 13506">
              <path id="Path_33886" data-name="Path 33886" d="M3274.4,1915.445h-6.432v1.6h.4l-.07,2.513h5.551l-.056-2.513h.6Z" fill="none" stroke="#000" stroke-linecap="round" stroke-linejoin="round" stroke-width="1"/>
            </g>
          </g>
          <g id="Group_13510" data-name="Group 13510">
            <g id="Group_13508" data-name="Group 13508">
              <path id="Path_33887" data-name="Path 33887" d="M3299.152,1969.411h-7.412l1.022-53.967h5.367Z" fill="none" stroke="#000" stroke-linecap="round" stroke-linejoin="round" stroke-width="1"/>
              <path id="Path_33888" data-name="Path 33888" d="M3299.152,1970.349v-.937h-7.412v.937h-.852v7.156H3300v-7.156Z" fill="none" stroke="#000" stroke-linecap="round" stroke-linejoin="round" stroke-width="1"/>
            </g>
            <g id="Group_13509" data-name="Group 13509">
              <path id="Path_33889" data-name="Path 33889" d="M3298.769,1915.445h-6.432v1.6h.4l-.07,2.513h5.551l-.056-2.513h.6Z" fill="none" stroke="#000" stroke-linecap="round" stroke-linejoin="round" stroke-width="1"/>
            </g>
          </g>
          <g id="Group_13513" data-name="Group 13513">
            <g id="Group_13511" data-name="Group 13511">
              <path id="Path_33890" data-name="Path 33890" d="M3323.524,1969.411h-7.412l1.022-53.967h5.367Z" fill="none" stroke="#000" stroke-linecap="round" stroke-linejoin="round" stroke-width="1"/>
              <path id="Path_33891" data-name="Path 33891" d="M3323.524,1970.349v-.937h-7.412v.937h-.852v7.156h9.115v-7.156Z" fill="none" stroke="#000" stroke-linecap="round" stroke-linejoin="round" stroke-width="1"/>
            </g>
            <g id="Group_13512" data-name="Group 13512">
              <path id="Path_33892" data-name="Path 33892" d="M3323.14,1915.445h-6.432v1.6h.4l-.07,2.513h5.551l-.056-2.513h.6Z" fill="none" stroke="#000" stroke-linecap="round" stroke-linejoin="round" stroke-width="1"/>
            </g>
          </g>
          <g id="Group_13516" data-name="Group 13516">
            <g id="Group_13514" data-name="Group 13514">
              <path id="Path_33893" data-name="Path 33893" d="M3345.116,1969.411H3337.7l1.022-53.967h5.367Z" fill="#fff" stroke="#000" stroke-linecap="round" stroke-linejoin="round" stroke-width="1"/>
              <path id="Path_33894" data-name="Path 33894" d="M3345.116,1970.349v-.937H3337.7v.937h-.852v7.156h9.115v-7.156Z" fill="#fff" stroke="#000" stroke-linecap="round" stroke-linejoin="round" stroke-width="1"/>
            </g>
            <g id="Group_13515" data-name="Group 13515">
              <path id="Path_33895" data-name="Path 33895" d="M3344.733,1915.445H3338.3v1.6h.4l-.069,2.513h5.551l-.056-2.513h.6Z" fill="#fff" stroke="#000" stroke-linecap="round" stroke-linejoin="round" stroke-width="1"/>
            </g>
          </g>
          <path id="Path_33896" data-name="Path 33896" d="M3295.407,1888.539l-55.539,19.768h111.138Z" fill="none" stroke="#000" stroke-linecap="round" stroke-linejoin="round" stroke-width="1"/>
          <path id="Path_33897" data-name="Path 33897" d="M3346.068,1910.863H3244.845l-2.235-2.556H3348.2Z" fill="none" stroke="#000" stroke-linecap="round" stroke-linejoin="round" stroke-width="1"/>
          <g id="Group_13519" data-name="Group 13519">
            <g id="Group_13517" data-name="Group 13517">
              <path id="Path_33898" data-name="Path 33898" d="M3253.059,1969.609h-7.412l1.022-53.967h5.367Z" fill="#fff" stroke="#000" stroke-linecap="round" stroke-linejoin="round" stroke-width="1"/>
              <path id="Path_33899" data-name="Path 33899" d="M3253.059,1970.546v-.937h-7.412v.937h-.852v7.156l9.115-.109v-7.047Z" fill="#fff" stroke="#000" stroke-linecap="round" stroke-linejoin="round" stroke-width="1"/>
            </g>
            <g id="Group_13518" data-name="Group 13518">
              <path id="Path_33900" data-name="Path 33900" d="M3252.676,1915.642h-6.432v1.6h.4l-.07,2.513h5.551l-.056-2.513h.6Z" fill="#fff" stroke="#000" stroke-linecap="round" stroke-linejoin="round" stroke-width="1"/>
            </g>
          </g>
        </g>
        <line id="Line_122" data-name="Line 122" x2="30.728" transform="translate(3117.257 1910.712)" stroke="#000" stroke-linecap="round" stroke-linejoin="round" stroke-width="1"/>
        <line id="Line_123" data-name="Line 123" x2="100.786" transform="translate(3245.182 1980.905)" stroke="#000" stroke-linecap="round" stroke-linejoin="round" stroke-width="1"/>
        <line id="Line_124" data-name="Line 124" x2="100.786" transform="translate(3245.182 1984.353)" stroke="#000" stroke-linecap="round" stroke-linejoin="round" stroke-width="1"/>
      </g>
      <line id="Line_125" data-name="Line 125" x2="30.728" transform="translate(3443.175 1910.712)" stroke="#000" stroke-linecap="round" stroke-linejoin="round" stroke-width="1"/>
    </g>
  </g>
</svg>
