<svg xmlns="http://www.w3.org/2000/svg" width="208.407" height="171.813" viewBox="0 0 208.407 171.813">
  <g id="Group_13567" data-name="Group 13567" transform="translate(-3528.031 -1814.87)" opacity="0.51">
    <g id="Group_13566" data-name="Group 13566">
      <g id="Group_13561" data-name="Group 13561">
        <g id="Group_13580" data-name="Group 13580">
          <g id="Group_13553" data-name="Group 13553" transform="translate(0 17.688)">
            <g id="Group_13552" data-name="Group 13552" transform="translate(3685.531 1812.831)">
              <rect id="Rectangle_10752" data-name="Rectangle 10752" width="14.788" height="10.76" transform="translate(32.556 10.76) rotate(180)" fill="#fff" stroke="#000" stroke-linecap="round" stroke-linejoin="round" stroke-width="1"/>
              <rect id="Rectangle_10753" data-name="Rectangle 10753" width="46.014" height="143.13" transform="translate(47.881 155.664) rotate(180)" fill="#fff" stroke="#000" stroke-linecap="round" stroke-linejoin="round" stroke-width="1"/>
              <rect id="Rectangle_10754" data-name="Rectangle 10754" width="50.407" height="3.762" transform="translate(50.407 87.485) rotate(180)" fill="#fff" stroke="#000" stroke-linecap="round" stroke-linejoin="round" stroke-width="1"/>
              <path id="Path_33929" data-name="Path 33929" d="M3720.349,1871.637a4.844,4.844,0,0,1,4.972,4.706V1904h-9.944v-27.659A4.844,4.844,0,0,1,3720.349,1871.637Z" transform="translate(-3685.531 -1820.279)" fill="#fff" stroke="#000" stroke-linecap="round" stroke-linejoin="round" stroke-width="1"/>
              <path id="Path_33930" data-name="Path 33930" d="M3700.461,1871.637a4.845,4.845,0,0,1,4.972,4.706V1904h-9.944v-27.659A4.845,4.845,0,0,1,3700.461,1871.637Z" transform="translate(-3685.531 -1820.279)" fill="#fff" stroke="#000" stroke-linecap="round" stroke-linejoin="round" stroke-width="1"/>
              <g id="Group_13543" data-name="Group 13543" transform="translate(31.947 28.084)">
                <g id="Group_13542" data-name="Group 13542">
                  <path id="Path_33931" data-name="Path 33931" d="M3718.213,1852.182v-5.059a2.137,2.137,0,0,1,4.272,0v5.059Z" transform="translate(-3717.478 -1844.293)" fill="#fff" stroke="#000" stroke-width="1"/>
                  <path id="Path_33932" data-name="Path 33932" d="M3720.349,1845.763a1.382,1.382,0,0,1,1.4,1.36v4.323h-2.8v-4.323a1.382,1.382,0,0,1,1.4-1.36m0-1.47a2.85,2.85,0,0,0-2.871,2.83v5.794h5.743v-5.794a2.851,2.851,0,0,0-2.872-2.83Z" transform="translate(-3717.478 -1844.293)" fill="#fff" stroke="#000" stroke-width="1"/>
                </g>
              </g>
              <g id="Group_13545" data-name="Group 13545" transform="translate(12.059 28.084)">
                <g id="Group_13544" data-name="Group 13544">
                  <path id="Path_33933" data-name="Path 33933" d="M3698.325,1852.182v-5.059a2.137,2.137,0,0,1,4.273,0v5.059Z" transform="translate(-3697.59 -1844.293)" fill="#fff" stroke="#000" stroke-width="1"/>
                  <path id="Path_33934" data-name="Path 33934" d="M3700.461,1845.763a1.382,1.382,0,0,1,1.4,1.36v4.323h-2.8v-4.323a1.383,1.383,0,0,1,1.4-1.36m0-1.47a2.85,2.85,0,0,0-2.871,2.83v5.794h5.743v-5.794a2.851,2.851,0,0,0-2.872-2.83Z" transform="translate(-3697.59 -1844.293)" fill="#fff" stroke="#000" stroke-width="1"/>
                </g>
              </g>
              <g id="Group_13547" data-name="Group 13547" transform="translate(12.059 15.926)">
                <g id="Group_13546" data-name="Group 13546">
                  <path id="Path_33935" data-name="Path 33935" d="M3698.325,1836.646v-5.058a2.137,2.137,0,0,1,4.273,0v5.058Z" transform="translate(-3697.59 -1828.757)" fill="#fff" stroke="#000" stroke-width="1"/>
                  <path id="Path_33936" data-name="Path 33936" d="M3700.461,1830.228a1.382,1.382,0,0,1,1.4,1.36v4.323h-2.8v-4.323a1.383,1.383,0,0,1,1.4-1.36m0-1.471a2.851,2.851,0,0,0-2.871,2.831v5.794h5.743v-5.794a2.852,2.852,0,0,0-2.872-2.831Z" transform="translate(-3697.59 -1828.757)" fill="#fff" stroke="#000" stroke-width="1"/>
                </g>
              </g>
              <g id="Group_13549" data-name="Group 13549" transform="translate(31.947 15.926)">
                <g id="Group_13548" data-name="Group 13548">
                  <path id="Path_33937" data-name="Path 33937" d="M3718.213,1836.646v-5.058a2.137,2.137,0,0,1,4.272,0v5.058Z" transform="translate(-3717.478 -1828.757)" fill="#fff" stroke="#000" stroke-width="1"/>
                  <path id="Path_33938" data-name="Path 33938" d="M3720.349,1830.228a1.382,1.382,0,0,1,1.4,1.36v4.323h-2.8v-4.323a1.383,1.383,0,0,1,1.4-1.36m0-1.471a2.851,2.851,0,0,0-2.871,2.831v5.794h5.743v-5.794a2.852,2.852,0,0,0-2.872-2.831Z" transform="translate(-3717.478 -1828.757)" fill="#fff" stroke="#000" stroke-width="1"/>
                </g>
              </g>
              <rect id="Rectangle_10755" data-name="Rectangle 10755" width="8.091" height="12.701" transform="translate(47.881 83.723) rotate(180)" fill="#fff" stroke="#000" stroke-linecap="round" stroke-linejoin="round" stroke-width="1"/>
              <rect id="Rectangle_10756" data-name="Rectangle 10756" width="8.091" height="12.701" transform="translate(9.958 83.723) rotate(180)" fill="#fff" stroke="#000" stroke-linecap="round" stroke-linejoin="round" stroke-width="1"/>
              <rect id="Rectangle_10757" data-name="Rectangle 10757" width="9.944" height="12.701" transform="translate(29.846 83.723) rotate(180)" fill="#fff" stroke="#000" stroke-linecap="round" stroke-linejoin="round" stroke-width="1"/>
              <rect id="Rectangle_10758" data-name="Rectangle 10758" width="9.944" height="12.182" transform="translate(39.79 83.723) rotate(180)" fill="#fff" stroke="#000" stroke-linecap="round" stroke-linejoin="round" stroke-width="1"/>
              <rect id="Rectangle_10759" data-name="Rectangle 10759" width="9.944" transform="translate(19.902 83.723) rotate(180)" fill="#fff" stroke="#000" stroke-linecap="round" stroke-linejoin="round" stroke-width="1"/>
              <rect id="Rectangle_10762" data-name="Rectangle 10762" width="9.944" height="2.623" transform="translate(19.902 74.164) rotate(180)" fill="#fff" stroke="#000" stroke-linecap="round" stroke-linejoin="round" stroke-width="1"/>
              <rect id="Rectangle_10763" data-name="Rectangle 10763" width="9.944" height="2.623" transform="translate(39.79 74.164) rotate(180)" fill="#fff" stroke="#000" stroke-linecap="round" stroke-linejoin="round" stroke-width="1"/>
              <rect id="Rectangle_10764" data-name="Rectangle 10764" width="9.944" height="2.623" transform="translate(29.846 74.164) rotate(180)" fill="#fff" stroke="#000" stroke-linecap="round" stroke-linejoin="round" stroke-width="1"/>
              <g id="Group_13550" data-name="Group 13550" transform="translate(32.104 59.597)">
                <path id="Path_33939" data-name="Path 33939" d="M3718.751,1881.036a1.6,1.6,0,0,1,3.2,0s-.3,2.788,1.115,3.681h-5.428C3719.048,1883.824,3718.751,1881.036,3718.751,1881.036Z" transform="translate(-3717.635 -1879.438)" fill="#fff" stroke="#000" stroke-linecap="round" stroke-linejoin="round" stroke-width="1"/>
              </g>
              <g id="Group_13551" data-name="Group 13551" transform="translate(12.217 59.597)">
                <path id="Path_33940" data-name="Path 33940" d="M3698.863,1881.036a1.6,1.6,0,0,1,3.2,0s-.3,2.788,1.115,3.681h-5.427C3699.16,1883.824,3698.863,1881.036,3698.863,1881.036Z" transform="translate(-3697.748 -1879.438)" fill="#fff" stroke="#000" stroke-linecap="round" stroke-linejoin="round" stroke-width="1"/>
              </g>
              <rect id="Rectangle_10765" data-name="Rectangle 10765" width="8.091" height="32.606" transform="translate(47.881 74.165) rotate(180)" fill="#fff" stroke="#000" stroke-linecap="round" stroke-linejoin="round" stroke-width="1"/>
              <rect id="Rectangle_10766" data-name="Rectangle 10766" width="8.091" height="32.606" transform="translate(9.958 74.165) rotate(180)" fill="#fff" stroke="#000" stroke-linecap="round" stroke-linejoin="round" stroke-width="1"/>
              <rect id="Rectangle_10767" data-name="Rectangle 10767" width="8.091" height="32.752" transform="translate(9.958 45.286) rotate(180)" fill="#fff" stroke="#000" stroke-linecap="round" stroke-linejoin="round" stroke-width="1"/>
              <rect id="Rectangle_10768" data-name="Rectangle 10768" width="8.091" height="32.752" transform="translate(47.881 45.286) rotate(180)" fill="#fff" stroke="#000" stroke-linecap="round" stroke-linejoin="round" stroke-width="1"/>
              <rect id="Rectangle_10769" data-name="Rectangle 10769" width="9.944" height="32.752" transform="translate(29.846 45.286) rotate(180)" fill="#fff" stroke="#000" stroke-linecap="round" stroke-linejoin="round" stroke-width="1"/>
              <rect id="Rectangle_10770" data-name="Rectangle 10770" width="9.944" height="32.606" transform="translate(29.846 74.165) rotate(180)" fill="#fff" stroke="#000" stroke-linecap="round" stroke-linejoin="round" stroke-width="1"/>
              <rect id="Rectangle_10771" data-name="Rectangle 10771" width="8.619" height="3.211" transform="translate(48.409 45.788) rotate(180)" fill="#fff" stroke="#000" stroke-linecap="round" stroke-linejoin="round" stroke-width="1"/>
              <rect id="Rectangle_10772" data-name="Rectangle 10772" width="8.619" height="3.211" transform="translate(48.409 15.745) rotate(180)" fill="#fff" stroke="#000" stroke-linecap="round" stroke-linejoin="round" stroke-width="1"/>
              <rect id="Rectangle_10773" data-name="Rectangle 10773" width="8.619" height="3.211" transform="translate(9.958 45.788) rotate(180)" fill="#fff" stroke="#000" stroke-linecap="round" stroke-linejoin="round" stroke-width="1"/>
              <rect id="Rectangle_10774" data-name="Rectangle 10774" width="8.619" height="3.211" transform="translate(9.958 15.745) rotate(180)" fill="#fff" stroke="#000" stroke-linecap="round" stroke-linejoin="round" stroke-width="1"/>
              <rect id="Rectangle_10775" data-name="Rectangle 10775" width="9.944" height="3.211" transform="translate(29.846 45.788) rotate(180)" fill="#fff" stroke="#000" stroke-linecap="round" stroke-linejoin="round" stroke-width="1"/>
              <rect id="Rectangle_10776" data-name="Rectangle 10776" width="9.944" height="3.211" transform="translate(29.846 15.745) rotate(180)" fill="#fff" stroke="#000" stroke-linecap="round" stroke-linejoin="round" stroke-width="1"/>
              <rect id="Rectangle_10777" data-name="Rectangle 10777" width="49.533" height="4.399" transform="translate(49.64 43.003) rotate(180)" fill="#fff" stroke="#000" stroke-linecap="round" stroke-linejoin="round" stroke-width="1"/>
              <path id="Path_33941" data-name="Path 33941" d="M3735.1,1822.227v1.364l-1.159,1.775H3686.87l-1.159-1.775v-1.364Z" transform="translate(-3685.531 -1812.831)" fill="#fff" stroke="#000" stroke-linecap="round" stroke-linejoin="round" stroke-width="1"/>
              <rect id="Rectangle_10778" data-name="Rectangle 10778" width="3.595" height="5.625" transform="translate(41.24 97.988) rotate(180)" fill="#fff" stroke="#000" stroke-linecap="round" stroke-linejoin="round" stroke-width="1"/>
              <rect id="Rectangle_10779" data-name="Rectangle 10779" width="3.595" height="5.625" transform="translate(26.669 97.988) rotate(180)" fill="#fff" stroke="#000" stroke-linecap="round" stroke-linejoin="round" stroke-width="1"/>
              <rect id="Rectangle_10780" data-name="Rectangle 10780" width="3.595" height="5.625" transform="translate(12.098 97.988) rotate(180)" fill="#fff" stroke="#000" stroke-linecap="round" stroke-linejoin="round" stroke-width="1"/>
              <rect id="Rectangle_10761" data-name="Rectangle 10761" width="9.851" height="2.623" transform="translate(9.958 74.164) rotate(180)" fill="#fff" stroke="#000" stroke-linecap="round" stroke-linejoin="round" stroke-width="1"/>
              <rect id="Rectangle_10760" data-name="Rectangle 10760" width="9.851" height="3.143" transform="translate(49.64 74.164) rotate(180)" fill="#fff" stroke="#000" stroke-linecap="round" stroke-linejoin="round" stroke-width="1"/>
            </g>
            <path id="Path_33942" data-name="Path 33942" d="M3708.537,1811.284h.137a3.036,3.036,0,1,1,4.038,0h.137l5.795,1.547-.557.8H3703.3l-.557-.8Z" fill="#fff" stroke="#000" stroke-linecap="round" stroke-linejoin="round" stroke-width="1"/>
          </g>
          <g id="Group_13560" data-name="Group 13560" transform="translate(0 17)">
            <line id="Line_129" data-name="Line 129" y2="7.616" transform="translate(3710.693 1798.37)" stroke="#000" stroke-linecap="round" stroke-linejoin="round" stroke-width="1"/>
            <line id="Line_130" data-name="Line 130" x2="4.636" transform="translate(3708.375 1800.746)" stroke="#000" stroke-linecap="round" stroke-linejoin="round" stroke-width="1"/>
          </g>
        </g>
        <g id="Group_13581" data-name="Group 13581" transform="translate(-157)">
          <g id="Group_13553-2" data-name="Group 13553" transform="translate(0 17.688)">
            <g id="Group_13552-2" data-name="Group 13552" transform="translate(3685.531 1812.831)">
              <rect id="Rectangle_10752-2" data-name="Rectangle 10752" width="14.788" height="10.76" transform="translate(32.556 10.76) rotate(180)" fill="#fff" stroke="#000" stroke-linecap="round" stroke-linejoin="round" stroke-width="1"/>
              <rect id="Rectangle_10753-2" data-name="Rectangle 10753" width="46.014" height="143.13" transform="translate(47.881 155.664) rotate(180)" fill="#fff" stroke="#000" stroke-linecap="round" stroke-linejoin="round" stroke-width="1"/>
              <rect id="Rectangle_10754-2" data-name="Rectangle 10754" width="50.407" height="3.762" transform="translate(50.407 87.485) rotate(180)" fill="#fff" stroke="#000" stroke-linecap="round" stroke-linejoin="round" stroke-width="1"/>
              <path id="Path_33929-2" data-name="Path 33929" d="M3720.349,1871.637a4.844,4.844,0,0,1,4.972,4.706V1904h-9.944v-27.659A4.844,4.844,0,0,1,3720.349,1871.637Z" transform="translate(-3685.531 -1820.279)" fill="#fff" stroke="#000" stroke-linecap="round" stroke-linejoin="round" stroke-width="1"/>
              <path id="Path_33930-2" data-name="Path 33930" d="M3700.461,1871.637a4.845,4.845,0,0,1,4.972,4.706V1904h-9.944v-27.659A4.845,4.845,0,0,1,3700.461,1871.637Z" transform="translate(-3685.531 -1820.279)" fill="#fff" stroke="#000" stroke-linecap="round" stroke-linejoin="round" stroke-width="1"/>
              <g id="Group_13543-2" data-name="Group 13543" transform="translate(31.947 28.084)">
                <g id="Group_13542-2" data-name="Group 13542">
                  <path id="Path_33931-2" data-name="Path 33931" d="M3718.213,1852.182v-5.059a2.137,2.137,0,0,1,4.272,0v5.059Z" transform="translate(-3717.478 -1844.293)" fill="#fff" stroke="#000" stroke-width="1"/>
                  <path id="Path_33932-2" data-name="Path 33932" d="M3720.349,1845.763a1.382,1.382,0,0,1,1.4,1.36v4.323h-2.8v-4.323a1.382,1.382,0,0,1,1.4-1.36m0-1.47a2.85,2.85,0,0,0-2.871,2.83v5.794h5.743v-5.794a2.851,2.851,0,0,0-2.872-2.83Z" transform="translate(-3717.478 -1844.293)" fill="#fff" stroke="#000" stroke-width="1"/>
                </g>
              </g>
              <g id="Group_13545-2" data-name="Group 13545" transform="translate(12.059 28.084)">
                <g id="Group_13544-2" data-name="Group 13544">
                  <path id="Path_33933-2" data-name="Path 33933" d="M3698.325,1852.182v-5.059a2.137,2.137,0,0,1,4.273,0v5.059Z" transform="translate(-3697.59 -1844.293)" fill="#fff" stroke="#000" stroke-width="1"/>
                  <path id="Path_33934-2" data-name="Path 33934" d="M3700.461,1845.763a1.382,1.382,0,0,1,1.4,1.36v4.323h-2.8v-4.323a1.383,1.383,0,0,1,1.4-1.36m0-1.47a2.85,2.85,0,0,0-2.871,2.83v5.794h5.743v-5.794a2.851,2.851,0,0,0-2.872-2.83Z" transform="translate(-3697.59 -1844.293)" fill="#fff" stroke="#000" stroke-width="1"/>
                </g>
              </g>
              <g id="Group_13547-2" data-name="Group 13547" transform="translate(12.059 15.926)">
                <g id="Group_13546-2" data-name="Group 13546">
                  <path id="Path_33935-2" data-name="Path 33935" d="M3698.325,1836.646v-5.058a2.137,2.137,0,0,1,4.273,0v5.058Z" transform="translate(-3697.59 -1828.757)" fill="#fff" stroke="#000" stroke-width="1"/>
                  <path id="Path_33936-2" data-name="Path 33936" d="M3700.461,1830.228a1.382,1.382,0,0,1,1.4,1.36v4.323h-2.8v-4.323a1.383,1.383,0,0,1,1.4-1.36m0-1.471a2.851,2.851,0,0,0-2.871,2.831v5.794h5.743v-5.794a2.852,2.852,0,0,0-2.872-2.831Z" transform="translate(-3697.59 -1828.757)" fill="#fff" stroke="#000" stroke-width="1"/>
                </g>
              </g>
              <g id="Group_13549-2" data-name="Group 13549" transform="translate(31.947 15.926)">
                <g id="Group_13548-2" data-name="Group 13548">
                  <path id="Path_33937-2" data-name="Path 33937" d="M3718.213,1836.646v-5.058a2.137,2.137,0,0,1,4.272,0v5.058Z" transform="translate(-3717.478 -1828.757)" fill="#fff" stroke="#000" stroke-width="1"/>
                  <path id="Path_33938-2" data-name="Path 33938" d="M3720.349,1830.228a1.382,1.382,0,0,1,1.4,1.36v4.323h-2.8v-4.323a1.383,1.383,0,0,1,1.4-1.36m0-1.471a2.851,2.851,0,0,0-2.871,2.831v5.794h5.743v-5.794a2.852,2.852,0,0,0-2.872-2.831Z" transform="translate(-3717.478 -1828.757)" fill="#fff" stroke="#000" stroke-width="1"/>
                </g>
              </g>
              <rect id="Rectangle_10755-2" data-name="Rectangle 10755" width="8.091" height="12.701" transform="translate(47.881 83.723) rotate(180)" fill="#fff" stroke="#000" stroke-linecap="round" stroke-linejoin="round" stroke-width="1"/>
              <rect id="Rectangle_10756-2" data-name="Rectangle 10756" width="8.091" height="12.701" transform="translate(9.958 83.723) rotate(180)" fill="#fff" stroke="#000" stroke-linecap="round" stroke-linejoin="round" stroke-width="1"/>
              <rect id="Rectangle_10757-2" data-name="Rectangle 10757" width="9.944" height="12.701" transform="translate(29.846 83.723) rotate(180)" fill="#fff" stroke="#000" stroke-linecap="round" stroke-linejoin="round" stroke-width="1"/>
              <rect id="Rectangle_10758-2" data-name="Rectangle 10758" width="9.944" height="12.182" transform="translate(39.79 83.723) rotate(180)" fill="#fff" stroke="#000" stroke-linecap="round" stroke-linejoin="round" stroke-width="1"/>
              <rect id="Rectangle_10759-2" data-name="Rectangle 10759" width="9.944" transform="translate(19.902 83.723) rotate(180)" fill="#fff" stroke="#000" stroke-linecap="round" stroke-linejoin="round" stroke-width="1"/>
              <rect id="Rectangle_10762-2" data-name="Rectangle 10762" width="9.944" height="2.623" transform="translate(19.902 74.164) rotate(180)" fill="#fff" stroke="#000" stroke-linecap="round" stroke-linejoin="round" stroke-width="1"/>
              <rect id="Rectangle_10763-2" data-name="Rectangle 10763" width="9.944" height="2.623" transform="translate(39.79 74.164) rotate(180)" fill="#fff" stroke="#000" stroke-linecap="round" stroke-linejoin="round" stroke-width="1"/>
              <rect id="Rectangle_10764-2" data-name="Rectangle 10764" width="9.944" height="2.623" transform="translate(29.846 74.164) rotate(180)" fill="#fff" stroke="#000" stroke-linecap="round" stroke-linejoin="round" stroke-width="1"/>
              <g id="Group_13550-2" data-name="Group 13550" transform="translate(32.104 59.597)">
                <path id="Path_33939-2" data-name="Path 33939" d="M3718.751,1881.036a1.6,1.6,0,0,1,3.2,0s-.3,2.788,1.115,3.681h-5.428C3719.048,1883.824,3718.751,1881.036,3718.751,1881.036Z" transform="translate(-3717.635 -1879.438)" fill="#fff" stroke="#000" stroke-linecap="round" stroke-linejoin="round" stroke-width="1"/>
              </g>
              <g id="Group_13551-2" data-name="Group 13551" transform="translate(12.217 59.597)">
                <path id="Path_33940-2" data-name="Path 33940" d="M3698.863,1881.036a1.6,1.6,0,0,1,3.2,0s-.3,2.788,1.115,3.681h-5.427C3699.16,1883.824,3698.863,1881.036,3698.863,1881.036Z" transform="translate(-3697.748 -1879.438)" fill="#fff" stroke="#000" stroke-linecap="round" stroke-linejoin="round" stroke-width="1"/>
              </g>
              <rect id="Rectangle_10765-2" data-name="Rectangle 10765" width="8.091" height="32.606" transform="translate(47.881 74.165) rotate(180)" fill="#fff" stroke="#000" stroke-linecap="round" stroke-linejoin="round" stroke-width="1"/>
              <rect id="Rectangle_10766-2" data-name="Rectangle 10766" width="8.091" height="32.606" transform="translate(9.958 74.165) rotate(180)" fill="#fff" stroke="#000" stroke-linecap="round" stroke-linejoin="round" stroke-width="1"/>
              <rect id="Rectangle_10767-2" data-name="Rectangle 10767" width="8.091" height="32.752" transform="translate(9.958 45.286) rotate(180)" fill="#fff" stroke="#000" stroke-linecap="round" stroke-linejoin="round" stroke-width="1"/>
              <rect id="Rectangle_10768-2" data-name="Rectangle 10768" width="8.091" height="32.752" transform="translate(47.881 45.286) rotate(180)" fill="#fff" stroke="#000" stroke-linecap="round" stroke-linejoin="round" stroke-width="1"/>
              <rect id="Rectangle_10769-2" data-name="Rectangle 10769" width="9.944" height="32.752" transform="translate(29.846 45.286) rotate(180)" fill="#fff" stroke="#000" stroke-linecap="round" stroke-linejoin="round" stroke-width="1"/>
              <rect id="Rectangle_10770-2" data-name="Rectangle 10770" width="9.944" height="32.606" transform="translate(29.846 74.165) rotate(180)" fill="#fff" stroke="#000" stroke-linecap="round" stroke-linejoin="round" stroke-width="1"/>
              <rect id="Rectangle_10771-2" data-name="Rectangle 10771" width="8.619" height="3.211" transform="translate(48.409 45.788) rotate(180)" fill="#fff" stroke="#000" stroke-linecap="round" stroke-linejoin="round" stroke-width="1"/>
              <rect id="Rectangle_10772-2" data-name="Rectangle 10772" width="8.619" height="3.211" transform="translate(48.409 15.745) rotate(180)" fill="#fff" stroke="#000" stroke-linecap="round" stroke-linejoin="round" stroke-width="1"/>
              <rect id="Rectangle_10773-2" data-name="Rectangle 10773" width="8.619" height="3.211" transform="translate(9.958 45.788) rotate(180)" fill="#fff" stroke="#000" stroke-linecap="round" stroke-linejoin="round" stroke-width="1"/>
              <rect id="Rectangle_10774-2" data-name="Rectangle 10774" width="8.619" height="3.211" transform="translate(9.958 15.745) rotate(180)" fill="#fff" stroke="#000" stroke-linecap="round" stroke-linejoin="round" stroke-width="1"/>
              <rect id="Rectangle_10775-2" data-name="Rectangle 10775" width="9.944" height="3.211" transform="translate(29.846 45.788) rotate(180)" fill="#fff" stroke="#000" stroke-linecap="round" stroke-linejoin="round" stroke-width="1"/>
              <rect id="Rectangle_10776-2" data-name="Rectangle 10776" width="9.944" height="3.211" transform="translate(29.846 15.745) rotate(180)" fill="#fff" stroke="#000" stroke-linecap="round" stroke-linejoin="round" stroke-width="1"/>
              <rect id="Rectangle_10777-2" data-name="Rectangle 10777" width="49.533" height="4.399" transform="translate(49.64 43.003) rotate(180)" fill="#fff" stroke="#000" stroke-linecap="round" stroke-linejoin="round" stroke-width="1"/>
              <path id="Path_33941-2" data-name="Path 33941" d="M3735.1,1822.227v1.364l-1.159,1.775H3686.87l-1.159-1.775v-1.364Z" transform="translate(-3685.531 -1812.831)" fill="#fff" stroke="#000" stroke-linecap="round" stroke-linejoin="round" stroke-width="1"/>
              <rect id="Rectangle_10778-2" data-name="Rectangle 10778" width="3.595" height="5.625" transform="translate(41.24 97.988) rotate(180)" fill="#fff" stroke="#000" stroke-linecap="round" stroke-linejoin="round" stroke-width="1"/>
              <rect id="Rectangle_10779-2" data-name="Rectangle 10779" width="3.595" height="5.625" transform="translate(26.669 97.988) rotate(180)" fill="#fff" stroke="#000" stroke-linecap="round" stroke-linejoin="round" stroke-width="1"/>
              <rect id="Rectangle_10780-2" data-name="Rectangle 10780" width="3.595" height="5.625" transform="translate(12.098 97.988) rotate(180)" fill="#fff" stroke="#000" stroke-linecap="round" stroke-linejoin="round" stroke-width="1"/>
              <rect id="Rectangle_10761-2" data-name="Rectangle 10761" width="9.851" height="2.623" transform="translate(9.958 74.164) rotate(180)" fill="#fff" stroke="#000" stroke-linecap="round" stroke-linejoin="round" stroke-width="1"/>
              <rect id="Rectangle_10760-2" data-name="Rectangle 10760" width="9.851" height="3.143" transform="translate(49.64 74.164) rotate(180)" fill="#fff" stroke="#000" stroke-linecap="round" stroke-linejoin="round" stroke-width="1"/>
            </g>
            <path id="Path_33942-2" data-name="Path 33942" d="M3708.537,1811.284h.137a3.036,3.036,0,1,1,4.038,0h.137l5.795,1.547-.557.8H3703.3l-.557-.8Z" fill="#fff" stroke="#000" stroke-linecap="round" stroke-linejoin="round" stroke-width="1"/>
          </g>
          <g id="Group_13560-2" data-name="Group 13560" transform="translate(0 17)">
            <line id="Line_129-2" data-name="Line 129" y2="7.616" transform="translate(3710.693 1798.37)" stroke="#000" stroke-linecap="round" stroke-linejoin="round" stroke-width="1"/>
            <line id="Line_130-2" data-name="Line 130" x2="4.636" transform="translate(3708.375 1800.746)" stroke="#000" stroke-linecap="round" stroke-linejoin="round" stroke-width="1"/>
          </g>
        </g>
        <g id="Group_13554" data-name="Group 13554">
          <rect id="Rectangle_10781" data-name="Rectangle 10781" width="18.035" height="53.173" transform="translate(3705.433 1986.184) rotate(180)" fill="#fff" stroke="#000" stroke-linecap="round" stroke-linejoin="round" stroke-width="1"/>
          <rect id="Rectangle_10782" data-name="Rectangle 10782" width="2.165" height="4.544" transform="translate(3700.461 1944.277) rotate(180)" fill="#fff" stroke="#000" stroke-linecap="round" stroke-linejoin="round" stroke-width="1"/>
          <rect id="Rectangle_10783" data-name="Rectangle 10783" width="3.058" height="3.294" transform="translate(3693.63 1943.028) rotate(180)" fill="#fff" stroke="#000" stroke-linecap="round" stroke-linejoin="round" stroke-width="1"/>
          <rect id="Rectangle_10784" data-name="Rectangle 10784" width="2.165" height="4.544" transform="translate(3700.461 1959.045) rotate(180)" fill="#fff" stroke="#000" stroke-linecap="round" stroke-linejoin="round" stroke-width="1"/>
          <rect id="Rectangle_10785" data-name="Rectangle 10785" width="2.165" height="4.544" transform="translate(3700.461 1977.106) rotate(180)" fill="#fff" stroke="#000" stroke-linecap="round" stroke-linejoin="round" stroke-width="1"/>
          <rect id="Rectangle_10786" data-name="Rectangle 10786" width="19.119" height="3.112" transform="translate(3706.517 1936.123) rotate(180)" fill="#fff" stroke="#000" stroke-linecap="round" stroke-linejoin="round" stroke-width="1"/>
        </g>
        <g id="Group_13559" data-name="Group 13559">
          <path id="Path_33943" data-name="Path 33943" d="M3673.172,1926.886l14.226,6.749v52.549h-28.452v-52.549Z" fill="#fff" stroke="#000" stroke-linecap="round" stroke-linejoin="round" stroke-width="1"/>
          <rect id="Rectangle_10787" data-name="Rectangle 10787" width="28.452" height="2.768" transform="translate(3687.398 1964.657) rotate(180)" fill="#fff" stroke="#000" stroke-linecap="round" stroke-linejoin="round" stroke-width="1"/>
          <rect id="Rectangle_10788" data-name="Rectangle 10788" width="28.452" height="2.263" transform="translate(3687.398 1953.293) rotate(180)" fill="#fff" stroke="#000" stroke-linecap="round" stroke-linejoin="round" stroke-width="1"/>
          <rect id="Rectangle_10789" data-name="Rectangle 10789" width="15.301" height="21.526" transform="translate(3680.012 1986.184) rotate(180)" fill="#fff" stroke="#000" stroke-linecap="round" stroke-linejoin="round" stroke-width="1"/>
          <path id="Path_33944" data-name="Path 33944" d="M3672.325,1971.28a4.1,4.1,0,0,1,4.1,4.1v10.649h-8.2v-10.649A4.1,4.1,0,0,1,3672.325,1971.28Z" fill="#fff" stroke="#000" stroke-linecap="round" stroke-linejoin="round" stroke-width="1"/>
          <g id="Group_13555" data-name="Group 13555">
            <rect id="Rectangle_10790" data-name="Rectangle 10790" width="4.514" height="6.092" transform="translate(3675.429 1959.385) rotate(180)" fill="#fff" stroke="#000" stroke-linecap="round" stroke-linejoin="round" stroke-width="1"/>
          </g>
          <g id="Group_13556" data-name="Group 13556">
            <rect id="Rectangle_10791" data-name="Rectangle 10791" width="7.851" height="8.668" transform="translate(3677.098 1948.194) rotate(180)" fill="#fff" stroke="#000" stroke-linecap="round" stroke-linejoin="round" stroke-width="1"/>
          </g>
          <g id="Group_13557" data-name="Group 13557">
            <path id="Path_33945" data-name="Path 33945" d="M3664.115,1955.362h3.211v4.206h-3.211Z" fill="#fff" stroke="#000" stroke-linecap="round" stroke-linejoin="round" stroke-width="1"/>
          </g>
          <g id="Group_13558" data-name="Group 13558">
            <path id="Path_33946" data-name="Path 33946" d="M3678.921,1955.179h3.211v4.206h-3.211Z" fill="#fff" stroke="#000" stroke-linecap="round" stroke-linejoin="round" stroke-width="1"/>
          </g>
          <path id="Path_33947" data-name="Path 33947" d="M3687.4,1931.774v3.958l-14.226-4.979v-3.866Z" fill="#fff" stroke="#000" stroke-linecap="round" stroke-linejoin="round" stroke-width="1"/>
          <path id="Path_33948" data-name="Path 33948" d="M3658.946,1931.774v3.958l14.226-4.979v-3.866Z" fill="#fff" stroke="#000" stroke-linecap="round" stroke-linejoin="round" stroke-width="1"/>
          <path id="Path_33949" data-name="Path 33949" d="M3672.464,1926.886h1.417l1.159,9.445H3671.3Z" fill="#fff" stroke="#000" stroke-linecap="round" stroke-linejoin="round" stroke-width="1"/>
        </g>
      </g>
      <line id="Line_126" data-name="Line 126" y2="33.059" transform="translate(3632.302 1864.489)" stroke="#000" stroke-linecap="round" stroke-linejoin="round" stroke-width="1"/>
      <path id="Path_33901" data-name="Path 33901" d="M3648.229,1911.446c-2.158-8.212-8.526-14.165-16.051-14.165s-13.893,5.953-16.051,14.165h-10.68v74.737h53.462v-74.737Z" fill="#fff" stroke="#000" stroke-linecap="round" stroke-linejoin="round" stroke-width="1"/>
      <g id="Group_13524" data-name="Group 13524">
        <rect id="Rectangle_10699" data-name="Rectangle 10699" width="7.851" height="8.668" transform="translate(3628.375 1921.303)" fill="#fff" stroke="#000" stroke-linecap="round" stroke-linejoin="round" stroke-width="1"/>
      </g>
      <path id="Path_33902" data-name="Path 33902" d="M3632.176,1963.975a6.154,6.154,0,0,0-6.135,6.173v16.035h12.27v-16.035A6.154,6.154,0,0,0,3632.176,1963.975Z" fill="#fff" stroke="#000" stroke-linecap="round" stroke-linejoin="round" stroke-width="1"/>
      <g id="Group_13525" data-name="Group 13525">
        <rect id="Rectangle_10700" data-name="Rectangle 10700" width="7.851" height="7.369" transform="translate(3628.375 1940.096)" fill="#fff" stroke="#000" stroke-linecap="round" stroke-linejoin="round" stroke-width="1"/>
      </g>
      <rect id="Rectangle_10701" data-name="Rectangle 10701" width="6.137" height="74.737" transform="translate(3605.447 1911.446)" fill="#fff" stroke="#000" stroke-linecap="round" stroke-linejoin="round" stroke-width="1"/>
      <rect id="Rectangle_10702" data-name="Rectangle 10702" width="6.137" height="74.737" transform="translate(3652.772 1911.446)" fill="#fff" stroke="#000" stroke-linecap="round" stroke-linejoin="round" stroke-width="1"/>
      <rect id="Rectangle_10703" data-name="Rectangle 10703" width="6.137" height="2.696" transform="translate(3605.447 1933.635)" fill="#fff" stroke="#000" stroke-linecap="round" stroke-linejoin="round" stroke-width="1"/>
      <rect id="Rectangle_10704" data-name="Rectangle 10704" width="41.187" height="2.696" transform="translate(3611.585 1933.635)" fill="#fff" stroke="#000" stroke-linecap="round" stroke-linejoin="round" stroke-width="1"/>
      <rect id="Rectangle_10705" data-name="Rectangle 10705" width="41.187" height="2.696" transform="translate(3611.585 1958.761)" fill="#fff" stroke="#000" stroke-linecap="round" stroke-linejoin="round" stroke-width="1"/>
      <rect id="Rectangle_10706" data-name="Rectangle 10706" width="6.137" height="2.696" transform="translate(3652.772 1933.635)" fill="#fff" stroke="#000" stroke-linecap="round" stroke-linejoin="round" stroke-width="1"/>
      <rect id="Rectangle_10707" data-name="Rectangle 10707" width="41.187" height="6.434" transform="translate(3611.585 1952.327)" fill="#fff" stroke="#000" stroke-linecap="round" stroke-linejoin="round" stroke-width="1"/>
      <rect id="Rectangle_10708" data-name="Rectangle 10708" width="41.187" height="3.966" transform="translate(3611.585 1951.276)" fill="#fff" stroke="#000" stroke-linecap="round" stroke-linejoin="round" stroke-width="1"/>
      <path id="Path_33903" data-name="Path 33903" d="M3610.163,1910.016l-1.288-5.209a.37.37,0,0,0-.718,0l-1.288,5.209h-.2v1.43h3.7v-1.43Z" fill="#fff" stroke="#000" stroke-linecap="round" stroke-linejoin="round" stroke-width="1"/>
      <path id="Path_33904" data-name="Path 33904" d="M3657.488,1910.016l-1.288-5.209a.37.37,0,0,0-.718,0l-1.289,5.209h-.2v1.43h3.7v-1.43Z" fill="#fff" stroke="#000" stroke-linecap="round" stroke-linejoin="round" stroke-width="1"/>
      <rect id="Rectangle_10709" data-name="Rectangle 10709" width="3.727" height="18.48" transform="translate(3619.678 1915.155)" fill="#fff" stroke="#000" stroke-linecap="round" stroke-linejoin="round" stroke-width="1"/>
      <rect id="Rectangle_10710" data-name="Rectangle 10710" width="3.727" height="18.48" transform="translate(3640.824 1915.155)" fill="#fff" stroke="#000" stroke-linecap="round" stroke-linejoin="round" stroke-width="1"/>
      <rect id="Rectangle_10711" data-name="Rectangle 10711" width="17.419" height="2.845" transform="translate(3623.405 1915.155)" fill="#fff" stroke="#000" stroke-linecap="round" stroke-linejoin="round" stroke-width="1"/>
      <path id="Path_33905" data-name="Path 33905" d="M3621.535,1912.343l-1.856,2.812v1.781h3.727v-1.781Z" fill="#fff" stroke="#000" stroke-linecap="round" stroke-linejoin="round" stroke-width="1"/>
      <path id="Path_33906" data-name="Path 33906" d="M3642.681,1912.343l-1.856,2.812v1.781h3.727v-1.781Z" fill="#fff" stroke="#000" stroke-linecap="round" stroke-linejoin="round" stroke-width="1"/>
      <path id="Path_33907" data-name="Path 33907" d="M3635.473,1896.726c-.52.188-2.674.9-3.156-.011a.016.016,0,0,0-.031,0c-.482.914-2.636.2-3.156.011-.022-.009-.034.016-.015.032,1.265,1.031,1.121,3.717.994,4.864a1.928,1.928,0,0,0,.42,1.8,2.321,2.321,0,0,0,2.173.961,2.239,2.239,0,0,0,1.792-2.763c-.127-1.147-.271-3.833.994-4.864C3635.507,1896.742,3635.5,1896.717,3635.473,1896.726Z" fill="#fff" stroke="#000" stroke-linecap="round" stroke-linejoin="round" stroke-width="1"/>
      <g id="Group_13541" data-name="Group 13541">
        <g id="Group_13534" data-name="Group 13534">
          <rect id="Rectangle_10741" data-name="Rectangle 10741" width="18.035" height="53.173" transform="translate(3558.96 1933.011)" fill="#fff" stroke="#000" stroke-linecap="round" stroke-linejoin="round" stroke-width="1"/>
          <rect id="Rectangle_10742" data-name="Rectangle 10742" width="2.165" height="4.544" transform="translate(3563.932 1939.734)" fill="#fff" stroke="#000" stroke-linecap="round" stroke-linejoin="round" stroke-width="1"/>
          <rect id="Rectangle_10743" data-name="Rectangle 10743" width="3.058" height="3.294" transform="translate(3570.764 1939.734)" fill="#fff" stroke="#000" stroke-linecap="round" stroke-linejoin="round" stroke-width="1"/>
          <rect id="Rectangle_10744" data-name="Rectangle 10744" width="2.165" height="4.544" transform="translate(3563.932 1954.501)" fill="#fff" stroke="#000" stroke-linecap="round" stroke-linejoin="round" stroke-width="1"/>
          <rect id="Rectangle_10745" data-name="Rectangle 10745" width="2.165" height="4.544" transform="translate(3563.932 1972.563)" fill="#fff" stroke="#000" stroke-linecap="round" stroke-linejoin="round" stroke-width="1"/>
          <rect id="Rectangle_10746" data-name="Rectangle 10746" width="19.119" height="3.112" transform="translate(3557.876 1933.011)" fill="#fff" stroke="#000" stroke-linecap="round" stroke-linejoin="round" stroke-width="1"/>
        </g>
        <g id="Group_13539" data-name="Group 13539">
          <path id="Path_33922" data-name="Path 33922" d="M3591.221,1926.886l-14.226,6.749v52.549h28.452v-52.549Z" fill="#fff" stroke="#000" stroke-linecap="round" stroke-linejoin="round" stroke-width="1"/>
          <rect id="Rectangle_10747" data-name="Rectangle 10747" width="28.452" height="2.768" transform="translate(3576.995 1961.89)" fill="#fff" stroke="#000" stroke-linecap="round" stroke-linejoin="round" stroke-width="1"/>
          <rect id="Rectangle_10748" data-name="Rectangle 10748" width="28.452" height="2.263" transform="translate(3576.995 1951.03)" fill="#fff" stroke="#000" stroke-linecap="round" stroke-linejoin="round" stroke-width="1"/>
          <rect id="Rectangle_10749" data-name="Rectangle 10749" width="15.964" height="21.526" transform="translate(3583.719 1964.657)" fill="#fff" stroke="#000" stroke-linecap="round" stroke-linejoin="round" stroke-width="1"/>
          <path id="Path_33923" data-name="Path 33923" d="M3591.7,1971.28a4.1,4.1,0,0,0-4.1,4.1v10.649h8.2v-10.649A4.1,4.1,0,0,0,3591.7,1971.28Z" fill="#fff" stroke="#000" stroke-linecap="round" stroke-linejoin="round" stroke-width="1"/>
          <g id="Group_13535" data-name="Group 13535">
            <rect id="Rectangle_10750" data-name="Rectangle 10750" width="4.514" height="6.092" transform="translate(3588.964 1953.293)" fill="#fff" stroke="#000" stroke-linecap="round" stroke-linejoin="round" stroke-width="1"/>
          </g>
          <g id="Group_13536" data-name="Group 13536">
            <rect id="Rectangle_10751" data-name="Rectangle 10751" width="7.851" height="8.668" transform="translate(3587.295 1939.526)" fill="#fff" stroke="#000" stroke-linecap="round" stroke-linejoin="round" stroke-width="1"/>
          </g>
          <g id="Group_13537" data-name="Group 13537">
            <path id="Path_33924" data-name="Path 33924" d="M3600.278,1959.568h-3.211v-4.206h3.211Z" fill="#fff" stroke="#000" stroke-linecap="round" stroke-linejoin="round" stroke-width="1"/>
          </g>
          <g id="Group_13538" data-name="Group 13538">
            <path id="Path_33925" data-name="Path 33925" d="M3585.473,1959.385h-3.211v-4.206h3.211Z" fill="#fff" stroke="#000" stroke-linecap="round" stroke-linejoin="round" stroke-width="1"/>
          </g>
          <path id="Path_33926" data-name="Path 33926" d="M3576.995,1931.774v3.958l14.226-4.979v-3.866Z" fill="#fff" stroke="#000" stroke-linecap="round" stroke-linejoin="round" stroke-width="1"/>
          <path id="Path_33927" data-name="Path 33927" d="M3605.447,1931.774v3.958l-14.226-4.979v-3.866Z" fill="#fff" stroke="#000" stroke-linecap="round" stroke-linejoin="round" stroke-width="1"/>
          <path id="Path_33928" data-name="Path 33928" d="M3591.929,1926.886h-1.417l-1.159,9.445h3.734Z" fill="#fff" stroke="#000" stroke-linecap="round" stroke-linejoin="round" stroke-width="1"/>
        </g>
      </g>
      <g id="Group_13562" data-name="Group 13562">
        <path id="Path_33950" data-name="Path 33950" d="M3642.554,1952.327v6.434h2.661v-7.484h-2.661Z" fill="#fff" stroke="#000" stroke-linecap="round" stroke-linejoin="round" stroke-width="1"/>
      </g>
      <g id="Group_13563" data-name="Group 13563">
        <path id="Path_33951" data-name="Path 33951" d="M3618.881,1952.327v6.434h2.661v-7.484h-2.661Z" fill="#fff" stroke="#000" stroke-linecap="round" stroke-linejoin="round" stroke-width="1"/>
      </g>
      <g id="Group_13564" data-name="Group 13564">
        <path id="Path_33952" data-name="Path 33952" d="M3642.554,1962.507v23.676h2.661v-24.727h-2.661Z" fill="#fff" stroke="#000" stroke-linecap="round" stroke-linejoin="round" stroke-width="1"/>
      </g>
      <g id="Group_13565" data-name="Group 13565">
        <path id="Path_33953" data-name="Path 33953" d="M3618.881,1962.507v23.676h2.661v-24.727h-2.661Z" fill="#fff" stroke="#000" stroke-linecap="round" stroke-linejoin="round" stroke-width="1"/>
      </g>
    </g>
    <line id="Line_131" data-name="Line 131" x2="9.944" transform="translate(3558.96 1879.217)" stroke="#000" stroke-linecap="round" stroke-linejoin="round" stroke-width="1.7"/>
    <line id="Line_132" data-name="Line 132" x2="9.944" transform="translate(3539.072 1879.217)" stroke="#000" stroke-linecap="round" stroke-linejoin="round" stroke-width="1.7"/>
    <line id="Line_133" data-name="Line 133" x2="9.944" transform="translate(3715.375 1879.217)" stroke="#000" stroke-linecap="round" stroke-linejoin="round" stroke-width="1.7"/>
    <line id="Line_134" data-name="Line 134" x2="9.944" transform="translate(3695.487 1879.217)" stroke="#000" stroke-linecap="round" stroke-linejoin="round" stroke-width="1.7"/>
  </g>
</svg>
