<svg xmlns="http://www.w3.org/2000/svg" width="170.502" height="205.59" viewBox="0 0 170.502 205.59">
  <g id="Group_29942" data-name="Group 29942" transform="translate(-308.75 -1855.5)" opacity="0.71">
    <path id="Path_34212" data-name="Path 34212" d="M-864.914,935.471h-2.738V923.585l2.738-.342Z" transform="translate(1185.675 1124.839)"/>
    <path id="Path_34214" data-name="Path 34214" d="M-852.592,935.627h-3.143V920.94l3.143-.685Z" transform="translate(1185.675 1124.839)"/>
    <path id="Path_34216" data-name="Path 34216" d="M-841.111,935.875h-3.143V918.3l3.143-.685Z" transform="translate(1185.675 1124.839)"/>
    <path id="Path_34218" data-name="Path 34218" d="M-829.629,915.215v20.66H-832.8V915.931" transform="translate(1185.675 1124.839)"/>
    <path id="Path_34220" data-name="Path 34220" d="M-818.179,912.85v23.025h-3.143V913.535" transform="translate(1185.675 1124.839)"/>
    <path id="Path_34222" data-name="Path 34222" d="M-806.355,910.143v25.732H-809.5V910.828" transform="translate(1185.675 1124.839)"/>
    <path id="Path_34225" data-name="Path 34225" d="M-798.7,910.548v25.328h-3.174V909.8" transform="translate(1185.675 1124.839)"/>
    <path id="Path_34226" data-name="Path 34226" d="M-735.164,935.564h2.769V921.718l-2.769-.5Z" transform="translate(1185.675 1124.839)"/>
    <path id="Path_34230" data-name="Path 34230" d="M-749.882,935.658h3.049V919.042l-3.049-.311Z" transform="translate(1185.675 1124.839)"/>
    <path id="Path_34232" data-name="Path 34232" d="M-763.852,916.242v19.291h3.143V916.927" transform="translate(1185.675 1124.839)"/>
    <path id="Path_34234" data-name="Path 34234" d="M-777.014,914.22v21.314h3.143V914.562" transform="translate(1185.675 1124.839)"/>
    <path id="Path_34236" data-name="Path 34236" d="M-790.176,911.979V935.72l3.143.093V912.539" transform="translate(1185.675 1124.839)"/>
    <rect id="Rectangle_10822" data-name="Rectangle 10822" width="3.825" height="11.35" transform="translate(470.263 2048.839)"/>
    <path id="Path_34227" data-name="Path 34227" d="M-723.279,935.253l2.756-.011.019-10.987-2.781-.437Z" transform="translate(1185.675 1124.839)"/>
    <path id="Path_34141" data-name="Path 34141" d="M-774.587,811.323h3.143c.591-2.987.062-5.6-.343-8.246-.4-2.582-.684-5.227-1.275-7.779-1.152-5.2-2.241-10.423-3.765-15.557-1.743-5.881-3.952-11.606-5.819-17.456a3.623,3.623,0,0,0-1.773-2.146,51.421,51.421,0,0,0-14.687-5.383c-.186-.031-.373.093-.622.4" transform="translate(1185.675 1124.839)" fill="rgba(0,0,0,0)" stroke="#000" stroke-linecap="round" stroke-linejoin="round" stroke-width="0.5"/>
    <path id="Path_34142" data-name="Path 34142" d="M-811.3,754.849a46.611,46.611,0,0,0-5.134.965,27.716,27.716,0,0,0-9.023,4.169,7.443,7.443,0,0,0-2.147,2.022c-3.3,6.286-6.69,12.509-9.21,19.136-1.151,3.049-2.458,6.068-3.391,9.179-1.463,4.823-1.712,9.677.311,14.437a12.748,12.748,0,0,0,1.991,2.334" transform="translate(1185.675 1124.839)" fill="rgba(0,0,0,0)" stroke="#000" stroke-linecap="round" stroke-linejoin="round" stroke-width="0.5"/>
    <path id="Path_34143" data-name="Path 34143" d="M-799.883,758.272c-.063,1-.281,2.551-.405,3.516-.4,3.485-1.213,6.845-1.338,10.33-.155,4.387.125,8.8.249,13.224.062,1.649.156,3.329.311,4.978a64.561,64.561,0,0,0,1.836,11.668,1.843,1.843,0,0,1-.125.778h-6.067v-44.65" transform="translate(1185.675 1124.839)" fill="rgba(0,0,0,0)" stroke="#000" stroke-linecap="round" stroke-linejoin="round" stroke-width="0.5"/>
    <path id="Path_34144" data-name="Path 34144" d="M-810.992,752.049c-.217,3.8-.342,7.561-.653,11.357-.218,2.924-.529,5.818-.933,8.712-.529,3.64-1.183,7.281-1.867,10.89a25.573,25.573,0,0,0-.467,9.614,4.8,4.8,0,0,1-.156,1.65,44.545,44.545,0,0,0-7-2.832c-3.454-1.058-6.939-1.462-10.424-.031-2.458,1.027-3.018,1.991-2.676,4.512a10.214,10.214,0,0,1-.124,2.178c-.405,3.205-1.12,7.374-1.556,10.579" transform="translate(1185.675 1124.839)" fill="rgba(0,0,0,0)" stroke="#000" stroke-linecap="round" stroke-linejoin="round" stroke-width="0.5"/>
    <path id="Path_34145" data-name="Path 34145" d="M-784.855,809.767h-.965c.125,1.991.156,3.8.374,5.6.218,1.992.622,3.952.9,5.912.529,3.579,1,7.157,1.587,10.735a34.311,34.311,0,0,0,1.245,4.667,5.718,5.718,0,0,0,1.058,1.556" transform="translate(1185.675 1124.839)" fill="rgba(0,0,0,0)" stroke="#000" stroke-linecap="round" stroke-linejoin="round" stroke-width="0.5"/>
    <path id="Path_34146" data-name="Path 34146" d="M-817.681,886.465c-.218-1.774-.436-3.516-.685-5.6a5.628,5.628,0,0,0,2.054-.031,19.424,19.424,0,0,0,4.792-2.489,24.027,24.027,0,0,0,7.934-14.282,50.273,50.273,0,0,0,.467-6.005c5.1-5.912,6.969-13.535,9.116-21.345-13.13-1.058-25.856-1.587-38.676,1.4a21.036,21.036,0,0,1-.249-3.111c.063-2.022.281-4.045.467-6.067a3.959,3.959,0,0,1,.436-1.089" transform="translate(1185.675 1124.839)" fill="rgba(0,0,0,0)" stroke="#000" stroke-linecap="round" stroke-linejoin="round" stroke-width="0.5"/>
    <g id="Group_13593" data-name="Group 13593" transform="translate(1185.675 1124.839)">
      <path id="Path_34147" data-name="Path 34147" d="M-791.078,812.1a29.617,29.617,0,0,1,.529,6.41,19.337,19.337,0,0,1-1.245,6.348,14.143,14.143,0,0,1-1.493,2.893,11.545,11.545,0,0,1-2.178,2.427,11.077,11.077,0,0,1-2.769,1.711,15.484,15.484,0,0,1-3.112.9,13.77,13.77,0,0,0,5.57-2.956,13.3,13.3,0,0,0,3.422-5.2,20.768,20.768,0,0,0,1.338-6.161A43.579,43.579,0,0,0-791.078,812.1Z"/>
    </g>
    <path id="Path_34148" data-name="Path 34148" d="M-805.546,838.237c-3.019,2.116-6.068,4.2-9.024,6.378a58.909,58.909,0,0,0-10.579,9.491,7.2,7.2,0,0,0-1.4,2.8c-.467,1.836.405,3.236,1.991,4.2.654.4,1.338.716,2.023,1.089" transform="translate(1185.675 1124.839)" fill="rgba(0,0,0,0)" stroke="#000" stroke-linecap="round" stroke-linejoin="round" stroke-width="0.5"/>
    <path id="Path_34149" data-name="Path 34149" d="M-802.9,802.922c-.124.809-.684.964-1.4.933-3.422-.124-6.845-.311-10.268-.28-3.64.031-7.249.28-10.89.436" transform="translate(1185.675 1124.839)" fill="rgba(0,0,0,0)" stroke="#000" stroke-linecap="round" stroke-linejoin="round" stroke-width="0.5"/>
    <g id="Group_13594" data-name="Group 13594" transform="translate(1185.675 1124.839)">
      <path id="Path_34150" data-name="Path 34150" d="M-796.025,810.234a13.5,13.5,0,0,1-.343,1.524,6.78,6.78,0,0,1-.217.747l-.249.747a19.392,19.392,0,0,1-1.245,2.862,20.345,20.345,0,0,1-3.8,4.948,18.86,18.86,0,0,1-2.427,1.991c-.4.311-.871.591-1.307.871a9.969,9.969,0,0,1-1.4.747,15.7,15.7,0,0,1-6.036,1.4,19.805,19.805,0,0,0,5.818-1.836c.436-.249.872-.5,1.307-.778.4-.28.84-.56,1.245-.9a27.728,27.728,0,0,0,2.333-1.96,19.971,19.971,0,0,0,2.054-2.24,20.229,20.229,0,0,0,1.742-2.521A22.2,22.2,0,0,0-796.025,810.234Z"/>
    </g>
    <g id="Group_13603" data-name="Group 13603" transform="translate(1174.769 1124.215)">
      <path id="Path_34150-2" data-name="Path 34150" d="M-803.212,810.234a7.817,7.817,0,0,1-.2.88,3.919,3.919,0,0,1-.125.432l-.144.432a11.2,11.2,0,0,1-.719,1.653,11.754,11.754,0,0,1-2.193,2.859,10.91,10.91,0,0,1-1.4,1.15c-.233.18-.5.341-.755.5a5.764,5.764,0,0,1-.809.432,9.073,9.073,0,0,1-3.487.809,11.442,11.442,0,0,0,3.361-1.061c.252-.144.5-.288.755-.449.234-.162.485-.324.719-.521a16.022,16.022,0,0,0,1.348-1.132,11.544,11.544,0,0,0,1.187-1.294,11.687,11.687,0,0,0,1.006-1.456A12.823,12.823,0,0,0-803.212,810.234Z"/>
    </g>
    <g id="Group_13595" data-name="Group 13595" transform="translate(1185.675 1124.839)">
      <path id="Path_34151" data-name="Path 34151" d="M-819.081,763.717a26.97,26.97,0,0,0-4.045,4.605c-.592.84-1.152,1.68-1.712,2.551s-1.12,1.712-1.618,2.614a47.171,47.171,0,0,0-2.707,5.476q-1.165,2.847-2.053,5.787a36.859,36.859,0,0,1,1.618-5.974,36.665,36.665,0,0,1,2.613-5.6c.529-.9,1.089-1.774,1.65-2.614.591-.84,1.182-1.711,1.8-2.489a29.1,29.1,0,0,1,2.054-2.334A20.605,20.605,0,0,1-819.081,763.717Z"/>
    </g>
    <g id="Group_13602" data-name="Group 13602" transform="translate(1193.27 1133.104)">
      <path id="Path_34151-2" data-name="Path 34151" d="M-824,763.717a16.031,16.031,0,0,0-2.4,2.737c-.352.5-.685,1-1.018,1.516s-.666,1.018-.962,1.554A28.041,28.041,0,0,0-830,772.78q-.693,1.692-1.22,3.44a21.918,21.918,0,0,1,.962-3.551,21.793,21.793,0,0,1,1.553-3.329c.314-.537.647-1.055.981-1.554.351-.5.7-1.017,1.072-1.48a17.3,17.3,0,0,1,1.221-1.387A12.251,12.251,0,0,1-824,763.717Z"/>
    </g>
    <path id="Path_34152" data-name="Path 34152" d="M-825.149,791.1c-.373,3.267-.715,6.534-1.089,9.8-.4,3.734-.84,7.468-1.244,11.2-.156,1.463-.312,2.894-.467,4.357" transform="translate(1185.675 1124.839)" fill="rgba(0,0,0,0)" stroke="#000" stroke-linecap="round" stroke-linejoin="round" stroke-width="0.5"/>
    <path id="Path_34153" data-name="Path 34153" d="M-799.79,836.526c-1.369,3.92-2.676,7.841-5.259,11.232-1.306,1.711-2.738,2.676-4.853,2.458" transform="translate(1185.675 1124.839)" fill="rgba(0,0,0,0)" stroke="#000" stroke-linecap="round" stroke-linejoin="round" stroke-width="0.5"/>
    <path id="Path_34154" data-name="Path 34154" d="M-811.023,751.4" transform="translate(1185.675 1124.839)" fill="rgba(0,0,0,0)" stroke="#fff" stroke-linecap="round" stroke-linejoin="round" stroke-width="0.5"/>
    <path id="Path_34155" data-name="Path 34155" d="M-791.545,862.973a28.022,28.022,0,0,1,1.058,9.49,5.833,5.833,0,0,1-3.267,5.228,19.014,19.014,0,0,1-3.236-.28A10.409,10.409,0,0,1-802,874.486a9.412,9.412,0,0,0-1.4-1.089" transform="translate(1185.675 1124.839)" fill="rgba(0,0,0,0)" stroke="#000" stroke-linecap="round" stroke-linejoin="round" stroke-width="0.5"/>
    <g id="Group_13596" data-name="Group 13596" transform="translate(1185.675 1124.839)">
      <path id="Path_34156" data-name="Path 34156" d="M-790.767,765.117c.094,2.365.125,4.729.125,7.125,0,2.365-.031,4.73-.063,7.126l-.062,3.547a26.552,26.552,0,0,0,.062,3.516,53.5,53.5,0,0,0,1.027,7,35.219,35.219,0,0,1-1.524-6.969,27.469,27.469,0,0,1-.156-3.578l.031-3.548q.047-3.546.187-7.094C-791.047,769.846-790.922,767.482-790.767,765.117Z"/>
    </g>
    <g id="Group_13597" data-name="Group 13597" transform="translate(1185.675 1124.839)">
      <path id="Path_34157" data-name="Path 34157" d="M-784.17,780.986a32.138,32.138,0,0,1,.062,4.885c-.062.809-.094,1.586-.094,2.4-.031.809-.062,1.618-.062,2.427a36,36,0,0,0,.311,4.823c.218,1.587.5,3.205.809,4.792a32.32,32.32,0,0,1-1.68-9.584,42.965,42.965,0,0,1,.187-4.885C-784.451,784.221-784.388,782.6-784.17,780.986Z"/>
    </g>
    <path id="Path_34158" data-name="Path 34158" d="M-799.168,803.077c.28.84.529,1.649.84,2.645.871,0,1.8-.031,2.738,0,2.552.093,5.1,0,7.624.342,3.951.56,7.84,1.276,11.792,2.023a3.744,3.744,0,0,1,.965.28" transform="translate(1185.675 1124.839)" fill="rgba(0,0,0,0)" stroke="#000" stroke-linecap="round" stroke-linejoin="round" stroke-width="0.5"/>
    <path id="Path_34159" data-name="Path 34159" d="M-794.034,836.992l5.912.187a45.689,45.689,0,0,1,.747,4.792,17,17,0,0,1-.467,4.511c-.56,2.085-1.742,2.241-3.7,1.556-.311-.093-.622-.218-.933-.311" transform="translate(1185.675 1124.839)" fill="rgba(0,0,0,0)" stroke="#000" stroke-linecap="round" stroke-linejoin="round" stroke-width="0.5"/>
    <path id="Path_34160" data-name="Path 34160" d="M-805.391,870.6c2.24,1.774,1.992,4.481,2.427,6.846.5,2.8.591,5.694.809,8.556.031.467-.373.623-.56,1.432a9.213,9.213,0,0,0,.031,2.769c2.987-1.712,5.663-1.183,8.308-1,2.147.156,3.174,1.774,2.862,3.081" transform="translate(1185.675 1124.839)" fill="rgba(0,0,0,0)" stroke="#000" stroke-linecap="round" stroke-linejoin="round" stroke-width="0.5"/>
    <path id="Path_34161" data-name="Path 34161" d="M-817.837,861.262a12.718,12.718,0,0,0,1.494,6.1c1.275,2.49,3.3,3.236,5.818,3.392" transform="translate(1185.675 1124.839)" fill="rgba(0,0,0,0)" stroke="#000" stroke-linecap="round" stroke-linejoin="round" stroke-width="0.5"/>
    <path id="Path_34162" data-name="Path 34162" d="M-814.414,853.017a46.46,46.46,0,0,0-7.468,8.712,15.158,15.158,0,0,0-2.458,6.845,6.427,6.427,0,0,0,2.427,6.067" transform="translate(1185.675 1124.839)" fill="rgba(0,0,0,0)" stroke="#000" stroke-linecap="round" stroke-linejoin="round" stroke-width="0.5"/>
    <path id="Path_34163" data-name="Path 34163" d="M-835.261,795.61c-2.738.528-3.547,2.769-3.734,4.822a19.926,19.926,0,0,0,.778,6.068,1.474,1.474,0,0,0,.311.622c2.116,1.867,1,4.076.778,6.223-.093.933-.031,1.867-.031,2.8" transform="translate(1185.675 1124.839)" fill="rgba(0,0,0,0)" stroke="#000" stroke-linecap="round" stroke-linejoin="round" stroke-width="0.5"/>
    <path id="Path_34164" data-name="Path 34164" d="M-799.866,751.353a7.971,7.971,0,0,0-.546.851c-1.525,2.769-4.108,2.645-6.69,2.489a3.815,3.815,0,0,1-2.956-1.866,4.582,4.582,0,0,0-.778-.778" transform="translate(1185.675 1124.839)" fill="rgba(0,0,0,0)" stroke="#000" stroke-linecap="round" stroke-linejoin="round" stroke-width="0.5"/>
    <path id="Path_34165" data-name="Path 34165" d="M-790.985,895.084a7.713,7.713,0,0,0-.591-2.987c-2.022-1.8-8.588-2.365-11.979.4" transform="translate(1185.675 1124.839)" fill="rgba(0,0,0,0)" stroke="#000" stroke-linecap="round" stroke-linejoin="round" stroke-width="0.5"/>
    <path id="Path_34166" data-name="Path 34166" d="M-806.449,892.812c-.56-2.707-9.832-3.2-12.2-.186a1.8,1.8,0,0,0-.124.249,2.469,2.469,0,0,0-.156.622c-.062,1.12-.218,1.991-.062,2.022" transform="translate(1185.675 1124.839)" fill="rgba(0,0,0,0)" stroke="#000" stroke-linecap="round" stroke-linejoin="round" stroke-width="0.5"/>
    <path id="Path_34167" data-name="Path 34167" d="M-819.548,837.615a58.264,58.264,0,0,0-5.57,3.3c-3.391,2.489-4.138,6.005-1.089,9.614a22.967,22.967,0,0,0,2.023,1.867" transform="translate(1185.675 1124.839)" fill="rgba(0,0,0,0)" stroke="#000" stroke-linecap="round" stroke-linejoin="round" stroke-width="0.5"/>
    <path id="Path_34168" data-name="Path 34168" d="M-817.992,792.871c.933.374,1.991.841,2.271,1,.373.218,1.245.778-.467.871a13.365,13.365,0,0,0-3.7.778,4.444,4.444,0,0,0-1.058.28,13.133,13.133,0,0,1-4.668,1.214" transform="translate(1185.675 1124.839)" fill="rgba(0,0,0,0)" stroke="#000" stroke-linecap="round" stroke-linejoin="round" stroke-width="0.5"/>
    <path id="Path_34169" data-name="Path 34169" d="M-794.189,854.883c1.182.374,2.4.716,3.733,1.121a39.848,39.848,0,0,1-.062,5.1c-.187,1.463-1.276,2.427-3.049,1.556-1.307-.653-2.583-1.338-3.89-2.022" transform="translate(1185.675 1124.839)" fill="rgba(0,0,0,0)" stroke="#000" stroke-linecap="round" stroke-linejoin="round" stroke-width="0.5"/>
    <path id="Path_34170" data-name="Path 34170" d="M-811.52,895.239c.591-1.338.031-2.582-1.494-2.675a28.238,28.238,0,0,0-3.267,0c-1.4.093-2.023,1.711-1.742,2.987.746-.032,1.524-.218,2.24-.249" transform="translate(1185.675 1124.839)" fill="rgba(0,0,0,0)" stroke="#000" stroke-linecap="round" stroke-linejoin="round" stroke-width="0.5"/>
    <path id="Path_34171" data-name="Path 34171" d="M-808.813,875.513a12.862,12.862,0,0,1-.405,2.178,34.746,34.746,0,0,0-.311,6.5,4.56,4.56,0,0,1-.062.778,3.184,3.184,0,0,1-.249.715" transform="translate(1185.675 1124.839)" fill="rgba(0,0,0,0)" stroke="#000" stroke-linecap="round" stroke-linejoin="round" stroke-width="0.5"/>
    <path id="Path_34172" data-name="Path 34172" d="M-806.324,895.4a18.8,18.8,0,0,0-.405-3.983c-.747-1.742-2.4-2.427-4.449-2.333-1.4.062-2.8-.031-4.2.031a3.164,3.164,0,0,0-3.267,3.267" transform="translate(1185.675 1124.839)" fill="rgba(0,0,0,0)" stroke="#000" stroke-linecap="round" stroke-linejoin="round" stroke-width="0.5"/>
    <path id="Path_34173" data-name="Path 34173" d="M-834.95,815.616c-1.587,2.676-1.307,5.85-1.213,8.775a2.707,2.707,0,0,0,1.835,2.178" transform="translate(1185.675 1124.839)" fill="rgba(0,0,0,0)" stroke="#000" stroke-linecap="round" stroke-linejoin="round" stroke-width="0.5"/>
    <path id="Path_34174" data-name="Path 34174" d="M-809.778,855.345a22.858,22.858,0,0,0,2.831,2.925c1.743,1.276,4.092.246,5.091-1.8" transform="translate(1185.675 1124.839)" fill="rgba(0,0,0,0)" stroke="#000" stroke-linecap="round" stroke-linejoin="round" stroke-width="0.5"/>
    <path id="Path_34175" data-name="Path 34175" d="M-793.567,877.908c-.062,2.739-.094,5.508-.156,8.246" transform="translate(1185.675 1124.839)" fill="rgba(0,0,0,0)" stroke="#000" stroke-linecap="round" stroke-linejoin="round" stroke-width="0.5"/>
    <path id="Path_34176" data-name="Path 34176" d="M-793.1,889.421c.466-2.551-.747-4.107-3.268-4.014-1.9.062-3.858-.5-5.6.747" transform="translate(1185.675 1124.839)" fill="rgba(0,0,0,0)" stroke="#000" stroke-linecap="round" stroke-linejoin="round" stroke-width="0.5"/>
    <path id="Path_34177" data-name="Path 34177" d="M-788.9,848.505a26.651,26.651,0,0,1,.9,2.956v.031a4.078,4.078,0,0,1-1.929,4.107c-.124.062-.249.156-.373.218" transform="translate(1185.675 1124.839)" fill="rgba(0,0,0,0)" stroke="#000" stroke-linecap="round" stroke-linejoin="round" stroke-width="0.5"/>
    <path id="Path_34178" data-name="Path 34178" d="M-798.888,895.084a2.021,2.021,0,0,1,.934-2.116,2.716,2.716,0,0,1,1.182-.342,16.553,16.553,0,0,1,3.049.031c1.027.093,1.556,1,1.712,2.427-.778.031-1,.062-1.4.062-1.773.062-3.64.031-5.414.031" transform="translate(1185.675 1124.839)" fill="rgba(0,0,0,0)" stroke="#000" stroke-linecap="round" stroke-linejoin="round" stroke-width="0.5"/>
    <path id="Path_34179" data-name="Path 34179" d="M-808.5,889.421a2.962,2.962,0,0,0-2.645-4.045q-2.1-.093-4.2,0c-2.115.093-3.08,1.774-2.644,4.512v.155" transform="translate(1185.675 1124.839)" fill="rgba(0,0,0,0)" stroke="#000" stroke-linecap="round" stroke-linejoin="round" stroke-width="0.5"/>
    <path id="Path_34180" data-name="Path 34180" d="M-784.7,806.655a90.706,90.706,0,0,0,.777,9.646c.063.28.187.933.28,1.182" transform="translate(1185.675 1124.839)" fill="rgba(0,0,0,0)" stroke="#000" stroke-linecap="round" stroke-linejoin="round" stroke-width="0.5"/>
    <path id="Path_34181" data-name="Path 34181" d="M-809.342,895.488c2.458-.217,2.178-3.111.217-3.111a1.385,1.385,0,0,0-1.4,1.151,2.134,2.134,0,0,0,.094.716,2.04,2.04,0,0,0,1.089,1.244c1.182.094,1.96.063,3.018.156-.063.436-.125,1.089-.156,1.556" transform="translate(1185.675 1124.839)" fill="rgba(0,0,0,0)" stroke="#000" stroke-linecap="round" stroke-linejoin="round" stroke-width="0.5"/>
    <path id="Path_34182" data-name="Path 34182" d="M-831.061,823.457c-.155-1.306-.28-2.582-.466-3.889a4.454,4.454,0,0,0-.716-1.929c-.685,1.711-2.24,3.236-.809,5.165a7.7,7.7,0,0,0,1.4,1.245c.56.466,1.089.933,1.712,1.431.342.28.248.933-.218.964-1.338.094-2.3-.373-4.512-1.8.934.715,0,3.329,2.676,2.831.684-.124,1.431-.062,1.9-.622a.762.762,0,0,0,.187-.342" transform="translate(1185.675 1124.839)" fill="rgba(0,0,0,0)" stroke="#000" stroke-linecap="round" stroke-linejoin="round" stroke-width="0.5"/>
    <path id="Path_34183" data-name="Path 34183" d="M-829.505,815.616c.5,1.338,1.245,2.707.778,4.574-.218.965-.28,1.961-.436,2.894-.28.685-.933,1.245-1.929.373" transform="translate(1185.675 1124.839)" fill="rgba(0,0,0,0)" stroke="#000" stroke-linecap="round" stroke-linejoin="round" stroke-width="0.5"/>
    <path id="Path_34184" data-name="Path 34184" d="M-780.654,838.237c-1.307-.062-3.361-.405-4.668-.467-.84-.031-1.649-.093-2.489-.155" transform="translate(1185.675 1124.839)" fill="rgba(0,0,0,0)" stroke="#000" stroke-linecap="round" stroke-linejoin="round" stroke-width="0.5"/>
    <path id="Path_34185" data-name="Path 34185" d="M-821.1,869.663c-.529,2.614-.933,5.165.093,7.81a6.556,6.556,0,0,0,2.707,3.391" transform="translate(1185.675 1124.839)" fill="rgba(0,0,0,0)" stroke="#000" stroke-linecap="round" stroke-linejoin="round" stroke-width="0.5"/>
    <path id="Path_34186" data-name="Path 34186" d="M-799.946,755.316c-2.178,2.893-5.134,2.987-8.214,2.116a4.23,4.23,0,0,1-2.894-2.21" transform="translate(1185.675 1124.839)" fill="rgba(0,0,0,0)" stroke="#000" stroke-linecap="round" stroke-linejoin="round" stroke-width="0.5"/>
    <path id="Path_34187" data-name="Path 34187" d="M-799.977,895.115a1.554,1.554,0,0,0-.435-2.458,1.35,1.35,0,0,0-1.245.031,1.344,1.344,0,0,0-.622,1.618c.311,1.089,1.306,1.182,3.173.9" transform="translate(1185.675 1124.839)" fill="rgba(0,0,0,0)" stroke="#000" stroke-linecap="round" stroke-linejoin="round" stroke-width="0.5"/>
    <path id="Path_34188" data-name="Path 34188" d="M-828.634,818.355c.56-.156.9-1.307.778-1.618a.533.533,0,0,0-.186-.312c-1.743-1.866-8.246-1.338-9.117-.124-.654,1.12-.156,1.711.933,2.022" transform="translate(1185.675 1124.839)" fill="rgba(0,0,0,0)" stroke="#000" stroke-linecap="round" stroke-linejoin="round" stroke-width="0.5"/>
    <path id="Path_34189" data-name="Path 34189" d="M-811.178,758.178c2.831,2.023,8,2.085,11.326.031v-6.783" transform="translate(1185.675 1124.839)" fill="rgba(0,0,0,0)" stroke="#000" stroke-linecap="round" stroke-linejoin="round" stroke-width="0.5"/>
    <path id="Path_34190" data-name="Path 34190" d="M-771.476,810.234c-1.151-.592-2.333-1.152-3.858-1.93.342,3.05.654,5.819.965,8.681a2.114,2.114,0,0,1-.809,2.116s.218.965.186.965" transform="translate(1185.675 1124.839)" fill="rgba(0,0,0,0)" stroke="#000" stroke-linecap="round" stroke-linejoin="round" stroke-width="0.5"/>
    <path id="Path_34191" data-name="Path 34191" d="M-811.458,895.333c-1.463.155-2.925-.125-4.979,0" transform="translate(1185.675 1124.839)" fill="rgba(0,0,0,0)" stroke="#000" stroke-linecap="round" stroke-linejoin="round" stroke-width="0.5"/>
    <path id="Path_34192" data-name="Path 34192" d="M-826.549,837.148l.467,4.2" transform="translate(1185.675 1124.839)" fill="rgba(0,0,0,0)" stroke="#000" stroke-linecap="round" stroke-linejoin="round" stroke-width="0.5"/>
    <path id="Path_34193" data-name="Path 34193" d="M-786.255,806.655c.155,1,.311,1.961.467,2.956" transform="translate(1185.675 1124.839)" fill="rgba(0,0,0,0)" stroke="#000" stroke-linecap="round" stroke-linejoin="round" stroke-width="0.5"/>
    <path id="Path_34194" data-name="Path 34194" d="M-836.1,822.835c.4,1.431,2.271,2.583,3.609,3.143" transform="translate(1185.675 1124.839)" fill="rgba(0,0,0,0)" stroke="#000" stroke-linecap="round" stroke-linejoin="round" stroke-width="0.5"/>
    <path id="Path_34195" data-name="Path 34195" d="M-777.356,815.71c2.831,1.773,2.769,6.6,2.333,9.428a2.707,2.707,0,0,1-1.835,2.178" transform="translate(1185.675 1124.839)" fill="rgba(0,0,0,0)" stroke="#000" stroke-linecap="round" stroke-linejoin="round" stroke-width="0.5"/>
    <path id="Path_34196" data-name="Path 34196" d="M-780.126,824.2c.156-1.307.281-2.582.467-3.889a4.449,4.449,0,0,1,.716-1.929c.684,1.711,2.24,3.236.809,5.165a7.722,7.722,0,0,1-1.4,1.244c-.56.467-1.089.934-1.712,1.432-.342.28-.249.933.218.964,1.338.093,2.3-.373,4.512-1.8-.934.716,0,3.33-2.676,2.832-.685-.125-1.431-.062-1.9-.622a.76.76,0,0,1-.187-.343" transform="translate(1185.675 1124.839)" fill="rgba(0,0,0,0)" stroke="#000" stroke-linecap="round" stroke-linejoin="round" stroke-width="0.5"/>
    <path id="Path_34197" data-name="Path 34197" d="M-782.148,816.861a5.866,5.866,0,0,0-.342,4.076c.218.965.28,1.96.435,2.894.28.684.934,1.244,1.929.373" transform="translate(1185.675 1124.839)" fill="rgba(0,0,0,0)" stroke="#000" stroke-linecap="round" stroke-linejoin="round" stroke-width="0.5"/>
    <path id="Path_34198" data-name="Path 34198" d="M-774.836,823.3c-.4,1.431-2.551,2.862-3.858,3.391" transform="translate(1185.675 1124.839)" fill="rgba(0,0,0,0)" stroke="#000" stroke-linecap="round" stroke-linejoin="round" stroke-width="0.5"/>
    <path id="Path_34199" data-name="Path 34199" d="M-816.437,895.333c-.84.124-1.68.218-2.644.342V897.2" transform="translate(1185.675 1124.839)" fill="rgba(0,0,0,0)" stroke="#000" stroke-linecap="round" stroke-linejoin="round" stroke-width="0.5"/>
    <path id="Path_34200" data-name="Path 34200" d="M-808.969,895.488c-.84-.062-1.649-.093-2.489-.155" transform="translate(1185.675 1124.839)" fill="rgba(0,0,0,0)" stroke="#000" stroke-linecap="round" stroke-linejoin="round" stroke-width="0.5"/>
    <path id="Path_34201" data-name="Path 34201" d="M-791.234,897.2c.063-.405.187-1.618.249-2.085-.435,0-1.524,0-2.738.031" transform="translate(1185.675 1124.839)" fill="rgba(0,0,0,0)" stroke="#000" stroke-linecap="round" stroke-linejoin="round" stroke-width="0.5"/>
    <path id="Path_34202" data-name="Path 34202" d="M-802.59,890.2c-.187.249-.374.467-.561.715a2.738,2.738,0,0,0-.529,1.276c-.124,1.151-.186,3.081-.186,3.578" transform="translate(1185.675 1124.839)" fill="rgba(0,0,0,0)" stroke="#000" stroke-linecap="round" stroke-linejoin="round" stroke-width="0.5"/>
    <path id="Path_34203" data-name="Path 34203" d="M-781.712,816.457a2.047,2.047,0,0,1-2.178.031,6.456,6.456,0,0,0,1.089,2.458" transform="translate(1185.675 1124.839)" fill="rgba(0,0,0,0)" stroke="#000" stroke-linecap="round" stroke-linejoin="round" stroke-width="0.5"/>
    <path id="Path_34204" data-name="Path 34204" d="M-798.826,895.177a30.077,30.077,0,0,0-5.04.654c.062.435.124.9.155,1.369" transform="translate(1185.675 1124.839)" fill="rgba(0,0,0,0)" stroke="#000" stroke-linecap="round" stroke-linejoin="round" stroke-width="0.5"/>
    <path id="Path_34205" data-name="Path 34205" d="M-774.587,817.079c-.249-.156-2.365-2.894-7.125-.622" transform="translate(1185.675 1124.839)" fill="rgba(0,0,0,0)" stroke="#000" stroke-linecap="round" stroke-linejoin="round" stroke-width="0.5"/>
    <circle id="Ellipse_17" data-name="Ellipse 17" cx="0.56" cy="0.56" r="0.56" transform="translate(381.062 1888.68)" fill="none" stroke="#000" stroke-linecap="round" stroke-linejoin="round" stroke-width="0.5"/>
    <circle id="Ellipse_18" data-name="Ellipse 18" cx="0.56" cy="0.56" r="0.56" transform="translate(381.062 1895.836)" fill="none" stroke="#000" stroke-linecap="round" stroke-linejoin="round" stroke-width="0.5"/>
    <circle id="Ellipse_19" data-name="Ellipse 19" cx="0.56" cy="0.56" r="0.56" transform="translate(381.062 1902.993)" fill="none" stroke="#000" stroke-linecap="round" stroke-linejoin="round" stroke-width="0.5"/>
    <circle id="Ellipse_20" data-name="Ellipse 20" cx="0.56" cy="0.56" r="0.56" transform="translate(381.062 1909.838)" fill="none" stroke="#000" stroke-linecap="round" stroke-linejoin="round" stroke-width="0.5"/>
    <circle id="Ellipse_21" data-name="Ellipse 21" cx="0.56" cy="0.56" r="0.56" transform="translate(381.062 1916.995)" fill="none" stroke="#000" stroke-linecap="round" stroke-linejoin="round" stroke-width="0.5"/>
    <circle id="Ellipse_22" data-name="Ellipse 22" cx="0.56" cy="0.56" r="0.56" transform="translate(381.062 1924.151)" fill="none" stroke="#000" stroke-linecap="round" stroke-linejoin="round" stroke-width="0.5"/>
    <path id="Path_34206" data-name="Path 34206" d="M-841.111,897.293h72.529v10.423l61.9,14.613a1.972,1.972,0,0,1-.408.152l-13.8-.172-83.357-14.468-36.871.778Z" transform="translate(1185.675 1124.839)" fill="none" stroke="#000" stroke-width="0.5"/>
    <path id="Path_34207" data-name="Path 34207" d="M-841.2,908.65l-35.378,15.806,72.187-16.584Z" transform="translate(1185.675 1124.839)" fill="none" stroke="#000" stroke-linecap="round" stroke-linejoin="round" stroke-width="0.5"/>
    <path id="Path_34209" data-name="Path 34209" d="M-706.832,922.485v12.757l-119.436.634-43.872-.436V924.456l66.181-15,73.326,12.7,9.689,1.678.031-1.587Z" transform="translate(1185.675 1124.839)" fill="none" stroke="#000" stroke-linecap="round" stroke-linejoin="round" stroke-width="0.75"/>
    <rect id="Rectangle_10807" data-name="Rectangle 10807" width="40.574" height="1.929" transform="translate(360.993 2022.132)" fill="none" stroke="#000" stroke-width="0.5"/>
    <path id="Path_34210" data-name="Path 34210" d="M-810.774,907.872l-1.9.093v-7.343h1.9Z" transform="translate(1185.675 1124.839)" fill="none" stroke="#000" stroke-width="0.25"/>
    <path id="Path_34211" data-name="Path 34211" d="M-813.636,907.841l-1.929.093v-7.312h1.929Z" transform="translate(1185.675 1124.839)" fill="none" stroke="#000" stroke-width="0.25"/>
    <rect id="Rectangle_10808" data-name="Rectangle 10808" width="1.898" height="7.468" transform="translate(367.247 2025.461)" fill="none" stroke="#000" stroke-width="0.25"/>
    <rect id="Rectangle_10809" data-name="Rectangle 10809" width="1.898" height="7.468" transform="translate(364.354 2025.461)" fill="none" stroke="#000" stroke-width="0.25"/>
    <rect id="Rectangle_10810" data-name="Rectangle 10810" width="1.898" height="7.468" transform="translate(361.459 2025.461)" fill="none" stroke="#000" stroke-width="0.25"/>
    <rect id="Rectangle_10811" data-name="Rectangle 10811" width="1.898" height="7.468" transform="translate(358.597 2025.461)" fill="none" stroke="#000" stroke-width="0.25"/>
    <rect id="Rectangle_10812" data-name="Rectangle 10812" width="1.898" height="7.81" transform="translate(355.703 2025.461)" fill="none" stroke="#000" stroke-width="0.25"/>
    <rect id="Rectangle_10813" data-name="Rectangle 10813" width="1.898" height="7.81" transform="translate(352.841 2025.461)" fill="none" stroke="#000" stroke-width="0.25"/>
    <rect id="Rectangle_10814" data-name="Rectangle 10814" width="1.898" height="7.872" transform="translate(349.947 2025.461)" fill="none" stroke="#000" stroke-width="0.25"/>
    <path id="Path_34213" data-name="Path 34213" d="M-859.344,935.564h-2.769V922.4l2.769-.5Z" transform="translate(1185.675 1124.839)" fill="none" stroke="#000" stroke-linecap="round" stroke-width="0.25"/>
    <path id="Path_34215" data-name="Path 34215" d="M-846.788,935.813H-849.4a.262.262,0,0,1-.263-.263V919.814a.264.264,0,0,1,.207-.257l2.616-.57a.263.263,0,0,1,.319.257V935.55A.262.262,0,0,1-846.788,935.813Z" transform="translate(1185.675 1124.839)" fill="none" stroke="#000" stroke-linecap="round" stroke-width="0.25"/>
    <path id="Path_34217" data-name="Path 34217" d="M-835.043,916.584v19.291h-3.143V917.269" transform="translate(1185.675 1124.839)" fill="none" stroke="#000" stroke-width="0.25"/>
    <path id="Path_34219" data-name="Path 34219" d="M-823.9,913.877v22h-3.143V914.562" transform="translate(1185.675 1124.839)" fill="none" stroke="#000" stroke-width="0.25"/>
    <path id="Path_34221" data-name="Path 34221" d="M-812.423,911.481v24.394H-815.6V912.2" transform="translate(1185.675 1124.839)" fill="none" stroke="#000" stroke-width="0.25"/>
    <path id="Path_34223" data-name="Path 34223" d="M-796.679,910.7v25.172h3.143V911.232" transform="translate(1185.675 1124.839)" fill="none" stroke="#000" stroke-linecap="round" stroke-width="0.25"/>
    <path id="Path_34224" data-name="Path 34224" d="M-800.973,935.875h-3.143V909.459" transform="translate(1185.675 1124.839)" fill="none" stroke="#000" stroke-linecap="round" stroke-width="0.25"/>
    <path id="Path_34228" data-name="Path 34228" d="M-742.788,935.5l3.36-.156v-14.78l-3.343-.416Z" transform="translate(1185.675 1124.839)" fill="none" stroke="#000" stroke-linecap="round" stroke-width="0.25"/>
    <path id="Path_34229" data-name="Path 34229" d="M-729.533,935.253l3.392.093V922.963l-3.392-.747Z" transform="translate(1185.675 1124.839)" fill="none" stroke="#000" stroke-linecap="round" stroke-width="0.25"/>
    <path id="Path_34231" data-name="Path 34231" d="M-756.758,935.72h3.143V918.14l-3.143-.685Z" transform="translate(1185.675 1124.839)" fill="none" stroke="#000" stroke-linecap="round" stroke-width="0.25"/>
    <path id="Path_34233" data-name="Path 34233" d="M-770.262,915.246v20.287h3.143V915.775" transform="translate(1185.675 1124.839)" fill="none" stroke="#000" stroke-linecap="round" stroke-width="0.25"/>
    <path id="Path_34235" data-name="Path 34235" d="M-783.424,913.193v22.34h3.143v-22" transform="translate(1185.675 1124.839)" fill="none" stroke="#000" stroke-linecap="round" stroke-width="0.25"/>
    <path id="Path_34237" data-name="Path 34237" d="M-768.582,907.716l-35.658.124.017-8.693" transform="translate(1185.675 1124.839)" fill="none" stroke="#000" stroke-linecap="round" stroke-linejoin="round" stroke-width="0.5"/>
    <path id="Path_34238" data-name="Path 34238" d="M-772.969,907.53l-1.9.093V900.28h1.9Z" transform="translate(1185.675 1124.839)" fill="none" stroke="#000" stroke-width="0.25"/>
    <path id="Path_34239" data-name="Path 34239" d="M-775.863,907.5l-1.9.093V900.28h1.9Z" transform="translate(1185.675 1124.839)" fill="none" stroke="#000" stroke-width="0.25"/>
    <rect id="Rectangle_10815" data-name="Rectangle 10815" width="1.898" height="7.468" transform="translate(405.021 2025.119)" fill="none" stroke="#000" stroke-width="0.25"/>
    <rect id="Rectangle_10816" data-name="Rectangle 10816" width="1.898" height="7.468" transform="translate(402.158 2025.119)" fill="none" stroke="#000" stroke-width="0.25"/>
    <rect id="Rectangle_10817" data-name="Rectangle 10817" width="1.898" height="7.468" transform="translate(399.264 2025.119)" fill="none" stroke="#000" stroke-width="0.25"/>
    <rect id="Rectangle_10818" data-name="Rectangle 10818" width="1.898" height="7.468" transform="translate(396.37 2025.119)" fill="none" stroke="#000" stroke-width="0.25"/>
    <rect id="Rectangle_10819" data-name="Rectangle 10819" width="1.898" height="7.468" transform="translate(393.508 2025.119)" fill="none" stroke="#000" stroke-width="0.25"/>
    <rect id="Rectangle_10820" data-name="Rectangle 10820" width="1.898" height="7.468" transform="translate(390.614 2025.119)" fill="none" stroke="#000" stroke-width="0.25"/>
    <rect id="Rectangle_10821" data-name="Rectangle 10821" width="1.898" height="7.468" transform="translate(387.721 2025.119)" fill="none" stroke="#000" stroke-width="0.25"/>
    <g id="Group_13600" data-name="Group 13600" transform="translate(1185.675 1124.839)">
      <path id="Path_34240" data-name="Path 34240" d="M-811.982,750.791c.025.033.05.066.073.1a.7.7,0,0,1,.061.119c.09.149.179.3.254.462.034.056.068.112.1.169a1.061,1.061,0,0,1,.109.474c0,.052,0,.1,0,.157a1,1,0,0,1-.008.109,2.653,2.653,0,0,0-.016.569,3.748,3.748,0,0,0,.256,1.045c.054-.033.11-.066.106-.057l.045-.041h0l.006-.011a.883.883,0,0,1,.187-.218,3.669,3.669,0,0,1-.235-.933,4.594,4.594,0,0,0-.671-2.194,4.815,4.815,0,0,1-.706-1.935,10.8,10.8,0,0,0-.248-1.168l-.074.013c0,.085,0,.17,0,.254a5.642,5.642,0,0,0,.443,2.565c.089.14.179.278.263.421C-812.021,750.725-812,750.758-811.982,750.791Z"/>
      <path id="Path_34241" data-name="Path 34241" d="M-814.843,742.088c.032.428.07.86.1,1.293a9.145,9.145,0,0,1,0,1.159,6.147,6.147,0,0,0,.712,2.94,2.859,2.859,0,0,0,.352.6.505.505,0,0,0,.741.161c-.447.042-.546-.223-.676-.559-.176-.453-.381-.894-.542-1.352a3.46,3.46,0,0,1-.223-.937,13.017,13.017,0,0,1,.018-1.756c.034-.408.179-.806.251-1.213a.507.507,0,0,0-.4-.665c.257-.344.323-.361.682-.165a.975.975,0,0,0,.231.134.392.392,0,0,0,.292-.025.357.357,0,0,0,.063-.284,3.055,3.055,0,0,0-.15-.452c.138-.025.24-.048.343-.061a.906.906,0,0,0,.831-.551.288.288,0,0,1,.137-.158,4.2,4.2,0,0,1,1.934-.7,7.83,7.83,0,0,1,.984.141,3.138,3.138,0,0,1,.733.349.546.546,0,0,1,.224.327c.062.273.081.557.118.837l.073,0c.026-.171.062-.341.077-.513.032-.377.1-.466.47-.54.29-.058.585-.089.877-.132V739.9h-1.05a.279.279,0,0,1-.267-.2c-.02-.069-.147.008-.179-.053-.045-.087-.04-.132-.118-.141-.261-.03-.192-.109-.3-.1-.281-.084-.062.009-.5-.225-.142.1-.264-.046-.437-.11a1.809,1.809,0,0,0-1.719.218c-.158.117-.333.156-.484.281a5.889,5.889,0,0,0-.844.756c-.215.329-.175.2-.51.384a.278.278,0,0,1-.415-.243,1.108,1.108,0,0,1,.012-.153,5.544,5.544,0,0,0-.085-1.935,3.245,3.245,0,0,1,.3-2.332,2.416,2.416,0,0,0,.153-.477,1.627,1.627,0,0,0-.277.282,2.4,2.4,0,0,0-.615,2.221,12.371,12.371,0,0,1,.165,1.581c.011.427-.033.856-.065,1.284a.278.278,0,0,1-.277.257h0a.277.277,0,0,1-.276-.262c-.049-.879-.109-1.744-.129-2.61a2.537,2.537,0,0,1,.551-1.822,5.492,5.492,0,0,0,.843-1.429,4.179,4.179,0,0,1,1.472-1.741,7.405,7.405,0,0,1,2.2-1.216c.337-.116.9-.427,1.239-.528a7,7,0,0,1,1.933-.422,11.534,11.534,0,0,1,4.7,1.734c.265.177,1.129.751,1.376.953.595.484.672.415,1.255.914a2.491,2.491,0,0,1,.74,1.141,4.933,4.933,0,0,1,.16,1.767,2.346,2.346,0,0,0,.7,1.963.639.639,0,0,1,.2.647,1.12,1.12,0,0,0-.322-.047,1.467,1.467,0,0,0-.572.151c-.149.1-.264.121-.379.018a.914.914,0,0,1-.3-.386,4.479,4.479,0,0,1-.079-.458.277.277,0,0,1,.435-.26l.292.206a.166.166,0,0,0-.038-.15,2.623,2.623,0,0,1-.674-2.139c.015-.169,0-.342,0-.513a2.831,2.831,0,0,0-.646-1.795.955.955,0,0,0-.772-.388,2.8,2.8,0,0,1,.954,1.812,12.871,12.871,0,0,1,0,1.779,14.383,14.383,0,0,0,.039,1.455c.057.535.247,1.005.915,1.072a3.033,3.033,0,0,0-.214.347c-.154.352-.313.7-.436,1.068a.584.584,0,0,0,.145.674,1.223,1.223,0,0,1,.328,1.307c-.049.271-.083.545-.124.818a4.09,4.09,0,0,0,.353-.711,1.245,1.245,0,0,0-.282-1.626.285.285,0,0,1-.11-.228,2.719,2.719,0,0,1,.808-1.633.279.279,0,0,1,.2-.1c.764-.024.982.087,1.12.9l.01.2a8.255,8.255,0,0,0,.009,1.618,3.472,3.472,0,0,1-.4,2.741,2.377,2.377,0,0,0-.25.564c-.1.25-.187.508-.3.75a.353.353,0,0,1-.442.216.5.5,0,0,1-.153-.082.173.173,0,0,1-.072-.022.111.111,0,0,1-.028-.012.268.268,0,0,0-.336,0c0,.027-.006.053-.012.079-.1.428-.185.864-.327,1.282a6.973,6.973,0,0,1-1.385,2.256.152.152,0,0,0,.066.024,2.19,2.19,0,0,0,.74-.416,3.35,3.35,0,0,0,.789-1.247l.009-.028c.131-.437.23-.885.337-1.329a.285.285,0,0,1,.352-.2c.349.082.614-.084.8-.507.022-.05.039-.1.062-.15.24-.511.491-1.018.718-1.534a1.862,1.862,0,0,0,.2-.69c.011-1.071-.01-2.143-.024-3.215a1.466,1.466,0,0,0-.864-1.408.356.356,0,0,1-.067-.058.951.951,0,0,0-.251-1.006,1.7,1.7,0,0,1-.432-1.313,6.219,6.219,0,0,0,.023-1.075,3,3,0,0,0-.5-1.767,7.229,7.229,0,0,0-1.878-1.754c-.136-.084-.264-.183-.4-.275a15.489,15.489,0,0,0-1.6-1.087,17.874,17.874,0,0,0-2.223-.939,5.8,5.8,0,0,0-2.745-.367,5.311,5.311,0,0,0-1.254.367c-.8.321-1.594.647-2.358,1.036a5.956,5.956,0,0,0-2.824,2.927c-.189.419-.5.78-.73,1.184a4.409,4.409,0,0,0-.526,1.112,7.838,7.838,0,0,0-.048,2.5,3.146,3.146,0,0,1-.262,2.17"/>
      <g id="Group_13599" data-name="Group 13599">
        <path id="Path_34242" data-name="Path 34242" d="M-802.081,748.783a5.315,5.315,0,0,0-1.172-1.252c-.3-.279-.517-.21-.874-.375-.611-.062-1.329-.6-2.049-.15a.773.773,0,0,1-.758.058,2.222,2.222,0,0,0-2.061.764l-1.258.279v-.576c-.011-.092.453-2.516.453-2.516l.739.482.066-.058c-.665-.536-.633-.81-.258-1.424a1.154,1.154,0,0,0-.547.656c-.483,3.189-.6,3.665-.594,4a6.034,6.034,0,0,1-.069.986v.833l.375-1.689c.21.064.069-.189.288-.228.071-.093.228-.123.3-.218a.481.481,0,0,1,.7-.118c.46.492.88.42,1.563.564.025.005.177.64.188.644l-.781.212-.653.41a1.227,1.227,0,0,0,.2-.054,4.381,4.381,0,0,1,2.029-.433c.448.008,1.138.094,1.586.077h0l-.987-.212,2-1.309v-.026c-.53.206-1.189.681-1.727.862a1.978,1.978,0,0,1-1.469.417c-.114.019-.144-.566-.266-.6l.4-.091a2.453,2.453,0,0,1,.246-.07,5.472,5.472,0,0,0,2.337-.966.532.532,0,0,1,.711-.02,9.253,9.253,0,0,1,.955.934c.238.266.432.573.645.862l.066-.046A4.462,4.462,0,0,1-802.081,748.783Zm-6.4-.783a5.69,5.69,0,0,1,3.7-.469C-805.644,748.208-807.8,748.734-808.484,748Z"/>
      </g>
      <path id="Path_34243" data-name="Path 34243" d="M-801.075,739.4c-.355-.284-.521-.2-.881-.474a1.9,1.9,0,0,0-1.641-.422c-.189.054-.371.03-.562.076-.085.021-.374.192-.453.174a.643.643,0,0,0-.672.3c-.181.222-.286.069-.458.3a.724.724,0,0,0,.058.985c.017-.135.026-.27.051-.4a.571.571,0,0,1,.533-.519c.593-.092.97-.425,1.566-.488a4.071,4.071,0,0,1,1.19.255,15.847,15.847,0,0,1,1.533.6A1.8,1.8,0,0,0-801.075,739.4Z"/>
      <path id="Path_34244" data-name="Path 34244" d="M-801.852,736.775a3.654,3.654,0,0,0-3.05-.557,5.724,5.724,0,0,1-2.217.008,9.371,9.371,0,0,0-3.235.034,1.684,1.684,0,0,0-.857.473,5.844,5.844,0,0,1,.9-.2,19.445,19.445,0,0,1,3.192.038,15.763,15.763,0,0,0,2.806-.044,4.831,4.831,0,0,1,2.891.824c.084.049.16.112.239.169l.065-.083A8.525,8.525,0,0,0-801.852,736.775Z"/>
      <path id="Path_34245" data-name="Path 34245" d="M-797.262,741.344c-.12-.152.183-.578,0-.521a.61.61,0,0,0-.332.947c.052.061.285.133.332.2a2.686,2.686,0,0,1,.074,2.964c-.063.123-.109.255-.163.383l.044.022q.144-.191.289-.38a3.074,3.074,0,0,0,.343-1.958c-.039-.414-.176-.476-.137-.891S-797,741.677-797.262,741.344Z"/>
      <path id="Path_34246" data-name="Path 34246" d="M-797.567,742.671a.452.452,0,0,1-.226-.5c.019-.075-.065-.174-.1-.262-.07.075-.207.156-.2.223a2.566,2.566,0,0,0,.373.849,1.108,1.108,0,0,1,0,1.266,2.532,2.532,0,0,0-.373.578c.062.131-.181.3-.118.374.021.022.156-.021.2-.069.218-.249.426-.508.632-.767A1.076,1.076,0,0,0-797.567,742.671Z" transform="translate(0 0.036)"/>
      <path id="Path_34247" data-name="Path 34247" d="M-806.878,745.77c-.2-.061-.364-.105-.523-.16q-.669-.235-1.334-.478c-.145-.053-.315-.11-.267-.309s.231-.216.393-.169a3.438,3.438,0,0,1,.6.226c.32.159.626.347.945.509a.667.667,0,0,0,.95-.247,1.687,1.687,0,0,1,1.211-.717c.116-.009.241.089.362.137a2.369,2.369,0,0,1-.287.261c-.051.051-.281.057-.359.073-.479.1-.524.427-.926.714l-.464.16Z"/>
      <path id="Path_34249" data-name="Path 34249" d="M-811.7,741.429a1.862,1.862,0,0,1,2.877-.221l-.859-.194c-.2.562-.336.684-.7.631-.33-.048-.456-.213-.483-.711Z"/>
      <path id="Path_34250" data-name="Path 34250" d="M-803.483,740.951c.115-.05-.171-.236-.3-.423l-1.163.288c.778-.833,2.557-.823,3.1.022l-.81-.276-.216.41"/>
      <path id="Path_34251" data-name="Path 34251" d="M-807.827,737.36a5.671,5.671,0,0,0-2.542-.432,1.885,1.885,0,0,0-1.294.507,8.059,8.059,0,0,1,1.192-.138c.909.019,1.816.092,2.764.145A1,1,0,0,0-807.827,737.36Z"/>
      <path id="Path_34254" data-name="Path 34254" d="M-813.287,745.045a1.248,1.248,0,0,1-.365-1.081,1.809,1.809,0,0,0-.133-1.107.919.919,0,0,1-.018-.719c.1.228.191.484.321.719a1.272,1.272,0,0,1,.162,1.008A1.639,1.639,0,0,0-813.287,745.045Z"/>
      <path id="Path_34255" data-name="Path 34255" d="M-808.9,741.453c-1.074.84-1.617.936-2.67.355A4.964,4.964,0,0,0-808.9,741.453Z"/>
      <path id="Path_34265" data-name="Path 34265" d="M-809.914,749.827c-.029-1.9,1.543-3.22,4.2-3.433-.6.363-1.356.5-1.846.819a7.248,7.248,0,0,0-1.2.924A17.381,17.381,0,0,0-809.914,749.827Z" transform="translate(-1890.537 557.29) rotate(-127)"/>
      <path id="Path_34257" data-name="Path 34257" d="M-814,745.636c.307.235.608.468.914.694.034.024.1,0,.18,0-.088-.412-.2-.778-.652-.937a.55.55,0,0,1,.647.207.861.861,0,0,1,.17.807.3.3,0,0,1-.224.147A1.413,1.413,0,0,1-814,745.636Z"/>
      <path id="Path_34258" data-name="Path 34258" d="M-801.838,736.021a12.072,12.072,0,0,0-2.558-.618C-803.861,735.013-802.633,735.319-801.838,736.021Z"/>
      <path id="Path_34260" data-name="Path 34260" d="M-802.138,741.312a1.781,1.781,0,0,1-2.08.084Z"/>
      <path id="Path_34261" data-name="Path 34261" d="M-804.424,743.095a.893.893,0,0,1,.668.8.8.8,0,0,1-.534.857A1.378,1.378,0,0,0-804.424,743.095Z"/>
      <path id="Path_34262" data-name="Path 34262" d="M-802.168,751.042c-.061-.632.124-.866.641-.973a.769.769,0,0,0,.328-.234,1.627,1.627,0,0,0,.183-.29c.015.561-.122.752-.611.866C-801.925,750.481-802.043,750.716-802.168,751.042Z"/>
      <path id="Path_34263" data-name="Path 34263" d="M-801.92,739.57a1.26,1.26,0,0,1,1.036.7Z"/>
      <path id="Path_34264" data-name="Path 34264" d="M-808.3,748.107l3.641-.36Z"/>
    </g>
    <line id="Line_136" data-name="Line 136" x2="14" transform="translate(464.675 2048.839)" fill="none" stroke="#000" stroke-linecap="round" stroke-linejoin="round" stroke-width="0.75"/>
    <circle id="Ellipse_23" data-name="Ellipse 23" cx="0.5" cy="0.5" r="0.5" transform="translate(381.875 1865.039)"/>
    <path id="Path_34208" data-name="Path 34208" d="M-876.675,925.576l72.56-16.148h.062l78.1,13.548,4.944.858.093-1.618-83.326-14.437-72.435,16.646v1.151Z" transform="translate(1185.675 1124.839)" fill="none" stroke="#000" stroke-linecap="round" stroke-linejoin="round" stroke-width="0.5"/>
  </g>
</svg>
