<svg xmlns="http://www.w3.org/2000/svg" width="52.034" height="95.395" viewBox="0 0 52.034 95.395">
  <path id="Path_23860" data-name="Path 23860" d="M42.055,0H10.314A10.157,10.157,0,0,0,.168,10.147v75.1A10.156,10.156,0,0,0,10.314,95.4H42.055A10.157,10.157,0,0,0,52.2,85.249v-75.1A10.158,10.158,0,0,0,42.055,0Zm5.81,85.249a5.816,5.816,0,0,1-5.81,5.81H10.314a5.816,5.816,0,0,1-5.81-5.81v-75.1a5.816,5.816,0,0,1,5.81-5.811H42.055a5.816,5.816,0,0,1,5.81,5.811Zm0,0" transform="translate(-0.168)" fill="#162441"/>
</svg>
