<svg id="pc" xmlns="http://www.w3.org/2000/svg" width="106.769" height="96.503" viewBox="0 0 106.769 96.503">
  <g id="Group_1509" data-name="Group 1509">
    <g id="Group_1508" data-name="Group 1508" transform="translate(0 0)">
      <path id="Path_23863" data-name="Path 23863" d="M95.476,24.615H11.293A11.306,11.306,0,0,0,0,35.908V89.292a11.306,11.306,0,0,0,11.293,11.293H38.56l-3.285,16.426H24.639a2.053,2.053,0,1,0,0,4.106H82.13a2.053,2.053,0,0,0,0-4.106H71.494l-3.285-16.426H95.476a11.306,11.306,0,0,0,11.293-11.293V35.908A11.306,11.306,0,0,0,95.476,24.615Zm-56.013,92.4,3.285-16.426H64.021l3.285,16.426Zm63.2-27.719a7.2,7.2,0,0,1-7.186,7.186H11.293a7.2,7.2,0,0,1-7.186-7.186V84.159h98.556v5.133Zm0-9.239H4.106V75.946c-.036-4.224-.02,0,0-4.106V35.908a7.2,7.2,0,0,1,7.186-7.186H95.476a7.2,7.2,0,0,1,7.186,7.186V80.053Z" transform="translate(0 -24.615)" fill="#162441"/>
    </g>
  </g>
  <g id="Group_1511" data-name="Group 1511" transform="translate(50.788 63.382)">
    <g id="Group_1510" data-name="Group 1510">
      <path id="Path_23864" data-name="Path 23864" d="M238.9,320a2.6,2.6,0,1,0,2.6,2.6A2.6,2.6,0,0,0,238.9,320Z" transform="translate(-236.308 -320)" fill="#fe5b57"/>
    </g>
  </g>
</svg>
