<svg xmlns="http://www.w3.org/2000/svg" width="120.226" height="120.226" viewBox="0 0 120.226 120.226">
  <g id="smart-watch_1_" data-name="smart-watch (1)" transform="translate(1.414 60.113) rotate(-45)">
    <path id="Path_23886" data-name="Path 23886" d="M83.013,23.347a7.248,7.248,0,0,0-2.137-5.159L64.825,2.137a7.3,7.3,0,0,0-10.318,0L48.359,8.286a8.916,8.916,0,0,0-12.011.547L8.832,36.347a8.916,8.916,0,0,0-.547,12.011L2.137,54.507a7.3,7.3,0,0,0,0,10.318l16.05,16.051a7.3,7.3,0,0,0,10.318,0l6.149-6.149a8.916,8.916,0,0,0,12.011-.547l8.6-8.6,1.72,1.72A7.3,7.3,0,0,0,67.3,56.984l-1.72-1.72,8.6-8.6a8.916,8.916,0,0,0,.547-12.011l6.149-6.149a7.247,7.247,0,0,0,2.138-5.159ZM25.066,77.436a2.432,2.432,0,0,1-3.439,0L5.576,61.386a2.431,2.431,0,0,1,0-3.439L11.7,51.825l19.49,19.49Zm38.8-13.574a2.435,2.435,0,0,1-3.439,0l-1.72-1.72L62.143,58.7l1.72,1.72A2.435,2.435,0,0,1,63.863,63.863Zm6.879-20.636L43.226,70.741a4.053,4.053,0,0,1-5.732,0h0L12.272,45.519a4.053,4.053,0,0,1,0-5.732L39.787,12.272a4.054,4.054,0,0,1,5.732,0L70.741,37.494a4.053,4.053,0,0,1,0,5.732Zm6.7-18.16-6.122,6.122L51.825,11.7l6.122-6.122a2.432,2.432,0,0,1,3.439,0L77.436,21.627a2.432,2.432,0,0,1,0,3.439Z" transform="translate(0 0)" fill="#162441" stroke="#fff" stroke-width="2"/>
    <rect id="Rectangle_29" data-name="Rectangle 29" width="24.622" height="2.473" rx="1.237" transform="translate(19.29 47.413) rotate(45)" fill="#fe5b57"/>
  </g>
</svg>
