<svg xmlns="http://www.w3.org/2000/svg" width="113.663" height="94.01" viewBox="0 0 113.663 94.01">
  <g id="wifi-router" transform="translate(1.5 1.514)">
    <path id="Path_23878" data-name="Path 23878" d="M100.937,120.886H92.669l17.516-40.87a3.242,3.242,0,0,0-5.96-2.554l-18.61,43.424H25.049L6.438,77.461a3.242,3.242,0,0,0-5.96,2.554l17.516,40.87H9.726A9.737,9.737,0,0,0,0,130.612v19.453a9.737,9.737,0,0,0,9.726,9.726h3.458v3.458a3.242,3.242,0,0,0,6.484,0v-3.458H90.995v3.458a3.242,3.242,0,0,0,6.484,0v-3.458h3.458a9.737,9.737,0,0,0,9.726-9.726V130.612A9.737,9.737,0,0,0,100.937,120.886Zm3.242,29.179a3.246,3.246,0,0,1-3.242,3.242H9.726a3.246,3.246,0,0,1-3.242-3.242V130.612a3.246,3.246,0,0,1,3.242-3.242h91.211a3.246,3.246,0,0,1,3.242,3.242Z" transform="translate(0 -75.496)" fill="#162441" stroke="#fff" stroke-width="3"/>
    <path id="Path_23883" data-name="Path 23883" d="M304.242,345.5A3.242,3.242,0,0,0,301,348.742v6.484a3.242,3.242,0,0,0,6.484,0v-6.484A3.242,3.242,0,0,0,304.242,345.5Z" transform="translate(-228.942 -287.141)" fill="#fe5b57" stroke="#fff" stroke-width="3"/>
    <path id="Path_23884" data-name="Path 23884" d="M364.242,345.5A3.242,3.242,0,0,0,361,348.742v6.484a3.242,3.242,0,0,0,6.484,0v-6.484A3.242,3.242,0,0,0,364.242,345.5Z" transform="translate(-278.974 -287.141)" fill="#fe5b57" stroke="#fff" stroke-width="3"/>
    <path id="Path_23885" data-name="Path 23885" d="M424.242,345.5A3.242,3.242,0,0,0,421,348.742v6.484a3.242,3.242,0,0,0,6.484,0v-6.484A3.242,3.242,0,0,0,424.242,345.5Z" transform="translate(-330.005 -287.141)" fill="#fe5b57" stroke="#fff" stroke-width="3"/>
  </g>
</svg>
